<?xml version="1.0" encoding="UTF-8"?>
<svg id="Layer_1" data-name="Layer 1" xmlns="http://www.w3.org/2000/svg" xmlns:xlink="http://www.w3.org/1999/xlink" viewBox="0 0 64 64">
  <defs>
    <style>
      .cls-1 {
        stroke-miterlimit: 10;
        stroke-width: 1.5px;
      }

      .cls-1, .cls-2, .cls-3 {
        fill: none;
      }

      .cls-1, .cls-3 {
        stroke: #fff;
      }

      .cls-2, .cls-4, .cls-5, .cls-6, .cls-7 {
        stroke-width: 0px;
      }

      .cls-4 {
        fill: url(#radial-gradient);
      }

      .cls-5 {
        opacity: .2;
      }

      .cls-5, .cls-7 {
        fill: #fff;
      }

      .cls-8 {
        opacity: .5;
      }

      .cls-3 {
        stroke-linejoin: round;
        stroke-width: 2px;
      }

      .cls-6 {
        fill: #009ca2;
      }
    </style>
    <radialGradient id="radial-gradient" cx="32" cy="32" fx="32" fy="32" r="22" gradientUnits="userSpaceOnUse">
      <stop offset="0" stop-color="#00b8c4"/>
      <stop offset="1" stop-color="#1383c6"/>
    </radialGradient>
  </defs>
  <rect class="cls-2" width="64" height="64"/>
  <g>
    <circle class="cls-4" cx="32" cy="32" r="22"/>
    <path class="cls-5" d="m16.44365,47.55635c-8.59153-8.59153-8.59153-22.52116,0-31.1127s22.52116-8.59153,31.1127,0l-31.1127,31.1127Z"/>
    <g>
      <g class="cls-8">
        <path class="cls-3" d="m26.85127,21.45471h13.52844c3.09116,0,5.62029,2.37269,5.62029,5.27264s-2.23475,5.27264-4.9661,5.27264h-4.9661m-8.1356,0h-4.9661c-2.73136,0-4.9661,2.37269-4.9661,5.27264s2.52913,5.27264,5.62029,5.27264h13.52844"/>
      </g>
      <g>
        <g>
          <circle class="cls-6" cx="22.78344" cy="21.45462" r="5.06763"/>
          <path class="cls-7" d="m22.78344,17.38724c2.24609,0,4.06787,1.82036,4.06787,4.06747,0,2.24594-1.82178,4.06747-4.06787,4.06747-2.24634,0-4.06775-1.82153-4.06775-4.06747,0-2.24711,1.82141-4.06747,4.06775-4.06747m0-2c-3.34583,0-6.06775,2.72186-6.06775,6.06747s2.72192,6.06747,6.06775,6.06747,6.06787-2.72186,6.06787-6.06747-2.72205-6.06747-6.06787-6.06747h0Z"/>
        </g>
        <polyline class="cls-1" points="24.81737 20.00204 22.20235 22.90738 20.74957 21.45471"/>
      </g>
      <g>
        <g>
          <path class="cls-6" d="m32.00024,37.06741c-2.79443,0-5.06787-2.27344-5.06787-5.06738s2.27344-5.06738,5.06787-5.06738c2.79395,0,5.06738,2.27344,5.06738,5.06738s-2.27344,5.06738-5.06738,5.06738Z"/>
          <path class="cls-7" d="m31.99999,27.93253c2.24609,0,4.06775,1.82037,4.06775,4.06747,0,2.24594-1.82166,4.06747-4.06775,4.06747-2.24646,0-4.06775-1.82153-4.06775-4.06747,0-2.2471,1.82129-4.06747,4.06775-4.06747m0-2c-3.34583,0-6.06775,2.72186-6.06775,6.06747s2.72192,6.06747,6.06775,6.06747,6.06775-2.72186,6.06775-6.06747-2.72192-6.06747-6.06775-6.06747h0Z"/>
        </g>
        <polyline class="cls-1" points="34.0339 30.54733 31.41889 33.45267 29.9661 32"/>
      </g>
      <g>
        <g>
          <circle class="cls-6" cx="41.21654" cy="42.54544" r="5.06763"/>
          <path class="cls-7" d="m41.21654,38.47782c2.24609,0,4.06775,1.82037,4.06775,4.06747,0,2.24595-1.82166,4.06747-4.06775,4.06747-2.24646,0-4.06787-1.82152-4.06787-4.06747,0-2.2471,1.82141-4.06747,4.06787-4.06747m0-2c-3.34583,0-6.06787,2.72186-6.06787,6.06747s2.72205,6.06747,6.06787,6.06747,6.06775-2.72186,6.06775-6.06747-2.72192-6.06747-6.06775-6.06747h0Z"/>
        </g>
        <polyline class="cls-1" points="43.25043 41.09262 40.63542 43.99796 39.18263 42.54529"/>
      </g>
    </g>
  </g>
</svg>