<?xml version="1.0" encoding="UTF-8" standalone="no"?>
<!DOCTYPE svg PUBLIC "-//W3C//DTD SVG 1.1//EN"
 "http://www.w3.org/Graphics/SVG/1.1/DTD/svg11.dtd">
<!-- Generated by graphviz version 7.1.0 (20230121.1956)
 -->
<!-- Pages: 1 -->
<svg width="360pt" height="299pt"
 viewBox="0.00 0.00 360.00 299.00" xmlns="http://www.w3.org/2000/svg" xmlns:xlink="http://www.w3.org/1999/xlink">
<g id="graph0" class="graph" transform="scale(1 1) rotate(0) translate(4 295)">
<polygon fill="white" stroke="none" points="-4,4 -4,-295 356,-295 356,4 -4,4"/>
<g id="clust1" class="cluster">
<title>cluster&#45;scatter&#45;L17C2&#45;bam_object</title>
<polygon fill="none" stroke="black" points="8,-225.5 8,-265.5 145,-265.5 145,-225.5 8,-225.5"/>
<text text-anchor="middle" x="76.5" y="-250.3" font-family="Times,serif" font-size="14.00">scatter(aligned_bams)</text>
</g>
<g id="clust2" class="cluster">
<title>cluster&#45;scatter&#45;L22C2&#45;chromosome</title>
<polygon fill="none" stroke="black" points="153,-136 153,-283 344,-283 344,-136 153,-136"/>
<text text-anchor="middle" x="248.5" y="-267.8" font-family="Times,serif" font-size="14.00">scatter(reference.chromosomes)</text>
</g>
<!-- scatter&#45;L17C2&#45;bam_object -->
<!-- call&#45;split_vcf -->
<g id="node2" class="node">
<title>call&#45;split_vcf</title>
<polygon fill="none" stroke="black" points="268,-246 216,-246 216,-222 268,-222 280,-234 268,-246"/>
<text text-anchor="middle" x="248" y="-230.3" font-family="Times,serif" font-size="14.00">split_vcf</text>
</g>
<!-- call&#45;whatshap_phase -->
<g id="node3" class="node">
<title>call&#45;whatshap_phase</title>
<polygon fill="none" stroke="black" points="288.5,-174 195.5,-174 195.5,-150 288.5,-150 300.5,-162 288.5,-174"/>
<text text-anchor="middle" x="248" y="-158.3" font-family="Times,serif" font-size="14.00">whatshap_phase</text>
</g>
<!-- call&#45;split_vcf&#45;&gt;call&#45;whatshap_phase -->
<g id="edge1" class="edge">
<title>call&#45;split_vcf&#45;&gt;call&#45;whatshap_phase</title>
<path fill="none" stroke="black" d="M248,-215.7C248,-208.41 248,-199.73 248,-191.54"/>
<polygon fill="black" stroke="black" points="251.5,-191.62 248,-181.62 244.5,-191.62 251.5,-191.62"/>
</g>
<!-- call&#45;bcftools_concat -->
<g id="node5" class="node">
<title>call&#45;bcftools_concat</title>
<polygon fill="none" stroke="black" points="287,-102 197,-102 197,-78 287,-78 299,-90 287,-102"/>
<text text-anchor="middle" x="248" y="-86.3" font-family="Times,serif" font-size="14.00">bcftools_concat</text>
</g>
<!-- call&#45;whatshap_phase&#45;&gt;call&#45;bcftools_concat -->
<g id="edge2" class="edge">
<title>call&#45;whatshap_phase&#45;&gt;call&#45;bcftools_concat</title>
<path fill="none" stroke="black" d="M248,-143.7C248,-136.41 248,-127.73 248,-119.54"/>
<polygon fill="black" stroke="black" points="251.5,-119.62 248,-109.62 244.5,-119.62 251.5,-119.62"/>
</g>
<!-- scatter&#45;L22C2&#45;chromosome -->
<!-- call&#45;whatshap_stats -->
<g id="node6" class="node">
<title>call&#45;whatshap_stats</title>
<polygon fill="none" stroke="black" points="285,-30 199,-30 199,-6 285,-6 297,-18 285,-30"/>
<text text-anchor="middle" x="248" y="-14.3" font-family="Times,serif" font-size="14.00">whatshap_stats</text>
</g>
<!-- call&#45;bcftools_concat&#45;&gt;call&#45;whatshap_stats -->
<g id="edge3" class="edge">
<title>call&#45;bcftools_concat&#45;&gt;call&#45;whatshap_stats</title>
<path fill="none" stroke="black" d="M248,-71.7C248,-64.41 248,-55.73 248,-47.54"/>
<polygon fill="black" stroke="black" points="251.5,-47.62 248,-37.62 244.5,-47.62 251.5,-47.62"/>
</g>
</g>
</svg>
