<?xml version="1.0" encoding="UTF-8" standalone="no"?>
<!DOCTYPE svg PUBLIC "-//W3C//DTD SVG 1.1//EN"
 "http://www.w3.org/Graphics/SVG/1.1/DTD/svg11.dtd">
<!-- Generated by graphviz version 2.43.0 (0)
 -->
<!-- Title: %3 Pages: 1 -->
<svg width="455pt" height="299pt"
 viewBox="0.00 0.00 455.00 299.00" xmlns="http://www.w3.org/2000/svg" xmlns:xlink="http://www.w3.org/1999/xlink">
<g id="graph0" class="graph" transform="scale(1 1) rotate(0) translate(4 295)">
<title>%3</title>
<polygon fill="white" stroke="transparent" points="-4,4 -4,-295 451,-295 451,4 -4,4"/>
<g id="clust1" class="cluster">
<title>cluster&#45;scatter&#45;L18C2&#45;bam_object</title>
<polygon fill="none" stroke="black" points="8,-225.5 8,-265.5 183,-265.5 183,-225.5 8,-225.5"/>
<text text-anchor="middle" x="95.5" y="-250.3" font-family="Times,serif" font-size="14.00">scatter(aligned_bams)</text>
</g>
<g id="clust2" class="cluster">
<title>cluster&#45;scatter&#45;L23C2&#45;chromosome</title>
<polygon fill="none" stroke="black" points="191,-136 191,-283 439,-283 439,-136 191,-136"/>
<text text-anchor="middle" x="315" y="-267.8" font-family="Times,serif" font-size="14.00">scatter(reference.chromosomes)</text>
</g>
<!-- scatter&#45;L18C2&#45;bam_object -->
<!-- call&#45;split_vcf -->
<g id="node2" class="node">
<title>call&#45;split_vcf</title>
<polygon fill="none" stroke="black" points="341,-246 277,-246 277,-222 341,-222 353,-234 341,-246"/>
<text text-anchor="middle" x="315" y="-230.3" font-family="Times,serif" font-size="14.00">split_vcf</text>
</g>
<!-- call&#45;whatshap_phase -->
<g id="node3" class="node">
<title>call&#45;whatshap_phase</title>
<polygon fill="none" stroke="black" points="370,-174 248,-174 248,-150 370,-150 382,-162 370,-174"/>
<text text-anchor="middle" x="315" y="-158.3" font-family="Times,serif" font-size="14.00">whatshap_phase</text>
</g>
<!-- call&#45;split_vcf&#45;&gt;call&#45;whatshap_phase -->
<g id="edge1" class="edge">
<title>call&#45;split_vcf&#45;&gt;call&#45;whatshap_phase</title>
<path fill="none" stroke="black" d="M315,-215.7C315,-207.98 315,-198.71 315,-190.11"/>
<polygon fill="black" stroke="black" points="318.5,-190.1 315,-180.1 311.5,-190.1 318.5,-190.1"/>
</g>
<!-- call&#45;bcftools_concat -->
<g id="node5" class="node">
<title>call&#45;bcftools_concat</title>
<polygon fill="none" stroke="black" points="366,-102 252,-102 252,-78 366,-78 378,-90 366,-102"/>
<text text-anchor="middle" x="315" y="-86.3" font-family="Times,serif" font-size="14.00">bcftools_concat</text>
</g>
<!-- call&#45;whatshap_phase&#45;&gt;call&#45;bcftools_concat -->
<g id="edge2" class="edge">
<title>call&#45;whatshap_phase&#45;&gt;call&#45;bcftools_concat</title>
<path fill="none" stroke="black" d="M315,-143.7C315,-135.98 315,-126.71 315,-118.11"/>
<polygon fill="black" stroke="black" points="318.5,-118.1 315,-108.1 311.5,-118.1 318.5,-118.1"/>
</g>
<!-- scatter&#45;L23C2&#45;chromosome -->
<!-- call&#45;whatshap_stats -->
<g id="node6" class="node">
<title>call&#45;whatshap_stats</title>
<polygon fill="none" stroke="black" points="367,-30 251,-30 251,-6 367,-6 379,-18 367,-30"/>
<text text-anchor="middle" x="315" y="-14.3" font-family="Times,serif" font-size="14.00">whatshap_stats</text>
</g>
<!-- call&#45;bcftools_concat&#45;&gt;call&#45;whatshap_stats -->
<g id="edge3" class="edge">
<title>call&#45;bcftools_concat&#45;&gt;call&#45;whatshap_stats</title>
<path fill="none" stroke="black" d="M315,-71.7C315,-63.98 315,-54.71 315,-46.11"/>
<polygon fill="black" stroke="black" points="318.5,-46.1 315,-36.1 311.5,-46.1 318.5,-46.1"/>
</g>
</g>
</svg>
