<?xml version="1.0" encoding="UTF-8" standalone="no"?>
<!DOCTYPE svg PUBLIC "-//W3C//DTD SVG 1.1//EN"
 "http://www.w3.org/Graphics/SVG/1.1/DTD/svg11.dtd">
<!-- Generated by graphviz version 2.43.0 (0)
 -->
<!-- Title: %3 Pages: 1 -->
<svg width="340pt" height="138pt"
 viewBox="0.00 0.00 340.00 137.50" xmlns="http://www.w3.org/2000/svg" xmlns:xlink="http://www.w3.org/1999/xlink">
<g id="graph0" class="graph" transform="scale(1 1) rotate(0) translate(4 133.5)">
<title>%3</title>
<polygon fill="white" stroke="transparent" points="-4,4 -4,-133.5 336,-133.5 336,4 -4,4"/>
<g id="clust1" class="cluster">
<title>cluster&#45;scatter&#45;L21C2&#45;gvcf_object</title>
<polygon fill="none" stroke="black" points="8,-81.5 8,-121.5 123,-121.5 123,-81.5 8,-81.5"/>
<text text-anchor="middle" x="65.5" y="-106.3" font-family="Times,serif" font-size="14.00">scatter(gvcfs)</text>
</g>
<!-- scatter&#45;L21C2&#45;gvcf_object -->
<!-- call&#45;pbsv_call -->
<g id="node2" class="node">
<title>call&#45;pbsv_call</title>
<polygon fill="none" stroke="black" points="201,-102 131,-102 131,-78 201,-78 213,-90 201,-102"/>
<text text-anchor="middle" x="172" y="-86.3" font-family="Times,serif" font-size="14.00">pbsv_call</text>
</g>
<!-- call&#45;zip_index_vcf -->
<g id="node3" class="node">
<title>call&#45;zip_index_vcf</title>
<polygon fill="none" stroke="black" points="215.5,-30 116.5,-30 116.5,-6 215.5,-6 227.5,-18 215.5,-30"/>
<text text-anchor="middle" x="172" y="-14.3" font-family="Times,serif" font-size="14.00">zip_index_vcf</text>
</g>
<!-- call&#45;pbsv_call&#45;&gt;call&#45;zip_index_vcf -->
<g id="edge1" class="edge">
<title>call&#45;pbsv_call&#45;&gt;call&#45;zip_index_vcf</title>
<path fill="none" stroke="black" d="M172,-71.7C172,-63.98 172,-54.71 172,-46.11"/>
<polygon fill="black" stroke="black" points="175.5,-46.1 172,-36.1 168.5,-46.1 175.5,-46.1"/>
</g>
<!-- call&#45;glnexus -->
<g id="node4" class="node">
<title>call&#45;glnexus</title>
<polygon fill="none" stroke="black" points="313,-102 253,-102 253,-78 313,-78 325,-90 313,-102"/>
<text text-anchor="middle" x="289" y="-86.3" font-family="Times,serif" font-size="14.00">glnexus</text>
</g>
<!-- call&#45;phase_vcf -->
<g id="node5" class="node">
<title>call&#45;phase_vcf</title>
<polygon fill="none" stroke="black" points="320,-30 246,-30 246,-6 320,-6 332,-18 320,-30"/>
<text text-anchor="middle" x="289" y="-14.3" font-family="Times,serif" font-size="14.00">phase_vcf</text>
</g>
<!-- call&#45;glnexus&#45;&gt;call&#45;phase_vcf -->
<g id="edge2" class="edge">
<title>call&#45;glnexus&#45;&gt;call&#45;phase_vcf</title>
<path fill="none" stroke="black" d="M289,-71.7C289,-63.98 289,-54.71 289,-46.11"/>
<polygon fill="black" stroke="black" points="292.5,-46.1 289,-36.1 285.5,-46.1 292.5,-46.1"/>
</g>
</g>
</svg>
