<?xml version="1.0" encoding="UTF-8" standalone="no"?>
<!DOCTYPE svg PUBLIC "-//W3C//DTD SVG 1.1//EN"
 "http://www.w3.org/Graphics/SVG/1.1/DTD/svg11.dtd">
<!-- Generated by graphviz version 2.43.0 (0)
 -->
<!-- Title: %3 Pages: 1 -->
<svg width="341pt" height="210pt"
 viewBox="0.00 0.00 340.50 209.50" xmlns="http://www.w3.org/2000/svg" xmlns:xlink="http://www.w3.org/1999/xlink">
<g id="graph0" class="graph" transform="scale(1 1) rotate(0) translate(4 205.5)">
<title>%3</title>
<polygon fill="white" stroke="transparent" points="-4,4 -4,-205.5 336.5,-205.5 336.5,4 -4,4"/>
<g id="clust1" class="cluster">
<title>cluster&#45;scatter&#45;L20C2&#45;gvcf_object</title>
<polygon fill="none" stroke="black" points="8,-153.5 8,-193.5 123,-193.5 123,-153.5 8,-153.5"/>
<text text-anchor="middle" x="65.5" y="-178.3" font-family="Times,serif" font-size="14.00">scatter(gvcfs)</text>
</g>
<!-- scatter&#45;L20C2&#45;gvcf_object -->
<!-- call&#45;pbsv_call -->
<g id="node2" class="node">
<title>call&#45;pbsv_call</title>
<polygon fill="none" stroke="black" points="201,-174 131,-174 131,-150 201,-150 213,-162 201,-174"/>
<text text-anchor="middle" x="172" y="-158.3" font-family="Times,serif" font-size="14.00">pbsv_call</text>
</g>
<!-- call&#45;zip_index_vcf -->
<g id="node3" class="node">
<title>call&#45;zip_index_vcf</title>
<polygon fill="none" stroke="black" points="215.5,-102 116.5,-102 116.5,-78 215.5,-78 227.5,-90 215.5,-102"/>
<text text-anchor="middle" x="172" y="-86.3" font-family="Times,serif" font-size="14.00">zip_index_vcf</text>
</g>
<!-- call&#45;pbsv_call&#45;&gt;call&#45;zip_index_vcf -->
<g id="edge1" class="edge">
<title>call&#45;pbsv_call&#45;&gt;call&#45;zip_index_vcf</title>
<path fill="none" stroke="black" d="M172,-143.7C172,-135.98 172,-126.71 172,-118.11"/>
<polygon fill="black" stroke="black" points="175.5,-118.1 172,-108.1 168.5,-118.1 175.5,-118.1"/>
</g>
<!-- call&#45;glnexus -->
<g id="node4" class="node">
<title>call&#45;glnexus</title>
<polygon fill="none" stroke="black" points="313,-174 253,-174 253,-150 313,-150 325,-162 313,-174"/>
<text text-anchor="middle" x="289" y="-158.3" font-family="Times,serif" font-size="14.00">glnexus</text>
</g>
<!-- call&#45;bcf_to_vcf -->
<g id="node5" class="node">
<title>call&#45;bcf_to_vcf</title>
<polygon fill="none" stroke="black" points="320.5,-102 245.5,-102 245.5,-78 320.5,-78 332.5,-90 320.5,-102"/>
<text text-anchor="middle" x="289" y="-86.3" font-family="Times,serif" font-size="14.00">bcf_to_vcf</text>
</g>
<!-- call&#45;glnexus&#45;&gt;call&#45;bcf_to_vcf -->
<g id="edge2" class="edge">
<title>call&#45;glnexus&#45;&gt;call&#45;bcf_to_vcf</title>
<path fill="none" stroke="black" d="M289,-143.7C289,-135.98 289,-126.71 289,-118.11"/>
<polygon fill="black" stroke="black" points="292.5,-118.1 289,-108.1 285.5,-118.1 292.5,-118.1"/>
</g>
<!-- call&#45;phase_vcf -->
<g id="node6" class="node">
<title>call&#45;phase_vcf</title>
<polygon fill="none" stroke="black" points="320,-30 246,-30 246,-6 320,-6 332,-18 320,-30"/>
<text text-anchor="middle" x="289" y="-14.3" font-family="Times,serif" font-size="14.00">phase_vcf</text>
</g>
<!-- call&#45;bcf_to_vcf&#45;&gt;call&#45;phase_vcf -->
<g id="edge3" class="edge">
<title>call&#45;bcf_to_vcf&#45;&gt;call&#45;phase_vcf</title>
<path fill="none" stroke="black" d="M289,-71.7C289,-63.98 289,-54.71 289,-46.11"/>
<polygon fill="black" stroke="black" points="292.5,-46.1 289,-36.1 285.5,-46.1 292.5,-46.1"/>
</g>
</g>
</svg>
