<?xml version="1.0" encoding="UTF-8" standalone="no"?>
<!DOCTYPE svg PUBLIC "-//W3C//DTD SVG 1.1//EN"
 "http://www.w3.org/Graphics/SVG/1.1/DTD/svg11.dtd">
<!-- Generated by graphviz version 7.1.0 (20230121.1956)
 -->
<!-- Pages: 1 -->
<svg width="285pt" height="138pt"
 viewBox="0.00 0.00 284.50 137.50" xmlns="http://www.w3.org/2000/svg" xmlns:xlink="http://www.w3.org/1999/xlink">
<g id="graph0" class="graph" transform="scale(1 1) rotate(0) translate(4 133.5)">
<polygon fill="white" stroke="none" points="-4,4 -4,-133.5 280.5,-133.5 280.5,4 -4,4"/>
<g id="clust1" class="cluster">
<title>cluster&#45;scatter&#45;L20C2&#45;gvcf_object</title>
<polygon fill="none" stroke="black" points="8,-81.5 8,-121.5 98,-121.5 98,-81.5 8,-81.5"/>
<text text-anchor="middle" x="53" y="-106.3" font-family="Times,serif" font-size="14.00">scatter(gvcfs)</text>
</g>
<!-- scatter&#45;L20C2&#45;gvcf_object -->
<!-- call&#45;pbsv_call -->
<g id="node2" class="node">
<title>call&#45;pbsv_call</title>
<polygon fill="none" stroke="black" points="162,-102 106,-102 106,-78 162,-78 174,-90 162,-102"/>
<text text-anchor="middle" x="140" y="-86.3" font-family="Times,serif" font-size="14.00">pbsv_call</text>
</g>
<!-- call&#45;zip_index_vcf -->
<g id="node3" class="node">
<title>call&#45;zip_index_vcf</title>
<polygon fill="none" stroke="black" points="175,-30 93,-30 93,-6 175,-6 187,-18 175,-30"/>
<text text-anchor="middle" x="140" y="-14.3" font-family="Times,serif" font-size="14.00">zip_index_vcf</text>
</g>
<!-- call&#45;pbsv_call&#45;&gt;call&#45;zip_index_vcf -->
<g id="edge1" class="edge">
<title>call&#45;pbsv_call&#45;&gt;call&#45;zip_index_vcf</title>
<path fill="none" stroke="black" d="M140,-71.7C140,-64.41 140,-55.73 140,-47.54"/>
<polygon fill="black" stroke="black" points="143.5,-47.62 140,-37.62 136.5,-47.62 143.5,-47.62"/>
</g>
<!-- call&#45;glnexus -->
<g id="node4" class="node">
<title>call&#45;glnexus</title>
<polygon fill="none" stroke="black" points="258.5,-102 211.5,-102 211.5,-78 258.5,-78 270.5,-90 258.5,-102"/>
<text text-anchor="middle" x="241" y="-86.3" font-family="Times,serif" font-size="14.00">glnexus</text>
</g>
<!-- call&#45;phase_vcf -->
<g id="node5" class="node">
<title>call&#45;phase_vcf</title>
<polygon fill="none" stroke="black" points="264.5,-30 205.5,-30 205.5,-6 264.5,-6 276.5,-18 264.5,-30"/>
<text text-anchor="middle" x="241" y="-14.3" font-family="Times,serif" font-size="14.00">phase_vcf</text>
</g>
<!-- call&#45;glnexus&#45;&gt;call&#45;phase_vcf -->
<g id="edge2" class="edge">
<title>call&#45;glnexus&#45;&gt;call&#45;phase_vcf</title>
<path fill="none" stroke="black" d="M241,-71.7C241,-64.41 241,-55.73 241,-47.54"/>
<polygon fill="black" stroke="black" points="244.5,-47.62 241,-37.62 237.5,-47.62 244.5,-47.62"/>
</g>
</g>
</svg>
