<?xml version="1.0" encoding="UTF-8" standalone="no"?>
<!DOCTYPE svg PUBLIC "-//W3C//DTD SVG 1.1//EN"
 "http://www.w3.org/Graphics/SVG/1.1/DTD/svg11.dtd">
<!-- Generated by graphviz version 2.43.0 (0)
 -->
<!-- Title: %3 Pages: 1 -->
<svg width="822pt" height="518pt"
 viewBox="0.00 0.00 822.00 518.00" xmlns="http://www.w3.org/2000/svg" xmlns:xlink="http://www.w3.org/1999/xlink">
<g id="graph0" class="graph" transform="scale(1 1) rotate(0) translate(4 514)">
<title>%3</title>
<polygon fill="white" stroke="transparent" points="-4,4 -4,-514 818,-514 818,4 -4,4"/>
<g id="clust1" class="cluster">
<title>cluster&#45;scatter&#45;L29C2&#45;bam_object</title>
<polygon fill="none" stroke="black" points="8,-228.5 8,-268.5 310,-268.5 310,-228.5 8,-228.5"/>
<text text-anchor="middle" x="159" y="-253.3" font-family="Times,serif" font-size="14.00">scatter(smrtcell_analysis.aligned_bams)</text>
</g>
<g id="clust2" class="cluster">
<title>cluster&#45;scatter&#45;L41C2&#45;shard_index</title>
<polygon fill="none" stroke="black" points="498,-427 498,-502 806,-502 806,-427 498,-427"/>
<text text-anchor="middle" x="652" y="-486.8" font-family="Times,serif" font-size="14.00">scatter(range(deepvariant_num_shards))</text>
</g>
<g id="clust3" class="cluster">
<title>cluster&#45;scatter&#45;L118C2&#45;bam_object</title>
<polygon fill="none" stroke="black" points="419,-136 419,-211 721,-211 721,-136 419,-136"/>
<text text-anchor="middle" x="570" y="-195.8" font-family="Times,serif" font-size="14.00">scatter(smrtcell_analysis.aligned_bams)</text>
</g>
<!-- call&#45;smrtcell_analysis -->
<g id="node1" class="node">
<title>call&#45;smrtcell_analysis</title>
<polygon fill="none" stroke="black" points="445,-321 317,-321 317,-297 445,-297 457,-309 445,-321"/>
<text text-anchor="middle" x="387" y="-305.3" font-family="Times,serif" font-size="14.00">smrtcell_analysis</text>
</g>
<!-- scatter&#45;L29C2&#45;bam_object -->
<!-- call&#45;smrtcell_analysis&#45;&gt;scatter&#45;L29C2&#45;bam_object -->
<g id="edge1" class="edge">
<title>call&#45;smrtcell_analysis&#45;&gt;scatter&#45;L29C2&#45;bam_object</title>
<path fill="none" stroke="black" d="M339.33,-290.83C331.56,-286.72 323.89,-281.76 317.26,-275.86"/>
<polygon fill="black" stroke="black" points="319.51,-273.17 310,-268.5 314.53,-278.08 319.51,-273.17"/>
</g>
<!-- call&#45;pbsv_call -->
<g id="node9" class="node">
<title>call&#45;pbsv_call</title>
<polygon fill="none" stroke="black" points="389,-249 319,-249 319,-225 389,-225 401,-237 389,-249"/>
<text text-anchor="middle" x="360" y="-233.3" font-family="Times,serif" font-size="14.00">pbsv_call</text>
</g>
<!-- call&#45;smrtcell_analysis&#45;&gt;call&#45;pbsv_call -->
<g id="edge7" class="edge">
<title>call&#45;smrtcell_analysis&#45;&gt;call&#45;pbsv_call</title>
<path fill="none" stroke="black" d="M380.33,-290.7C377.29,-282.81 373.62,-273.3 370.24,-264.55"/>
<polygon fill="black" stroke="black" points="373.46,-263.17 366.6,-255.1 366.93,-265.69 373.46,-263.17"/>
</g>
<!-- call&#45;phase_vcf -->
<g id="node11" class="node">
<title>call&#45;phase_vcf</title>
<polygon fill="none" stroke="black" points="543,-249 469,-249 469,-225 543,-225 555,-237 543,-249"/>
<text text-anchor="middle" x="512" y="-233.3" font-family="Times,serif" font-size="14.00">phase_vcf</text>
</g>
<!-- call&#45;smrtcell_analysis&#45;&gt;call&#45;phase_vcf -->
<g id="edge10" class="edge">
<title>call&#45;smrtcell_analysis&#45;&gt;call&#45;phase_vcf</title>
<path fill="none" stroke="black" d="M417.58,-290.88C434.07,-281.64 454.62,-270.13 472.34,-260.21"/>
<polygon fill="black" stroke="black" points="474.29,-263.13 481.3,-255.19 470.87,-257.02 474.29,-263.13"/>
</g>
<!-- scatter&#45;L118C2&#45;bam_object -->
<!-- call&#45;smrtcell_analysis&#45;&gt;scatter&#45;L118C2&#45;bam_object -->
<g id="edge11" class="edge">
<title>call&#45;smrtcell_analysis&#45;&gt;scatter&#45;L118C2&#45;bam_object</title>
<path fill="none" stroke="black" d="M398.68,-290.95C402.82,-284.22 407.15,-276.24 410,-268.5 415.51,-253.54 419.45,-236.79 422.27,-221.11"/>
<polygon fill="black" stroke="black" points="425.76,-221.44 423.96,-211 418.86,-220.28 425.76,-221.44"/>
</g>
<!-- call&#45;deepvariant_make_examples -->
<g id="node3" class="node">
<title>call&#45;deepvariant_make_examples</title>
<polygon fill="none" stroke="black" points="773.5,-465 564.5,-465 564.5,-441 773.5,-441 785.5,-453 773.5,-465"/>
<text text-anchor="middle" x="675" y="-449.3" font-family="Times,serif" font-size="14.00">deepvariant_make_examples</text>
</g>
<!-- call&#45;deepvariant_call_variants -->
<g id="node5" class="node">
<title>call&#45;deepvariant_call_variants</title>
<polygon fill="none" stroke="black" points="654.5,-393 467.5,-393 467.5,-369 654.5,-369 666.5,-381 654.5,-393"/>
<text text-anchor="middle" x="567" y="-377.3" font-family="Times,serif" font-size="14.00">deepvariant_call_variants</text>
</g>
<!-- call&#45;deepvariant_make_examples&#45;&gt;call&#45;deepvariant_call_variants -->
<g id="edge2" class="edge">
<title>call&#45;deepvariant_make_examples&#45;&gt;call&#45;deepvariant_call_variants</title>
<path fill="none" stroke="black" d="M648.58,-434.88C634.59,-425.81 617.22,-414.55 602.11,-404.76"/>
<polygon fill="black" stroke="black" points="603.82,-401.69 593.52,-399.19 600.01,-407.57 603.82,-401.69"/>
</g>
<!-- call&#45;deepvariant_postprocess_variants -->
<g id="node6" class="node">
<title>call&#45;deepvariant_postprocess_variants</title>
<polygon fill="none" stroke="black" points="749,-321 501,-321 501,-297 749,-297 761,-309 749,-321"/>
<text text-anchor="middle" x="631" y="-305.3" font-family="Times,serif" font-size="14.00">deepvariant_postprocess_variants</text>
</g>
<!-- call&#45;deepvariant_make_examples&#45;&gt;call&#45;deepvariant_postprocess_variants -->
<g id="edge4" class="edge">
<title>call&#45;deepvariant_make_examples&#45;&gt;call&#45;deepvariant_postprocess_variants</title>
<path fill="none" stroke="black" d="M678.39,-434.68C681.21,-416.29 683.55,-386.69 675,-363 671.25,-352.6 664.46,-342.8 657.33,-334.52"/>
<polygon fill="black" stroke="black" points="659.83,-332.06 650.47,-327.08 654.68,-336.81 659.83,-332.06"/>
</g>
<!-- scatter&#45;L41C2&#45;shard_index -->
<!-- call&#45;deepvariant_call_variants&#45;&gt;call&#45;deepvariant_postprocess_variants -->
<g id="edge3" class="edge">
<title>call&#45;deepvariant_call_variants&#45;&gt;call&#45;deepvariant_postprocess_variants</title>
<path fill="none" stroke="black" d="M582.82,-362.7C590.57,-354.22 600.04,-343.86 608.52,-334.58"/>
<polygon fill="black" stroke="black" points="611.2,-336.85 615.36,-327.1 606.03,-332.12 611.2,-336.85"/>
</g>
<!-- call&#45;bcftools_stats -->
<g id="node7" class="node">
<title>call&#45;bcftools_stats</title>
<polygon fill="none" stroke="black" points="676.5,-249 573.5,-249 573.5,-225 676.5,-225 688.5,-237 676.5,-249"/>
<text text-anchor="middle" x="631" y="-233.3" font-family="Times,serif" font-size="14.00">bcftools_stats</text>
</g>
<!-- call&#45;deepvariant_postprocess_variants&#45;&gt;call&#45;bcftools_stats -->
<g id="edge5" class="edge">
<title>call&#45;deepvariant_postprocess_variants&#45;&gt;call&#45;bcftools_stats</title>
<path fill="none" stroke="black" d="M631,-290.7C631,-282.98 631,-273.71 631,-265.11"/>
<polygon fill="black" stroke="black" points="634.5,-265.1 631,-255.1 627.5,-265.1 634.5,-265.1"/>
</g>
<!-- call&#45;bcftools_roh -->
<g id="node8" class="node">
<title>call&#45;bcftools_roh</title>
<polygon fill="none" stroke="black" points="799,-249 707,-249 707,-225 799,-225 811,-237 799,-249"/>
<text text-anchor="middle" x="759" y="-233.3" font-family="Times,serif" font-size="14.00">bcftools_roh</text>
</g>
<!-- call&#45;deepvariant_postprocess_variants&#45;&gt;call&#45;bcftools_roh -->
<g id="edge6" class="edge">
<title>call&#45;deepvariant_postprocess_variants&#45;&gt;call&#45;bcftools_roh</title>
<path fill="none" stroke="black" d="M662.31,-290.88C679.2,-281.64 700.25,-270.13 718.38,-260.21"/>
<polygon fill="black" stroke="black" points="720.47,-263.06 727.57,-255.19 717.11,-256.92 720.47,-263.06"/>
</g>
<!-- call&#45;deepvariant_postprocess_variants&#45;&gt;call&#45;phase_vcf -->
<g id="edge9" class="edge">
<title>call&#45;deepvariant_postprocess_variants&#45;&gt;call&#45;phase_vcf</title>
<path fill="none" stroke="black" d="M601.89,-290.88C586.33,-281.72 566.98,-270.34 550.22,-260.48"/>
<polygon fill="black" stroke="black" points="551.62,-257.24 541.22,-255.19 548.07,-263.28 551.62,-257.24"/>
</g>
<!-- call&#45;zip_index_vcf -->
<g id="node10" class="node">
<title>call&#45;zip_index_vcf</title>
<polygon fill="none" stroke="black" points="398.5,-174 299.5,-174 299.5,-150 398.5,-150 410.5,-162 398.5,-174"/>
<text text-anchor="middle" x="355" y="-158.3" font-family="Times,serif" font-size="14.00">zip_index_vcf</text>
</g>
<!-- call&#45;pbsv_call&#45;&gt;call&#45;zip_index_vcf -->
<g id="edge8" class="edge">
<title>call&#45;pbsv_call&#45;&gt;call&#45;zip_index_vcf</title>
<path fill="none" stroke="black" d="M358.82,-218.7C358.24,-210.25 357.53,-199.87 356.87,-190.37"/>
<polygon fill="black" stroke="black" points="360.35,-189.91 356.18,-180.18 353.37,-190.39 360.35,-189.91"/>
</g>
<!-- call&#45;whatshap_haplotag -->
<g id="node12" class="node">
<title>call&#45;whatshap_haplotag</title>
<polygon fill="none" stroke="black" points="590.5,-174 447.5,-174 447.5,-150 590.5,-150 602.5,-162 590.5,-174"/>
<text text-anchor="middle" x="525" y="-158.3" font-family="Times,serif" font-size="14.00">whatshap_haplotag</text>
</g>
<!-- call&#45;phase_vcf&#45;&gt;call&#45;whatshap_haplotag -->
<g id="edge12" class="edge">
<title>call&#45;phase_vcf&#45;&gt;call&#45;whatshap_haplotag</title>
<path fill="none" stroke="black" d="M515.08,-218.7C516.6,-210.15 518.47,-199.65 520.18,-190.07"/>
<polygon fill="black" stroke="black" points="523.63,-190.63 521.94,-180.18 516.74,-189.41 523.63,-190.63"/>
</g>
<!-- call&#45;merge_bams -->
<g id="node14" class="node">
<title>call&#45;merge_bams</title>
<polygon fill="none" stroke="black" points="566.5,-102 471.5,-102 471.5,-78 566.5,-78 578.5,-90 566.5,-102"/>
<text text-anchor="middle" x="525" y="-86.3" font-family="Times,serif" font-size="14.00">merge_bams</text>
</g>
<!-- call&#45;whatshap_haplotag&#45;&gt;call&#45;merge_bams -->
<g id="edge13" class="edge">
<title>call&#45;whatshap_haplotag&#45;&gt;call&#45;merge_bams</title>
<path fill="none" stroke="black" d="M525,-143.7C525,-135.98 525,-126.71 525,-118.11"/>
<polygon fill="black" stroke="black" points="528.5,-118.1 525,-108.1 521.5,-118.1 528.5,-118.1"/>
</g>
<!-- call&#45;mosdepth -->
<g id="node15" class="node">
<title>call&#45;mosdepth</title>
<polygon fill="none" stroke="black" points="398.5,-30 323.5,-30 323.5,-6 398.5,-6 410.5,-18 398.5,-30"/>
<text text-anchor="middle" x="367" y="-14.3" font-family="Times,serif" font-size="14.00">mosdepth</text>
</g>
<!-- call&#45;merge_bams&#45;&gt;call&#45;mosdepth -->
<g id="edge14" class="edge">
<title>call&#45;merge_bams&#45;&gt;call&#45;mosdepth</title>
<path fill="none" stroke="black" d="M486.35,-71.88C464.75,-62.31 437.65,-50.3 414.73,-40.15"/>
<polygon fill="black" stroke="black" points="416.09,-36.92 405.53,-36.07 413.25,-43.32 416.09,-36.92"/>
</g>
<!-- call&#45;trgt -->
<g id="node16" class="node">
<title>call&#45;trgt</title>
<polygon fill="none" stroke="black" points="471,-30 429,-30 429,-6 471,-6 483,-18 471,-30"/>
<text text-anchor="middle" x="456" y="-14.3" font-family="Times,serif" font-size="14.00">trgt</text>
</g>
<!-- call&#45;merge_bams&#45;&gt;call&#45;trgt -->
<g id="edge15" class="edge">
<title>call&#45;merge_bams&#45;&gt;call&#45;trgt</title>
<path fill="none" stroke="black" d="M507.94,-71.7C499.5,-63.14 489.18,-52.66 479.96,-43.3"/>
<polygon fill="black" stroke="black" points="482.37,-40.77 472.86,-36.1 477.39,-45.68 482.37,-40.77"/>
</g>
<!-- call&#45;trgt_coverage_dropouts -->
<g id="node17" class="node">
<title>call&#45;trgt_coverage_dropouts</title>
<polygon fill="none" stroke="black" points="675,-30 501,-30 501,-6 675,-6 687,-18 675,-30"/>
<text text-anchor="middle" x="594" y="-14.3" font-family="Times,serif" font-size="14.00">trgt_coverage_dropouts</text>
</g>
<!-- call&#45;merge_bams&#45;&gt;call&#45;trgt_coverage_dropouts -->
<g id="edge16" class="edge">
<title>call&#45;merge_bams&#45;&gt;call&#45;trgt_coverage_dropouts</title>
<path fill="none" stroke="black" d="M542.06,-71.7C550.5,-63.14 560.82,-52.66 570.04,-43.3"/>
<polygon fill="black" stroke="black" points="572.61,-45.68 577.14,-36.1 567.63,-40.77 572.61,-45.68"/>
</g>
<!-- call&#45;cpg_pileup -->
<g id="node18" class="node">
<title>call&#45;cpg_pileup</title>
<polygon fill="none" stroke="black" points="785.5,-30 704.5,-30 704.5,-6 785.5,-6 797.5,-18 785.5,-30"/>
<text text-anchor="middle" x="751" y="-14.3" font-family="Times,serif" font-size="14.00">cpg_pileup</text>
</g>
<!-- call&#45;merge_bams&#45;&gt;call&#45;cpg_pileup -->
<g id="edge17" class="edge">
<title>call&#45;merge_bams&#45;&gt;call&#45;cpg_pileup</title>
<path fill="none" stroke="black" d="M578.56,-72.41C613.52,-61.58 659.09,-47.47 694.6,-36.47"/>
<polygon fill="black" stroke="black" points="695.82,-39.76 704.33,-33.45 693.75,-33.07 695.82,-39.76"/>
</g>
</g>
</svg>
