<?xml version="1.0" encoding="UTF-8" standalone="no"?>
<!DOCTYPE svg PUBLIC "-//W3C//DTD SVG 1.1//EN"
 "http://www.w3.org/Graphics/SVG/1.1/DTD/svg11.dtd">
<!-- Generated by graphviz version 2.43.0 (0)
 -->
<!-- Title: %3 Pages: 1 -->
<svg width="487pt" height="335pt"
 viewBox="0.00 0.00 487.00 335.00" xmlns="http://www.w3.org/2000/svg" xmlns:xlink="http://www.w3.org/1999/xlink">
<g id="graph0" class="graph" transform="scale(1 1) rotate(0) translate(4 331)">
<title>%3</title>
<polygon fill="white" stroke="transparent" points="-4,4 -4,-331 483,-331 483,4 -4,4"/>
<g id="clust1" class="cluster">
<title>cluster&#45;scatter&#45;L55C2&#45;bam_object</title>
<polygon fill="none" stroke="black" points="119.5,-136 119.5,-211 421.5,-211 421.5,-136 119.5,-136"/>
<text text-anchor="middle" x="270.5" y="-195.8" font-family="Times,serif" font-size="14.00">scatter(smrtcell_analysis.aligned_bams)</text>
</g>
<!-- call&#45;smrtcell_analysis -->
<g id="node1" class="node">
<title>call&#45;smrtcell_analysis</title>
<polygon fill="none" stroke="black" points="264.5,-321 136.5,-321 136.5,-297 264.5,-297 276.5,-309 264.5,-321"/>
<text text-anchor="middle" x="206.5" y="-305.3" font-family="Times,serif" font-size="14.00">smrtcell_analysis</text>
</g>
<!-- call&#45;pbsv_call -->
<g id="node2" class="node">
<title>call&#45;pbsv_call</title>
<polygon fill="none" stroke="black" points="109.5,-249 39.5,-249 39.5,-225 109.5,-225 121.5,-237 109.5,-249"/>
<text text-anchor="middle" x="80.5" y="-233.3" font-family="Times,serif" font-size="14.00">pbsv_call</text>
</g>
<!-- call&#45;smrtcell_analysis&#45;&gt;call&#45;pbsv_call -->
<g id="edge1" class="edge">
<title>call&#45;smrtcell_analysis&#45;&gt;call&#45;pbsv_call</title>
<path fill="none" stroke="black" d="M175.68,-290.88C159.05,-281.64 138.34,-270.13 120.48,-260.21"/>
<polygon fill="black" stroke="black" points="121.88,-256.99 111.44,-255.19 118.48,-263.11 121.88,-256.99"/>
</g>
<!-- call&#45;phase_vcf -->
<g id="node4" class="node">
<title>call&#45;phase_vcf</title>
<polygon fill="none" stroke="black" points="237.5,-249 163.5,-249 163.5,-225 237.5,-225 249.5,-237 237.5,-249"/>
<text text-anchor="middle" x="206.5" y="-233.3" font-family="Times,serif" font-size="14.00">phase_vcf</text>
</g>
<!-- call&#45;smrtcell_analysis&#45;&gt;call&#45;phase_vcf -->
<g id="edge3" class="edge">
<title>call&#45;smrtcell_analysis&#45;&gt;call&#45;phase_vcf</title>
<path fill="none" stroke="black" d="M206.5,-290.7C206.5,-282.98 206.5,-273.71 206.5,-265.11"/>
<polygon fill="black" stroke="black" points="210,-265.1 206.5,-255.1 203,-265.1 210,-265.1"/>
</g>
<!-- scatter&#45;L55C2&#45;bam_object -->
<!-- call&#45;smrtcell_analysis&#45;&gt;scatter&#45;L55C2&#45;bam_object -->
<g id="edge4" class="edge">
<title>call&#45;smrtcell_analysis&#45;&gt;scatter&#45;L55C2&#45;bam_object</title>
<path fill="none" stroke="black" d="M228.07,-290.86C246.68,-274.86 273.02,-249.14 288.92,-220.11"/>
<polygon fill="black" stroke="black" points="292.13,-221.51 293.5,-211 285.88,-218.36 292.13,-221.51"/>
</g>
<!-- call&#45;zip_index_vcf -->
<g id="node3" class="node">
<title>call&#45;zip_index_vcf</title>
<polygon fill="none" stroke="black" points="99,-174 0,-174 0,-150 99,-150 111,-162 99,-174"/>
<text text-anchor="middle" x="55.5" y="-158.3" font-family="Times,serif" font-size="14.00">zip_index_vcf</text>
</g>
<!-- call&#45;pbsv_call&#45;&gt;call&#45;zip_index_vcf -->
<g id="edge2" class="edge">
<title>call&#45;pbsv_call&#45;&gt;call&#45;zip_index_vcf</title>
<path fill="none" stroke="black" d="M74.58,-218.7C71.62,-210.06 67.97,-199.42 64.67,-189.76"/>
<polygon fill="black" stroke="black" points="67.93,-188.5 61.38,-180.18 61.31,-190.77 67.93,-188.5"/>
</g>
<!-- call&#45;whatshap_haplotag -->
<g id="node5" class="node">
<title>call&#45;whatshap_haplotag</title>
<polygon fill="none" stroke="black" points="272,-174 129,-174 129,-150 272,-150 284,-162 272,-174"/>
<text text-anchor="middle" x="206.5" y="-158.3" font-family="Times,serif" font-size="14.00">whatshap_haplotag</text>
</g>
<!-- call&#45;phase_vcf&#45;&gt;call&#45;whatshap_haplotag -->
<g id="edge5" class="edge">
<title>call&#45;phase_vcf&#45;&gt;call&#45;whatshap_haplotag</title>
<path fill="none" stroke="black" d="M206.5,-218.7C206.5,-210.25 206.5,-199.87 206.5,-190.37"/>
<polygon fill="black" stroke="black" points="210,-190.18 206.5,-180.18 203,-190.18 210,-190.18"/>
</g>
<!-- call&#45;merge_bams -->
<g id="node7" class="node">
<title>call&#45;merge_bams</title>
<polygon fill="none" stroke="black" points="248,-102 153,-102 153,-78 248,-78 260,-90 248,-102"/>
<text text-anchor="middle" x="206.5" y="-86.3" font-family="Times,serif" font-size="14.00">merge_bams</text>
</g>
<!-- call&#45;whatshap_haplotag&#45;&gt;call&#45;merge_bams -->
<g id="edge6" class="edge">
<title>call&#45;whatshap_haplotag&#45;&gt;call&#45;merge_bams</title>
<path fill="none" stroke="black" d="M206.5,-143.7C206.5,-135.98 206.5,-126.71 206.5,-118.11"/>
<polygon fill="black" stroke="black" points="210,-118.1 206.5,-108.1 203,-118.1 210,-118.1"/>
</g>
<!-- call&#45;mosdepth -->
<g id="node8" class="node">
<title>call&#45;mosdepth</title>
<polygon fill="none" stroke="black" points="80,-30 5,-30 5,-6 80,-6 92,-18 80,-30"/>
<text text-anchor="middle" x="48.5" y="-14.3" font-family="Times,serif" font-size="14.00">mosdepth</text>
</g>
<!-- call&#45;merge_bams&#45;&gt;call&#45;mosdepth -->
<g id="edge7" class="edge">
<title>call&#45;merge_bams&#45;&gt;call&#45;mosdepth</title>
<path fill="none" stroke="black" d="M167.85,-71.88C146.25,-62.31 119.15,-50.3 96.23,-40.15"/>
<polygon fill="black" stroke="black" points="97.59,-36.92 87.03,-36.07 94.75,-43.32 97.59,-36.92"/>
</g>
<!-- call&#45;trgt -->
<g id="node9" class="node">
<title>call&#45;trgt</title>
<polygon fill="none" stroke="black" points="152.5,-30 110.5,-30 110.5,-6 152.5,-6 164.5,-18 152.5,-30"/>
<text text-anchor="middle" x="137.5" y="-14.3" font-family="Times,serif" font-size="14.00">trgt</text>
</g>
<!-- call&#45;merge_bams&#45;&gt;call&#45;trgt -->
<g id="edge8" class="edge">
<title>call&#45;merge_bams&#45;&gt;call&#45;trgt</title>
<path fill="none" stroke="black" d="M189.44,-71.7C181,-63.14 170.68,-52.66 161.46,-43.3"/>
<polygon fill="black" stroke="black" points="163.87,-40.77 154.36,-36.1 158.89,-45.68 163.87,-40.77"/>
</g>
<!-- call&#45;trgt_coverage_dropouts -->
<g id="node10" class="node">
<title>call&#45;trgt_coverage_dropouts</title>
<polygon fill="none" stroke="black" points="356.5,-30 182.5,-30 182.5,-6 356.5,-6 368.5,-18 356.5,-30"/>
<text text-anchor="middle" x="275.5" y="-14.3" font-family="Times,serif" font-size="14.00">trgt_coverage_dropouts</text>
</g>
<!-- call&#45;merge_bams&#45;&gt;call&#45;trgt_coverage_dropouts -->
<g id="edge9" class="edge">
<title>call&#45;merge_bams&#45;&gt;call&#45;trgt_coverage_dropouts</title>
<path fill="none" stroke="black" d="M223.56,-71.7C232,-63.14 242.32,-52.66 251.54,-43.3"/>
<polygon fill="black" stroke="black" points="254.11,-45.68 258.64,-36.1 249.13,-40.77 254.11,-45.68"/>
</g>
<!-- call&#45;cpg_pileup -->
<g id="node11" class="node">
<title>call&#45;cpg_pileup</title>
<polygon fill="none" stroke="black" points="467,-30 386,-30 386,-6 467,-6 479,-18 467,-30"/>
<text text-anchor="middle" x="432.5" y="-14.3" font-family="Times,serif" font-size="14.00">cpg_pileup</text>
</g>
<!-- call&#45;merge_bams&#45;&gt;call&#45;cpg_pileup -->
<g id="edge10" class="edge">
<title>call&#45;merge_bams&#45;&gt;call&#45;cpg_pileup</title>
<path fill="none" stroke="black" d="M260.06,-72.41C295.02,-61.58 340.59,-47.47 376.1,-36.47"/>
<polygon fill="black" stroke="black" points="377.32,-39.76 385.83,-33.45 375.25,-33.07 377.32,-39.76"/>
</g>
</g>
</svg>
