<?xml version="1.0" encoding="UTF-8" standalone="no"?>
<!DOCTYPE svg PUBLIC "-//W3C//DTD SVG 1.1//EN"
 "http://www.w3.org/Graphics/SVG/1.1/DTD/svg11.dtd">
<!-- Generated by graphviz version 7.1.0 (20230121.1956)
 -->
<!-- Pages: 1 -->
<svg width="491pt" height="407pt"
 viewBox="0.00 0.00 491.00 407.00" xmlns="http://www.w3.org/2000/svg" xmlns:xlink="http://www.w3.org/1999/xlink">
<g id="graph0" class="graph" transform="scale(1 1) rotate(0) translate(4 403)">
<polygon fill="white" stroke="none" points="-4,4 -4,-403 487,-403 487,4 -4,4"/>
<g id="clust1" class="cluster">
<title>cluster&#45;scatter&#45;L79C2&#45;bam_object</title>
<polygon fill="none" stroke="black" points="187.5,-136 187.5,-211 422.5,-211 422.5,-136 187.5,-136"/>
<text text-anchor="middle" x="305" y="-195.8" font-family="Times,serif" font-size="14.00">scatter(smrtcell_analysis.aligned_bams)</text>
</g>
<!-- call&#45;smrtcell_analysis -->
<g id="node1" class="node">
<title>call&#45;smrtcell_analysis</title>
<polygon fill="none" stroke="black" points="351,-393 252,-393 252,-369 351,-369 363,-381 351,-393"/>
<text text-anchor="middle" x="307.5" y="-377.3" font-family="Times,serif" font-size="14.00">smrtcell_analysis</text>
</g>
<!-- call&#45;deepvariant -->
<g id="node2" class="node">
<title>call&#45;deepvariant</title>
<polygon fill="none" stroke="black" points="203.5,-321 135.5,-321 135.5,-297 203.5,-297 215.5,-309 203.5,-321"/>
<text text-anchor="middle" x="175.5" y="-305.3" font-family="Times,serif" font-size="14.00">deepvariant</text>
</g>
<!-- call&#45;smrtcell_analysis&#45;&gt;call&#45;deepvariant -->
<g id="edge1" class="edge">
<title>call&#45;smrtcell_analysis&#45;&gt;call&#45;deepvariant</title>
<path fill="none" stroke="black" d="M274.53,-362.52C257.47,-353.47 236.45,-342.32 218.16,-332.62"/>
<polygon fill="black" stroke="black" points="219.86,-329.56 209.39,-327.97 216.58,-335.75 219.86,-329.56"/>
</g>
<!-- call&#45;pbsv_call -->
<g id="node5" class="node">
<title>call&#45;pbsv_call</title>
<polygon fill="none" stroke="black" points="351.5,-321 295.5,-321 295.5,-297 351.5,-297 363.5,-309 351.5,-321"/>
<text text-anchor="middle" x="329.5" y="-305.3" font-family="Times,serif" font-size="14.00">pbsv_call</text>
</g>
<!-- call&#45;smrtcell_analysis&#45;&gt;call&#45;pbsv_call -->
<g id="edge4" class="edge">
<title>call&#45;smrtcell_analysis&#45;&gt;call&#45;pbsv_call</title>
<path fill="none" stroke="black" d="M312.94,-362.7C315.28,-355.24 318.08,-346.32 320.71,-337.97"/>
<polygon fill="black" stroke="black" points="324.01,-339.14 323.67,-328.55 317.33,-337.04 324.01,-339.14"/>
</g>
<!-- call&#45;phase_vcf -->
<g id="node7" class="node">
<title>call&#45;phase_vcf</title>
<polygon fill="none" stroke="black" points="271,-249 212,-249 212,-225 271,-225 283,-237 271,-249"/>
<text text-anchor="middle" x="247.5" y="-233.3" font-family="Times,serif" font-size="14.00">phase_vcf</text>
</g>
<!-- call&#45;smrtcell_analysis&#45;&gt;call&#45;phase_vcf -->
<g id="edge7" class="edge">
<title>call&#45;smrtcell_analysis&#45;&gt;call&#45;phase_vcf</title>
<path fill="none" stroke="black" d="M300.14,-362.59C289.92,-338.4 271.32,-294.36 259.18,-265.65"/>
<polygon fill="black" stroke="black" points="262.44,-264.35 255.32,-256.51 255.99,-267.08 262.44,-264.35"/>
</g>
<!-- scatter&#45;L79C2&#45;bam_object -->
<!-- call&#45;smrtcell_analysis&#45;&gt;scatter&#45;L79C2&#45;bam_object -->
<g id="edge8" class="edge">
<title>call&#45;smrtcell_analysis&#45;&gt;scatter&#45;L79C2&#45;bam_object</title>
<path fill="none" stroke="black" d="M334.38,-362.54C347.19,-353.19 361.98,-340.77 372.5,-327 393.76,-299.18 395.57,-288.86 404.5,-255 407.25,-244.57 409.18,-233.27 410.52,-222.29"/>
<polygon fill="black" stroke="black" points="413.99,-222.82 411.57,-212.5 407.03,-222.08 413.99,-222.82"/>
</g>
<!-- call&#45;bcftools_stats -->
<g id="node3" class="node">
<title>call&#45;bcftools_stats</title>
<polygon fill="none" stroke="black" points="79,-249 0,-249 0,-225 79,-225 91,-237 79,-249"/>
<text text-anchor="middle" x="45.5" y="-233.3" font-family="Times,serif" font-size="14.00">bcftools_stats</text>
</g>
<!-- call&#45;deepvariant&#45;&gt;call&#45;bcftools_stats -->
<g id="edge2" class="edge">
<title>call&#45;deepvariant&#45;&gt;call&#45;bcftools_stats</title>
<path fill="none" stroke="black" d="M143.03,-290.52C126.23,-281.47 105.52,-270.32 87.52,-260.62"/>
<polygon fill="black" stroke="black" points="89.35,-257.64 78.89,-255.98 86.03,-263.8 89.35,-257.64"/>
</g>
<!-- call&#45;bcftools_roh -->
<g id="node4" class="node">
<title>call&#45;bcftools_roh</title>
<polygon fill="none" stroke="black" points="182,-249 109,-249 109,-225 182,-225 194,-237 182,-249"/>
<text text-anchor="middle" x="151.5" y="-233.3" font-family="Times,serif" font-size="14.00">bcftools_roh</text>
</g>
<!-- call&#45;deepvariant&#45;&gt;call&#45;bcftools_roh -->
<g id="edge3" class="edge">
<title>call&#45;deepvariant&#45;&gt;call&#45;bcftools_roh</title>
<path fill="none" stroke="black" d="M169.57,-290.7C167.01,-283.24 163.95,-274.32 161.09,-265.97"/>
<polygon fill="black" stroke="black" points="164.41,-264.86 157.86,-256.54 157.79,-267.13 164.41,-264.86"/>
</g>
<!-- call&#45;deepvariant&#45;&gt;call&#45;phase_vcf -->
<g id="edge6" class="edge">
<title>call&#45;deepvariant&#45;&gt;call&#45;phase_vcf</title>
<path fill="none" stroke="black" d="M193.3,-290.7C201.78,-282.45 212.09,-272.43 221.43,-263.35"/>
<polygon fill="black" stroke="black" points="223.84,-265.88 228.57,-256.4 218.96,-260.86 223.84,-265.88"/>
</g>
<!-- call&#45;zip_index_vcf -->
<g id="node6" class="node">
<title>call&#45;zip_index_vcf</title>
<polygon fill="none" stroke="black" points="383.5,-249 301.5,-249 301.5,-225 383.5,-225 395.5,-237 383.5,-249"/>
<text text-anchor="middle" x="348.5" y="-233.3" font-family="Times,serif" font-size="14.00">zip_index_vcf</text>
</g>
<!-- call&#45;pbsv_call&#45;&gt;call&#45;zip_index_vcf -->
<g id="edge5" class="edge">
<title>call&#45;pbsv_call&#45;&gt;call&#45;zip_index_vcf</title>
<path fill="none" stroke="black" d="M334.2,-290.7C336.22,-283.24 338.64,-274.32 340.91,-265.97"/>
<polygon fill="black" stroke="black" points="344.22,-267.13 343.46,-256.57 337.46,-265.3 344.22,-267.13"/>
</g>
<!-- call&#45;whatshap_haplotag -->
<g id="node8" class="node">
<title>call&#45;whatshap_haplotag</title>
<polygon fill="none" stroke="black" points="305,-174 196,-174 196,-150 305,-150 317,-162 305,-174"/>
<text text-anchor="middle" x="256.5" y="-158.3" font-family="Times,serif" font-size="14.00">whatshap_haplotag</text>
</g>
<!-- call&#45;phase_vcf&#45;&gt;call&#45;whatshap_haplotag -->
<g id="edge9" class="edge">
<title>call&#45;phase_vcf&#45;&gt;call&#45;whatshap_haplotag</title>
<path fill="none" stroke="black" d="M249.63,-218.7C250.62,-210.67 251.83,-200.9 252.95,-191.8"/>
<polygon fill="black" stroke="black" points="256.42,-192.28 254.17,-181.93 249.47,-191.43 256.42,-192.28"/>
</g>
<!-- call&#45;merge_bams -->
<g id="node10" class="node">
<title>call&#45;merge_bams</title>
<polygon fill="none" stroke="black" points="288,-102 213,-102 213,-78 288,-78 300,-90 288,-102"/>
<text text-anchor="middle" x="256.5" y="-86.3" font-family="Times,serif" font-size="14.00">merge_bams</text>
</g>
<!-- call&#45;whatshap_haplotag&#45;&gt;call&#45;merge_bams -->
<g id="edge10" class="edge">
<title>call&#45;whatshap_haplotag&#45;&gt;call&#45;merge_bams</title>
<path fill="none" stroke="black" d="M256.5,-143.7C256.5,-136.41 256.5,-127.73 256.5,-119.54"/>
<polygon fill="black" stroke="black" points="260,-119.62 256.5,-109.62 253,-119.62 260,-119.62"/>
</g>
<!-- call&#45;mosdepth -->
<g id="node11" class="node">
<title>call&#45;mosdepth</title>
<polygon fill="none" stroke="black" points="140.5,-30 82.5,-30 82.5,-6 140.5,-6 152.5,-18 140.5,-30"/>
<text text-anchor="middle" x="117.5" y="-14.3" font-family="Times,serif" font-size="14.00">mosdepth</text>
</g>
<!-- call&#45;merge_bams&#45;&gt;call&#45;mosdepth -->
<g id="edge11" class="edge">
<title>call&#45;merge_bams&#45;&gt;call&#45;mosdepth</title>
<path fill="none" stroke="black" d="M221.78,-71.52C203.65,-62.39 181.27,-51.11 161.89,-41.35"/>
<polygon fill="black" stroke="black" points="163.63,-38.31 153.13,-36.94 160.48,-44.57 163.63,-38.31"/>
</g>
<!-- call&#45;trgt -->
<g id="node12" class="node">
<title>call&#45;trgt</title>
<polygon fill="none" stroke="black" points="212.5,-30 170.5,-30 170.5,-6 212.5,-6 224.5,-18 212.5,-30"/>
<text text-anchor="middle" x="197.5" y="-14.3" font-family="Times,serif" font-size="14.00">trgt</text>
</g>
<!-- call&#45;merge_bams&#45;&gt;call&#45;trgt -->
<g id="edge12" class="edge">
<title>call&#45;merge_bams&#45;&gt;call&#45;trgt</title>
<path fill="none" stroke="black" d="M241.92,-71.7C235.06,-63.56 226.74,-53.69 219.16,-44.7"/>
<polygon fill="black" stroke="black" points="222.01,-42.65 212.89,-37.26 216.66,-47.16 222.01,-42.65"/>
</g>
<!-- call&#45;trgt_coverage_dropouts -->
<g id="node13" class="node">
<title>call&#45;trgt_coverage_dropouts</title>
<polygon fill="none" stroke="black" points="376,-30 243,-30 243,-6 376,-6 388,-18 376,-30"/>
<text text-anchor="middle" x="315.5" y="-14.3" font-family="Times,serif" font-size="14.00">trgt_coverage_dropouts</text>
</g>
<!-- call&#45;merge_bams&#45;&gt;call&#45;trgt_coverage_dropouts -->
<g id="edge13" class="edge">
<title>call&#45;merge_bams&#45;&gt;call&#45;trgt_coverage_dropouts</title>
<path fill="none" stroke="black" d="M271.08,-71.7C277.94,-63.56 286.26,-53.69 293.84,-44.7"/>
<polygon fill="black" stroke="black" points="296.34,-47.16 300.11,-37.26 290.99,-42.65 296.34,-47.16"/>
</g>
<!-- call&#45;cpg_pileup -->
<g id="node14" class="node">
<title>call&#45;cpg_pileup</title>
<polygon fill="none" stroke="black" points="471,-30 406,-30 406,-6 471,-6 483,-18 471,-30"/>
<text text-anchor="middle" x="444.5" y="-14.3" font-family="Times,serif" font-size="14.00">cpg_pileup</text>
</g>
<!-- call&#45;merge_bams&#45;&gt;call&#45;cpg_pileup -->
<g id="edge14" class="edge">
<title>call&#45;merge_bams&#45;&gt;call&#45;cpg_pileup</title>
<path fill="none" stroke="black" d="M300.1,-72.76C328.51,-62.19 365.62,-48.37 395.11,-37.39"/>
<polygon fill="black" stroke="black" points="396.03,-40.78 404.18,-34.01 393.59,-34.22 396.03,-40.78"/>
</g>
</g>
</svg>
