<?xml version="1.0" encoding="UTF-8" standalone="no"?>
<!DOCTYPE svg PUBLIC "-//W3C//DTD SVG 1.1//EN"
 "http://www.w3.org/Graphics/SVG/1.1/DTD/svg11.dtd">
<!-- Generated by graphviz version 2.43.0 (0)
 -->
<!-- Title: %3 Pages: 1 -->
<svg width="579pt" height="407pt"
 viewBox="0.00 0.00 579.00 407.00" xmlns="http://www.w3.org/2000/svg" xmlns:xlink="http://www.w3.org/1999/xlink">
<g id="graph0" class="graph" transform="scale(1 1) rotate(0) translate(4 403)">
<title>%3</title>
<polygon fill="white" stroke="transparent" points="-4,4 -4,-403 575,-403 575,4 -4,4"/>
<g id="clust1" class="cluster">
<title>cluster&#45;scatter&#45;L85C2&#45;bam_object</title>
<polygon fill="none" stroke="black" points="209.5,-136 209.5,-211 511.5,-211 511.5,-136 209.5,-136"/>
<text text-anchor="middle" x="360.5" y="-195.8" font-family="Times,serif" font-size="14.00">scatter(smrtcell_analysis.aligned_bams)</text>
</g>
<!-- call&#45;smrtcell_analysis -->
<g id="node1" class="node">
<title>call&#45;smrtcell_analysis</title>
<polygon fill="none" stroke="black" points="426.5,-393 298.5,-393 298.5,-369 426.5,-369 438.5,-381 426.5,-393"/>
<text text-anchor="middle" x="368.5" y="-377.3" font-family="Times,serif" font-size="14.00">smrtcell_analysis</text>
</g>
<!-- call&#45;deepvariant -->
<g id="node2" class="node">
<title>call&#45;deepvariant</title>
<polygon fill="none" stroke="black" points="253.5,-321 163.5,-321 163.5,-297 253.5,-297 265.5,-309 253.5,-321"/>
<text text-anchor="middle" x="214.5" y="-305.3" font-family="Times,serif" font-size="14.00">deepvariant</text>
</g>
<!-- call&#45;smrtcell_analysis&#45;&gt;call&#45;deepvariant -->
<g id="edge1" class="edge">
<title>call&#45;smrtcell_analysis&#45;&gt;call&#45;deepvariant</title>
<path fill="none" stroke="black" d="M330.83,-362.88C309.87,-353.35 283.6,-341.41 261.32,-331.28"/>
<polygon fill="black" stroke="black" points="262.6,-328.02 252.05,-327.07 259.71,-334.39 262.6,-328.02"/>
</g>
<!-- call&#45;pbsv_call -->
<g id="node5" class="node">
<title>call&#45;pbsv_call</title>
<polygon fill="none" stroke="black" points="420.5,-321 350.5,-321 350.5,-297 420.5,-297 432.5,-309 420.5,-321"/>
<text text-anchor="middle" x="391.5" y="-305.3" font-family="Times,serif" font-size="14.00">pbsv_call</text>
</g>
<!-- call&#45;smrtcell_analysis&#45;&gt;call&#45;pbsv_call -->
<g id="edge4" class="edge">
<title>call&#45;smrtcell_analysis&#45;&gt;call&#45;pbsv_call</title>
<path fill="none" stroke="black" d="M374.19,-362.7C376.75,-354.9 379.83,-345.51 382.68,-336.83"/>
<polygon fill="black" stroke="black" points="386.08,-337.7 385.88,-327.1 379.43,-335.51 386.08,-337.7"/>
</g>
<!-- call&#45;phase_vcf -->
<g id="node7" class="node">
<title>call&#45;phase_vcf</title>
<polygon fill="none" stroke="black" points="329.5,-249 255.5,-249 255.5,-225 329.5,-225 341.5,-237 329.5,-249"/>
<text text-anchor="middle" x="298.5" y="-233.3" font-family="Times,serif" font-size="14.00">phase_vcf</text>
</g>
<!-- call&#45;smrtcell_analysis&#45;&gt;call&#45;phase_vcf -->
<g id="edge6" class="edge">
<title>call&#45;smrtcell_analysis&#45;&gt;call&#45;phase_vcf</title>
<path fill="none" stroke="black" d="M359.65,-362.86C354.34,-352.5 347.47,-339.03 341.5,-327 331.07,-305.99 319.52,-282.04 311.02,-264.28"/>
<polygon fill="black" stroke="black" points="314.11,-262.63 306.64,-255.11 307.79,-265.65 314.11,-262.63"/>
</g>
<!-- scatter&#45;L85C2&#45;bam_object -->
<!-- call&#45;smrtcell_analysis&#45;&gt;scatter&#45;L85C2&#45;bam_object -->
<g id="edge8" class="edge">
<title>call&#45;smrtcell_analysis&#45;&gt;scatter&#45;L85C2&#45;bam_object</title>
<path fill="none" stroke="black" d="M397.93,-362.99C412.3,-353.66 429.11,-341.13 441.5,-327 465.49,-299.63 468.02,-289.19 480.5,-255 484.44,-244.21 487.65,-232.4 490.23,-220.94"/>
<polygon fill="black" stroke="black" points="493.69,-221.5 492.34,-211 486.84,-220.05 493.69,-221.5"/>
</g>
<!-- call&#45;bcftools_stats -->
<g id="node3" class="node">
<title>call&#45;bcftools_stats</title>
<polygon fill="none" stroke="black" points="103,-249 0,-249 0,-225 103,-225 115,-237 103,-249"/>
<text text-anchor="middle" x="57.5" y="-233.3" font-family="Times,serif" font-size="14.00">bcftools_stats</text>
</g>
<!-- call&#45;deepvariant&#45;&gt;call&#45;bcftools_stats -->
<g id="edge2" class="edge">
<title>call&#45;deepvariant&#45;&gt;call&#45;bcftools_stats</title>
<path fill="none" stroke="black" d="M176.09,-290.88C154.63,-281.31 127.7,-269.3 104.93,-259.15"/>
<polygon fill="black" stroke="black" points="106.34,-255.94 95.78,-255.07 103.49,-262.34 106.34,-255.94"/>
</g>
<!-- call&#45;bcftools_roh -->
<g id="node4" class="node">
<title>call&#45;bcftools_roh</title>
<polygon fill="none" stroke="black" points="225.5,-249 133.5,-249 133.5,-225 225.5,-225 237.5,-237 225.5,-249"/>
<text text-anchor="middle" x="185.5" y="-233.3" font-family="Times,serif" font-size="14.00">bcftools_roh</text>
</g>
<!-- call&#45;deepvariant&#45;&gt;call&#45;bcftools_roh -->
<g id="edge3" class="edge">
<title>call&#45;deepvariant&#45;&gt;call&#45;bcftools_roh</title>
<path fill="none" stroke="black" d="M207.33,-290.7C204.07,-282.81 200.13,-273.3 196.5,-264.55"/>
<polygon fill="black" stroke="black" points="199.65,-263 192.59,-255.1 193.18,-265.68 199.65,-263"/>
</g>
<!-- call&#45;deepvariant&#45;&gt;call&#45;phase_vcf -->
<g id="edge7" class="edge">
<title>call&#45;deepvariant&#45;&gt;call&#45;phase_vcf</title>
<path fill="none" stroke="black" d="M235.26,-290.7C245.74,-281.97 258.61,-271.24 270,-261.75"/>
<polygon fill="black" stroke="black" points="272.53,-264.19 277.97,-255.1 268.05,-258.82 272.53,-264.19"/>
</g>
<!-- call&#45;zip_index_vcf -->
<g id="node6" class="node">
<title>call&#45;zip_index_vcf</title>
<polygon fill="none" stroke="black" points="459,-249 360,-249 360,-225 459,-225 471,-237 459,-249"/>
<text text-anchor="middle" x="415.5" y="-233.3" font-family="Times,serif" font-size="14.00">zip_index_vcf</text>
</g>
<!-- call&#45;pbsv_call&#45;&gt;call&#45;zip_index_vcf -->
<g id="edge5" class="edge">
<title>call&#45;pbsv_call&#45;&gt;call&#45;zip_index_vcf</title>
<path fill="none" stroke="black" d="M397.43,-290.7C400.11,-282.9 403.33,-273.51 406.3,-264.83"/>
<polygon fill="black" stroke="black" points="409.7,-265.7 409.64,-255.1 403.08,-263.43 409.7,-265.7"/>
</g>
<!-- call&#45;whatshap_haplotag -->
<g id="node8" class="node">
<title>call&#45;whatshap_haplotag</title>
<polygon fill="none" stroke="black" points="364,-174 221,-174 221,-150 364,-150 376,-162 364,-174"/>
<text text-anchor="middle" x="298.5" y="-158.3" font-family="Times,serif" font-size="14.00">whatshap_haplotag</text>
</g>
<!-- call&#45;phase_vcf&#45;&gt;call&#45;whatshap_haplotag -->
<g id="edge9" class="edge">
<title>call&#45;phase_vcf&#45;&gt;call&#45;whatshap_haplotag</title>
<path fill="none" stroke="black" d="M298.5,-218.7C298.5,-210.25 298.5,-199.87 298.5,-190.37"/>
<polygon fill="black" stroke="black" points="302,-190.18 298.5,-180.18 295,-190.18 302,-190.18"/>
</g>
<!-- call&#45;merge_bams -->
<g id="node10" class="node">
<title>call&#45;merge_bams</title>
<polygon fill="none" stroke="black" points="340,-102 245,-102 245,-78 340,-78 352,-90 340,-102"/>
<text text-anchor="middle" x="298.5" y="-86.3" font-family="Times,serif" font-size="14.00">merge_bams</text>
</g>
<!-- call&#45;whatshap_haplotag&#45;&gt;call&#45;merge_bams -->
<g id="edge10" class="edge">
<title>call&#45;whatshap_haplotag&#45;&gt;call&#45;merge_bams</title>
<path fill="none" stroke="black" d="M298.5,-143.7C298.5,-135.98 298.5,-126.71 298.5,-118.11"/>
<polygon fill="black" stroke="black" points="302,-118.1 298.5,-108.1 295,-118.1 302,-118.1"/>
</g>
<!-- call&#45;mosdepth -->
<g id="node11" class="node">
<title>call&#45;mosdepth</title>
<polygon fill="none" stroke="black" points="172,-30 97,-30 97,-6 172,-6 184,-18 172,-30"/>
<text text-anchor="middle" x="140.5" y="-14.3" font-family="Times,serif" font-size="14.00">mosdepth</text>
</g>
<!-- call&#45;merge_bams&#45;&gt;call&#45;mosdepth -->
<g id="edge11" class="edge">
<title>call&#45;merge_bams&#45;&gt;call&#45;mosdepth</title>
<path fill="none" stroke="black" d="M259.85,-71.88C238.25,-62.31 211.15,-50.3 188.23,-40.15"/>
<polygon fill="black" stroke="black" points="189.59,-36.92 179.03,-36.07 186.75,-43.32 189.59,-36.92"/>
</g>
<!-- call&#45;trgt -->
<g id="node12" class="node">
<title>call&#45;trgt</title>
<polygon fill="none" stroke="black" points="244.5,-30 202.5,-30 202.5,-6 244.5,-6 256.5,-18 244.5,-30"/>
<text text-anchor="middle" x="229.5" y="-14.3" font-family="Times,serif" font-size="14.00">trgt</text>
</g>
<!-- call&#45;merge_bams&#45;&gt;call&#45;trgt -->
<g id="edge12" class="edge">
<title>call&#45;merge_bams&#45;&gt;call&#45;trgt</title>
<path fill="none" stroke="black" d="M281.44,-71.7C273,-63.14 262.68,-52.66 253.46,-43.3"/>
<polygon fill="black" stroke="black" points="255.87,-40.77 246.36,-36.1 250.89,-45.68 255.87,-40.77"/>
</g>
<!-- call&#45;trgt_coverage_dropouts -->
<g id="node13" class="node">
<title>call&#45;trgt_coverage_dropouts</title>
<polygon fill="none" stroke="black" points="448.5,-30 274.5,-30 274.5,-6 448.5,-6 460.5,-18 448.5,-30"/>
<text text-anchor="middle" x="367.5" y="-14.3" font-family="Times,serif" font-size="14.00">trgt_coverage_dropouts</text>
</g>
<!-- call&#45;merge_bams&#45;&gt;call&#45;trgt_coverage_dropouts -->
<g id="edge13" class="edge">
<title>call&#45;merge_bams&#45;&gt;call&#45;trgt_coverage_dropouts</title>
<path fill="none" stroke="black" d="M315.56,-71.7C324,-63.14 334.32,-52.66 343.54,-43.3"/>
<polygon fill="black" stroke="black" points="346.11,-45.68 350.64,-36.1 341.13,-40.77 346.11,-45.68"/>
</g>
<!-- call&#45;cpg_pileup -->
<g id="node14" class="node">
<title>call&#45;cpg_pileup</title>
<polygon fill="none" stroke="black" points="559,-30 478,-30 478,-6 559,-6 571,-18 559,-30"/>
<text text-anchor="middle" x="524.5" y="-14.3" font-family="Times,serif" font-size="14.00">cpg_pileup</text>
</g>
<!-- call&#45;merge_bams&#45;&gt;call&#45;cpg_pileup -->
<g id="edge14" class="edge">
<title>call&#45;merge_bams&#45;&gt;call&#45;cpg_pileup</title>
<path fill="none" stroke="black" d="M352.06,-72.41C387.02,-61.58 432.59,-47.47 468.1,-36.47"/>
<polygon fill="black" stroke="black" points="469.32,-39.76 477.83,-33.45 467.25,-33.07 469.32,-39.76"/>
</g>
</g>
</svg>
