<?xml version="1.0" encoding="UTF-8" standalone="no"?>
<!DOCTYPE svg PUBLIC "-//W3C//DTD SVG 1.1//EN"
 "http://www.w3.org/Graphics/SVG/1.1/DTD/svg11.dtd">
<!-- Generated by graphviz version 7.1.0 (20230121.1956)
 -->
<!-- Pages: 1 -->
<svg width="699pt" height="354pt"
 viewBox="0.00 0.00 699.00 353.50" xmlns="http://www.w3.org/2000/svg" xmlns:xlink="http://www.w3.org/1999/xlink">
<g id="graph0" class="graph" transform="scale(1 1) rotate(0) translate(4 349.5)">
<polygon fill="white" stroke="none" points="-4,4 -4,-349.5 695,-349.5 695,4 -4,4"/>
<g id="clust1" class="cluster">
<title>cluster&#45;scatter&#45;L85C2&#45;vcf_object</title>
<polygon fill="none" stroke="black" points="481,-297.5 481,-337.5 683,-337.5 683,-297.5 481,-297.5"/>
<text text-anchor="middle" x="582" y="-322.3" font-family="Times,serif" font-size="14.00">scatter(reference.population_vcfs)</text>
</g>
<!-- call&#45;write_cohort_yaml -->
<g id="node1" class="node">
<title>call&#45;write_cohort_yaml</title>
<polygon fill="none" stroke="black" points="257,-318 149,-318 149,-294 257,-294 269,-306 257,-318"/>
<text text-anchor="middle" x="209" y="-302.3" font-family="Times,serif" font-size="14.00">write_cohort_yaml</text>
</g>
<!-- call&#45;write_ped -->
<g id="node2" class="node">
<title>call&#45;write_ped</title>
<polygon fill="none" stroke="black" points="194.5,-246 135.5,-246 135.5,-222 194.5,-222 206.5,-234 194.5,-246"/>
<text text-anchor="middle" x="171" y="-230.3" font-family="Times,serif" font-size="14.00">write_ped</text>
</g>
<!-- call&#45;write_cohort_yaml&#45;&gt;call&#45;write_ped -->
<g id="edge1" class="edge">
<title>call&#45;write_cohort_yaml&#45;&gt;call&#45;write_ped</title>
<path fill="none" stroke="black" d="M199.61,-287.7C195.42,-279.98 190.39,-270.71 185.72,-262.11"/>
<polygon fill="black" stroke="black" points="188.85,-260.55 181.01,-253.43 182.7,-263.89 188.85,-260.55"/>
</g>
<!-- call&#45;calculate_phrank -->
<g id="node3" class="node">
<title>call&#45;calculate_phrank</title>
<polygon fill="none" stroke="black" points="321.5,-246 224.5,-246 224.5,-222 321.5,-222 333.5,-234 321.5,-246"/>
<text text-anchor="middle" x="279" y="-230.3" font-family="Times,serif" font-size="14.00">calculate_phrank</text>
</g>
<!-- call&#45;write_cohort_yaml&#45;&gt;call&#45;calculate_phrank -->
<g id="edge2" class="edge">
<title>call&#45;write_cohort_yaml&#45;&gt;call&#45;calculate_phrank</title>
<path fill="none" stroke="black" d="M226.3,-287.7C234.61,-279.39 244.72,-269.28 253.86,-260.14"/>
<polygon fill="black" stroke="black" points="256.23,-262.72 260.83,-253.17 251.28,-257.77 256.23,-262.72"/>
</g>
<!-- call&#45;slivar_small_variant -->
<g id="node5" class="node">
<title>call&#45;slivar_small_variant</title>
<polygon fill="none" stroke="black" points="116,-174 0,-174 0,-150 116,-150 128,-162 116,-174"/>
<text text-anchor="middle" x="64" y="-158.3" font-family="Times,serif" font-size="14.00">slivar_small_variant</text>
</g>
<!-- call&#45;write_ped&#45;&gt;call&#45;slivar_small_variant -->
<g id="edge3" class="edge">
<title>call&#45;write_ped&#45;&gt;call&#45;slivar_small_variant</title>
<path fill="none" stroke="black" d="M144.28,-215.52C130.77,-206.68 114.19,-195.84 99.62,-186.3"/>
<polygon fill="black" stroke="black" points="101.94,-183.63 91.65,-181.09 98.1,-189.49 101.94,-183.63"/>
</g>
<!-- call&#45;slivar_compound_hets -->
<g id="node6" class="node">
<title>call&#45;slivar_compound_hets</title>
<polygon fill="none" stroke="black" points="154,-102 26,-102 26,-78 154,-78 166,-90 154,-102"/>
<text text-anchor="middle" x="96" y="-86.3" font-family="Times,serif" font-size="14.00">slivar_compound_hets</text>
</g>
<!-- call&#45;write_ped&#45;&gt;call&#45;slivar_compound_hets -->
<g id="edge5" class="edge">
<title>call&#45;write_ped&#45;&gt;call&#45;slivar_compound_hets</title>
<path fill="none" stroke="black" d="M166.03,-215.6C160.38,-197.16 150.2,-167.51 137,-144 131.79,-134.71 125.06,-125.29 118.56,-117.02"/>
<polygon fill="black" stroke="black" points="121.4,-114.96 112.38,-109.41 115.97,-119.38 121.4,-114.96"/>
</g>
<!-- call&#45;slivar_tsv -->
<g id="node7" class="node">
<title>call&#45;slivar_tsv</title>
<polygon fill="none" stroke="black" points="167.5,-30 110.5,-30 110.5,-6 167.5,-6 179.5,-18 167.5,-30"/>
<text text-anchor="middle" x="145" y="-14.3" font-family="Times,serif" font-size="14.00">slivar_tsv</text>
</g>
<!-- call&#45;write_ped&#45;&gt;call&#45;slivar_tsv -->
<g id="edge7" class="edge">
<title>call&#45;write_ped&#45;&gt;call&#45;slivar_tsv</title>
<path fill="none" stroke="black" d="M174.53,-215.72C179.96,-185.83 188.39,-122.83 175,-72 172.61,-62.94 168.29,-53.81 163.65,-45.73"/>
<polygon fill="black" stroke="black" points="166.76,-44.11 158.52,-37.44 160.8,-47.79 166.76,-44.11"/>
</g>
<!-- call&#45;slivar_svpack_tsv -->
<g id="node11" class="node">
<title>call&#45;slivar_svpack_tsv</title>
<polygon fill="none" stroke="black" points="323.5,-174 222.5,-174 222.5,-150 323.5,-150 335.5,-162 323.5,-174"/>
<text text-anchor="middle" x="279" y="-158.3" font-family="Times,serif" font-size="14.00">slivar_svpack_tsv</text>
</g>
<!-- call&#45;write_ped&#45;&gt;call&#45;slivar_svpack_tsv -->
<g id="edge12" class="edge">
<title>call&#45;write_ped&#45;&gt;call&#45;slivar_svpack_tsv</title>
<path fill="none" stroke="black" d="M197.97,-215.52C211.61,-206.68 228.34,-195.84 243.05,-186.3"/>
<polygon fill="black" stroke="black" points="244.61,-189.46 251.1,-181.08 240.8,-183.59 244.61,-189.46"/>
</g>
<!-- call&#45;calculate_phrank&#45;&gt;call&#45;slivar_tsv -->
<g id="edge8" class="edge">
<title>call&#45;calculate_phrank&#45;&gt;call&#45;slivar_tsv</title>
<path fill="none" stroke="black" d="M310.92,-215.54C323.69,-206.72 337,-194.73 344,-180 350.86,-165.55 351.74,-158 344,-144 311.5,-85.2 238.47,-50.33 190.5,-32.93"/>
<polygon fill="black" stroke="black" points="191.8,-29.67 181.21,-29.67 189.49,-36.28 191.8,-29.67"/>
</g>
<!-- call&#45;calculate_phrank&#45;&gt;call&#45;slivar_svpack_tsv -->
<g id="edge14" class="edge">
<title>call&#45;calculate_phrank&#45;&gt;call&#45;slivar_svpack_tsv</title>
<path fill="none" stroke="black" d="M279,-215.7C279,-208.41 279,-199.73 279,-191.54"/>
<polygon fill="black" stroke="black" points="282.5,-191.62 279,-181.62 275.5,-191.62 282.5,-191.62"/>
</g>
<!-- call&#45;bcftools_norm -->
<g id="node4" class="node">
<title>call&#45;bcftools_norm</title>
<polygon fill="none" stroke="black" points="100,-246 16,-246 16,-222 100,-222 112,-234 100,-246"/>
<text text-anchor="middle" x="64" y="-230.3" font-family="Times,serif" font-size="14.00">bcftools_norm</text>
</g>
<!-- call&#45;bcftools_norm&#45;&gt;call&#45;slivar_small_variant -->
<g id="edge4" class="edge">
<title>call&#45;bcftools_norm&#45;&gt;call&#45;slivar_small_variant</title>
<path fill="none" stroke="black" d="M64,-215.7C64,-208.41 64,-199.73 64,-191.54"/>
<polygon fill="black" stroke="black" points="67.5,-191.62 64,-181.62 60.5,-191.62 67.5,-191.62"/>
</g>
<!-- call&#45;slivar_small_variant&#45;&gt;call&#45;slivar_compound_hets -->
<g id="edge6" class="edge">
<title>call&#45;slivar_small_variant&#45;&gt;call&#45;slivar_compound_hets</title>
<path fill="none" stroke="black" d="M71.91,-143.7C75.4,-136.07 79.58,-126.92 83.48,-118.4"/>
<polygon fill="black" stroke="black" points="86.58,-120.03 87.55,-109.48 80.21,-117.12 86.58,-120.03"/>
</g>
<!-- call&#45;slivar_small_variant&#45;&gt;call&#45;slivar_tsv -->
<g id="edge10" class="edge">
<title>call&#45;slivar_small_variant&#45;&gt;call&#45;slivar_tsv</title>
<path fill="none" stroke="black" d="M43.63,-143.67C24.56,-125.29 1.17,-95.68 17,-72 35.17,-44.81 70.14,-31.55 98.94,-25.1"/>
<polygon fill="black" stroke="black" points="99.43,-28.57 108.55,-23.17 98.06,-21.71 99.43,-28.57"/>
</g>
<!-- call&#45;slivar_compound_hets&#45;&gt;call&#45;slivar_tsv -->
<g id="edge9" class="edge">
<title>call&#45;slivar_compound_hets&#45;&gt;call&#45;slivar_tsv</title>
<path fill="none" stroke="black" d="M108.11,-71.7C113.69,-63.73 120.43,-54.1 126.62,-45.26"/>
<polygon fill="black" stroke="black" points="129.29,-47.54 132.16,-37.34 123.56,-43.53 129.29,-47.54"/>
</g>
<!-- scatter&#45;L85C2&#45;vcf_object -->
<!-- call&#45;svpack_filter_annotated -->
<g id="node9" class="node">
<title>call&#45;svpack_filter_annotated</title>
<polygon fill="none" stroke="black" points="460,-318 326,-318 326,-294 460,-294 472,-306 460,-318"/>
<text text-anchor="middle" x="399" y="-302.3" font-family="Times,serif" font-size="14.00">svpack_filter_annotated</text>
</g>
<!-- call&#45;zip_index_vcf -->
<g id="node10" class="node">
<title>call&#45;zip_index_vcf</title>
<polygon fill="none" stroke="black" points="434,-246 352,-246 352,-222 434,-222 446,-234 434,-246"/>
<text text-anchor="middle" x="399" y="-230.3" font-family="Times,serif" font-size="14.00">zip_index_vcf</text>
</g>
<!-- call&#45;svpack_filter_annotated&#45;&gt;call&#45;zip_index_vcf -->
<g id="edge11" class="edge">
<title>call&#45;svpack_filter_annotated&#45;&gt;call&#45;zip_index_vcf</title>
<path fill="none" stroke="black" d="M399,-287.7C399,-280.41 399,-271.73 399,-263.54"/>
<polygon fill="black" stroke="black" points="402.5,-263.62 399,-253.62 395.5,-263.62 402.5,-263.62"/>
</g>
<!-- call&#45;zip_index_vcf&#45;&gt;call&#45;slivar_svpack_tsv -->
<g id="edge13" class="edge">
<title>call&#45;zip_index_vcf&#45;&gt;call&#45;slivar_svpack_tsv</title>
<path fill="none" stroke="black" d="M369.03,-215.52C353.74,-206.6 334.94,-195.63 318.48,-186.03"/>
<polygon fill="black" stroke="black" points="320.3,-183.04 309.9,-181.02 316.77,-189.09 320.3,-183.04"/>
</g>
</g>
</svg>
