<?xml version="1.0" encoding="UTF-8" standalone="no"?>
<!DOCTYPE svg PUBLIC "-//W3C//DTD SVG 1.1//EN"
 "http://www.w3.org/Graphics/SVG/1.1/DTD/svg11.dtd">
<!-- Generated by graphviz version 2.43.0 (0)
 -->
<!-- Title: %3 Pages: 1 -->
<svg width="847pt" height="354pt"
 viewBox="0.00 0.00 846.50 353.50" xmlns="http://www.w3.org/2000/svg" xmlns:xlink="http://www.w3.org/1999/xlink">
<g id="graph0" class="graph" transform="scale(1 1) rotate(0) translate(4 349.5)">
<title>%3</title>
<polygon fill="white" stroke="transparent" points="-4,4 -4,-349.5 842.5,-349.5 842.5,4 -4,4"/>
<g id="clust1" class="cluster">
<title>cluster&#45;scatter&#45;L93C2&#45;vcf_object</title>
<polygon fill="none" stroke="black" points="569.5,-297.5 569.5,-337.5 830.5,-337.5 830.5,-297.5 569.5,-297.5"/>
<text text-anchor="middle" x="700" y="-322.3" font-family="Times,serif" font-size="14.00">scatter(reference.population_vcfs)</text>
</g>
<!-- call&#45;write_cohort_yaml -->
<g id="node1" class="node">
<title>call&#45;write_cohort_yaml</title>
<polygon fill="none" stroke="black" points="301.5,-318 165.5,-318 165.5,-294 301.5,-294 313.5,-306 301.5,-318"/>
<text text-anchor="middle" x="239.5" y="-302.3" font-family="Times,serif" font-size="14.00">write_cohort_yaml</text>
</g>
<!-- call&#45;write_ped -->
<g id="node2" class="node">
<title>call&#45;write_ped</title>
<polygon fill="none" stroke="black" points="228,-246 153,-246 153,-222 228,-222 240,-234 228,-246"/>
<text text-anchor="middle" x="196.5" y="-230.3" font-family="Times,serif" font-size="14.00">write_ped</text>
</g>
<!-- call&#45;write_cohort_yaml&#45;&gt;call&#45;write_ped -->
<g id="edge1" class="edge">
<title>call&#45;write_cohort_yaml&#45;&gt;call&#45;write_ped</title>
<path fill="none" stroke="black" d="M228.87,-287.7C223.87,-279.56 217.81,-269.69 212.29,-260.7"/>
<polygon fill="black" stroke="black" points="215.22,-258.79 207.01,-252.1 209.26,-262.46 215.22,-258.79"/>
</g>
<!-- call&#45;calculate_phrank -->
<g id="node3" class="node">
<title>call&#45;calculate_phrank</title>
<polygon fill="none" stroke="black" points="383,-246 258,-246 258,-222 383,-222 395,-234 383,-246"/>
<text text-anchor="middle" x="326.5" y="-230.3" font-family="Times,serif" font-size="14.00">calculate_phrank</text>
</g>
<!-- call&#45;write_cohort_yaml&#45;&gt;call&#45;calculate_phrank -->
<g id="edge2" class="edge">
<title>call&#45;write_cohort_yaml&#45;&gt;call&#45;calculate_phrank</title>
<path fill="none" stroke="black" d="M261.01,-287.7C271.96,-278.88 285.45,-268.03 297.32,-258.47"/>
<polygon fill="black" stroke="black" points="299.64,-261.1 305.24,-252.1 295.26,-255.65 299.64,-261.1"/>
</g>
<!-- call&#45;slivar_small_variant -->
<g id="node5" class="node">
<title>call&#45;slivar_small_variant</title>
<polygon fill="none" stroke="black" points="147,-174 0,-174 0,-150 147,-150 159,-162 147,-174"/>
<text text-anchor="middle" x="79.5" y="-158.3" font-family="Times,serif" font-size="14.00">slivar_small_variant</text>
</g>
<!-- call&#45;write_ped&#45;&gt;call&#45;slivar_small_variant -->
<g id="edge4" class="edge">
<title>call&#45;write_ped&#45;&gt;call&#45;slivar_small_variant</title>
<path fill="none" stroke="black" d="M167.88,-215.88C152.58,-206.72 133.56,-195.34 117.08,-185.48"/>
<polygon fill="black" stroke="black" points="118.61,-182.32 108.23,-180.19 115.02,-188.33 118.61,-182.32"/>
</g>
<!-- call&#45;slivar_compound_hets -->
<g id="node6" class="node">
<title>call&#45;slivar_compound_hets</title>
<polygon fill="none" stroke="black" points="187.5,-102 25.5,-102 25.5,-78 187.5,-78 199.5,-90 187.5,-102"/>
<text text-anchor="middle" x="112.5" y="-86.3" font-family="Times,serif" font-size="14.00">slivar_compound_hets</text>
</g>
<!-- call&#45;write_ped&#45;&gt;call&#45;slivar_compound_hets -->
<g id="edge5" class="edge">
<title>call&#45;write_ped&#45;&gt;call&#45;slivar_compound_hets</title>
<path fill="none" stroke="black" d="M193.51,-215.87C189.66,-197.13 181.73,-166.73 167.5,-144 160.79,-133.29 151.46,-123.21 142.38,-114.77"/>
<polygon fill="black" stroke="black" points="144.67,-112.13 134.87,-108.09 140.02,-117.35 144.67,-112.13"/>
</g>
<!-- call&#45;slivar_tsv -->
<g id="node7" class="node">
<title>call&#45;slivar_tsv</title>
<polygon fill="none" stroke="black" points="200,-30 127,-30 127,-6 200,-6 212,-18 200,-30"/>
<text text-anchor="middle" x="169.5" y="-14.3" font-family="Times,serif" font-size="14.00">slivar_tsv</text>
</g>
<!-- call&#45;write_ped&#45;&gt;call&#45;slivar_tsv -->
<g id="edge10" class="edge">
<title>call&#45;write_ped&#45;&gt;call&#45;slivar_tsv</title>
<path fill="none" stroke="black" d="M202.07,-215.55C210.76,-185.43 224.94,-122.07 208.5,-72 205.19,-61.91 199.13,-52.15 192.77,-43.82"/>
<polygon fill="black" stroke="black" points="195.42,-41.54 186.39,-36.01 190,-45.97 195.42,-41.54"/>
</g>
<!-- call&#45;slivar_svpack_tsv -->
<g id="node11" class="node">
<title>call&#45;slivar_svpack_tsv</title>
<polygon fill="none" stroke="black" points="383.5,-174 255.5,-174 255.5,-150 383.5,-150 395.5,-162 383.5,-174"/>
<text text-anchor="middle" x="325.5" y="-158.3" font-family="Times,serif" font-size="14.00">slivar_svpack_tsv</text>
</g>
<!-- call&#45;write_ped&#45;&gt;call&#45;slivar_svpack_tsv -->
<g id="edge14" class="edge">
<title>call&#45;write_ped&#45;&gt;call&#45;slivar_svpack_tsv</title>
<path fill="none" stroke="black" d="M228.06,-215.88C245.16,-206.6 266.48,-195.03 284.82,-185.08"/>
<polygon fill="black" stroke="black" points="286.7,-188.04 293.82,-180.19 283.36,-181.88 286.7,-188.04"/>
</g>
<!-- call&#45;calculate_phrank&#45;&gt;call&#45;slivar_tsv -->
<g id="edge8" class="edge">
<title>call&#45;calculate_phrank&#45;&gt;call&#45;slivar_tsv</title>
<path fill="none" stroke="black" d="M366.68,-215.77C381.33,-207.28 396.3,-195.48 404.5,-180 411.99,-165.86 412.74,-157.72 404.5,-144 365.1,-78.42 278.38,-45.38 222.01,-30.22"/>
<polygon fill="black" stroke="black" points="222.77,-26.8 212.21,-27.68 221.01,-33.58 222.77,-26.8"/>
</g>
<!-- call&#45;calculate_phrank&#45;&gt;call&#45;slivar_svpack_tsv -->
<g id="edge13" class="edge">
<title>call&#45;calculate_phrank&#45;&gt;call&#45;slivar_svpack_tsv</title>
<path fill="none" stroke="black" d="M326.25,-215.7C326.14,-207.98 326.01,-198.71 325.89,-190.11"/>
<polygon fill="black" stroke="black" points="329.39,-190.05 325.74,-180.1 322.39,-190.15 329.39,-190.05"/>
</g>
<!-- call&#45;bcftools_norm -->
<g id="node4" class="node">
<title>call&#45;bcftools_norm</title>
<polygon fill="none" stroke="black" points="123,-246 18,-246 18,-222 123,-222 135,-234 123,-246"/>
<text text-anchor="middle" x="76.5" y="-230.3" font-family="Times,serif" font-size="14.00">bcftools_norm</text>
</g>
<!-- call&#45;bcftools_norm&#45;&gt;call&#45;slivar_small_variant -->
<g id="edge3" class="edge">
<title>call&#45;bcftools_norm&#45;&gt;call&#45;slivar_small_variant</title>
<path fill="none" stroke="black" d="M77.24,-215.7C77.57,-207.98 77.97,-198.71 78.34,-190.11"/>
<polygon fill="black" stroke="black" points="81.84,-190.25 78.77,-180.1 74.84,-189.95 81.84,-190.25"/>
</g>
<!-- call&#45;slivar_small_variant&#45;&gt;call&#45;slivar_compound_hets -->
<g id="edge6" class="edge">
<title>call&#45;slivar_small_variant&#45;&gt;call&#45;slivar_compound_hets</title>
<path fill="none" stroke="black" d="M87.66,-143.7C91.41,-135.73 95.95,-126.1 100.12,-117.26"/>
<polygon fill="black" stroke="black" points="103.34,-118.64 104.44,-108.1 97.01,-115.66 103.34,-118.64"/>
</g>
<!-- call&#45;slivar_small_variant&#45;&gt;call&#45;slivar_tsv -->
<g id="edge9" class="edge">
<title>call&#45;slivar_small_variant&#45;&gt;call&#45;slivar_tsv</title>
<path fill="none" stroke="black" d="M49.2,-143.8C36.62,-134.9 23.38,-122.77 16.5,-108 9.75,-93.49 7.22,-85.03 16.5,-72 39.13,-40.21 82.2,-27.32 116.89,-22.17"/>
<polygon fill="black" stroke="black" points="117.43,-25.63 126.89,-20.86 116.52,-18.69 117.43,-25.63"/>
</g>
<!-- call&#45;slivar_compound_hets&#45;&gt;call&#45;slivar_tsv -->
<g id="edge7" class="edge">
<title>call&#45;slivar_compound_hets&#45;&gt;call&#45;slivar_tsv</title>
<path fill="none" stroke="black" d="M126.59,-71.7C133.42,-63.3 141.76,-53.07 149.26,-43.86"/>
<polygon fill="black" stroke="black" points="151.97,-46.07 155.57,-36.1 146.54,-41.65 151.97,-46.07"/>
</g>
<!-- scatter&#45;L93C2&#45;vcf_object -->
<!-- call&#45;svpack_filter_annotated -->
<g id="node9" class="node">
<title>call&#45;svpack_filter_annotated</title>
<polygon fill="none" stroke="black" points="549,-318 376,-318 376,-294 549,-294 561,-306 549,-318"/>
<text text-anchor="middle" x="468.5" y="-302.3" font-family="Times,serif" font-size="14.00">svpack_filter_annotated</text>
</g>
<!-- call&#45;zip_index_vcf -->
<g id="node10" class="node">
<title>call&#45;zip_index_vcf</title>
<polygon fill="none" stroke="black" points="512,-246 413,-246 413,-222 512,-222 524,-234 512,-246"/>
<text text-anchor="middle" x="468.5" y="-230.3" font-family="Times,serif" font-size="14.00">zip_index_vcf</text>
</g>
<!-- call&#45;svpack_filter_annotated&#45;&gt;call&#45;zip_index_vcf -->
<g id="edge11" class="edge">
<title>call&#45;svpack_filter_annotated&#45;&gt;call&#45;zip_index_vcf</title>
<path fill="none" stroke="black" d="M468.5,-287.7C468.5,-279.98 468.5,-270.71 468.5,-262.11"/>
<polygon fill="black" stroke="black" points="472,-262.1 468.5,-252.1 465,-262.1 472,-262.1"/>
</g>
<!-- call&#45;zip_index_vcf&#45;&gt;call&#45;slivar_svpack_tsv -->
<g id="edge12" class="edge">
<title>call&#45;zip_index_vcf&#45;&gt;call&#45;slivar_svpack_tsv</title>
<path fill="none" stroke="black" d="M433.52,-215.88C414.3,-206.47 390.27,-194.71 369.76,-184.67"/>
<polygon fill="black" stroke="black" points="371.14,-181.44 360.62,-180.19 368.06,-187.73 371.14,-181.44"/>
</g>
</g>
</svg>
