<?xml version="1.0" encoding="UTF-8" standalone="no"?>
<!DOCTYPE svg PUBLIC "-//W3C//DTD SVG 1.1//EN"
 "http://www.w3.org/Graphics/SVG/1.1/DTD/svg11.dtd">
<!-- Generated by graphviz version 2.43.0 (0)
 -->
<!-- Title: %3 Pages: 1 -->
<svg width="796pt" height="416pt"
 viewBox="0.00 0.00 795.99 416.00" xmlns="http://www.w3.org/2000/svg" xmlns:xlink="http://www.w3.org/1999/xlink">
<g id="graph0" class="graph" transform="scale(1 1) rotate(0) translate(4 412)">
<title>%3</title>
<polygon fill="white" stroke="transparent" points="-4,4 -4,-412 791.99,-412 791.99,4 -4,4"/>
<g id="clust1" class="cluster">
<title>cluster&#45;scatter&#45;L38C2&#45;sample</title>
<polygon fill="none" stroke="black" points="348.99,-250 348.99,-364 779.99,-364 779.99,-250 348.99,-250"/>
<text text-anchor="middle" x="564.49" y="-348.8" font-family="Times,serif" font-size="14.00">scatter(cohort.samples)</text>
</g>
<g id="clust2" class="cluster">
<title>cluster&#45;if&#45;L48C3</title>
<polygon fill="none" stroke="black" points="516.99,-258 516.99,-333 771.99,-333 771.99,-258 516.99,-258"/>
<text text-anchor="middle" x="644.49" y="-317.8" font-family="Times,serif" font-size="14.00">if(sample.run_de_novo_assembly)</text>
</g>
<g id="clust3" class="cluster">
<title>cluster&#45;if&#45;L59C2</title>
<polygon fill="none" stroke="black" points="24.99,-128 24.99,-242 468.99,-242 468.99,-128 24.99,-128"/>
<text text-anchor="middle" x="246.99" y="-226.8" font-family="Times,serif" font-size="14.00">if(length(cohort.samples) &gt; 1)</text>
</g>
<g id="clust4" class="cluster">
<title>cluster&#45;if&#45;L70C3</title>
<polygon fill="none" stroke="black" points="42.99,-136 42.99,-211 324.99,-211 324.99,-136 42.99,-136"/>
<text text-anchor="middle" x="183.99" y="-195.8" font-family="Times,serif" font-size="14.00">if(cohort.run_de_novo_assembly_trio)</text>
</g>
<!-- call&#45;backend_configuration -->
<g id="node1" class="node">
<title>call&#45;backend_configuration</title>
<polygon fill="none" stroke="black" points="405.49,-402 240.49,-402 240.49,-378 405.49,-378 417.49,-390 405.49,-402"/>
<text text-anchor="middle" x="328.99" y="-386.3" font-family="Times,serif" font-size="14.00">backend_configuration</text>
</g>
<!-- call&#45;sample_analysis -->
<g id="node2" class="node">
<title>call&#45;sample_analysis</title>
<polygon fill="none" stroke="black" points="496.99,-296 376.99,-296 376.99,-272 496.99,-272 508.99,-284 496.99,-296"/>
<text text-anchor="middle" x="442.99" y="-280.3" font-family="Times,serif" font-size="14.00">sample_analysis</text>
</g>
<!-- call&#45;backend_configuration&#45;&gt;call&#45;sample_analysis -->
<g id="edge1" class="edge">
<title>call&#45;backend_configuration&#45;&gt;call&#45;sample_analysis</title>
<path fill="none" stroke="black" d="M357.68,-371.75C361.25,-369.28 364.77,-366.66 367.99,-364 387.91,-347.54 407.93,-326.14 422.27,-309.77"/>
<polygon fill="black" stroke="black" points="424.94,-312.03 428.83,-302.18 419.64,-307.46 424.94,-312.03"/>
</g>
<!-- call&#45;de_novo_assembly_sample -->
<g id="node3" class="node">
<title>call&#45;de_novo_assembly_sample</title>
<polygon fill="none" stroke="black" points="740.99,-296 546.99,-296 546.99,-272 740.99,-272 752.99,-284 740.99,-296"/>
<text text-anchor="middle" x="649.99" y="-280.3" font-family="Times,serif" font-size="14.00">de_novo_assembly_sample</text>
</g>
<!-- call&#45;backend_configuration&#45;&gt;call&#45;de_novo_assembly_sample -->
<g id="edge2" class="edge">
<title>call&#45;backend_configuration&#45;&gt;call&#45;de_novo_assembly_sample</title>
<path fill="none" stroke="black" d="M417.74,-388.02C455.8,-385.17 500.13,-378.54 537.99,-364 570.69,-351.44 602.81,-327.21 624.21,-308.88"/>
<polygon fill="black" stroke="black" points="626.65,-311.4 631.87,-302.18 622.04,-306.13 626.65,-311.4"/>
</g>
<!-- call&#45;cohort_analysis -->
<g id="node6" class="node">
<title>call&#45;cohort_analysis</title>
<polygon fill="none" stroke="black" points="448.49,-174 333.49,-174 333.49,-150 448.49,-150 460.49,-162 448.49,-174"/>
<text text-anchor="middle" x="396.99" y="-158.3" font-family="Times,serif" font-size="14.00">cohort_analysis</text>
</g>
<!-- call&#45;backend_configuration&#45;&gt;call&#45;cohort_analysis -->
<g id="edge4" class="edge">
<title>call&#45;backend_configuration&#45;&gt;call&#45;cohort_analysis</title>
<path fill="none" stroke="black" d="M328.67,-371.81C328.68,-345.04 330.73,-292.1 344.99,-250 352.47,-227.92 366.13,-205.4 377.58,-188.8"/>
<polygon fill="black" stroke="black" points="380.73,-190.41 383.65,-180.23 375.02,-186.36 380.73,-190.41"/>
</g>
<!-- call&#45;de_novo_assembly_trio -->
<g id="node7" class="node">
<title>call&#45;de_novo_assembly_trio</title>
<polygon fill="none" stroke="black" points="302.99,-174 134.99,-174 134.99,-150 302.99,-150 314.99,-162 302.99,-174"/>
<text text-anchor="middle" x="224.99" y="-158.3" font-family="Times,serif" font-size="14.00">de_novo_assembly_trio</text>
</g>
<!-- call&#45;backend_configuration&#45;&gt;call&#45;de_novo_assembly_trio -->
<g id="edge5" class="edge">
<title>call&#45;backend_configuration&#45;&gt;call&#45;de_novo_assembly_trio</title>
<path fill="none" stroke="black" d="M321,-371.64C302.89,-332.27 258.59,-236 237.09,-189.29"/>
<polygon fill="black" stroke="black" points="240.22,-187.73 232.86,-180.11 233.87,-190.66 240.22,-187.73"/>
</g>
<!-- call&#45;tertiary_analysis -->
<g id="node12" class="node">
<title>call&#45;tertiary_analysis</title>
<polygon fill="none" stroke="black" points="373.99,-30 249.99,-30 249.99,-6 373.99,-6 385.99,-18 373.99,-30"/>
<text text-anchor="middle" x="317.99" y="-14.3" font-family="Times,serif" font-size="14.00">tertiary_analysis</text>
</g>
<!-- call&#45;backend_configuration&#45;&gt;call&#45;tertiary_analysis -->
<g id="edge10" class="edge">
<title>call&#45;backend_configuration&#45;&gt;call&#45;tertiary_analysis</title>
<path fill="none" stroke="black" d="M240.45,-373.72C167.29,-355.89 68.06,-318.44 20.99,-242 -5.57,-198.86 -8.01,-169.54 20.99,-128 69.99,-57.82 169.39,-32.69 239.67,-23.77"/>
<polygon fill="black" stroke="black" points="240.3,-27.22 249.82,-22.57 239.48,-20.27 240.3,-27.22"/>
</g>
<!-- call&#45;sample_analysis&#45;&gt;call&#45;cohort_analysis -->
<g id="edge3" class="edge">
<title>call&#45;sample_analysis&#45;&gt;call&#45;cohort_analysis</title>
<path fill="none" stroke="black" d="M436.4,-265.81C428.78,-245.94 416.16,-212.99 407.25,-189.76"/>
<polygon fill="black" stroke="black" points="410.42,-188.25 403.57,-180.16 403.88,-190.75 410.42,-188.25"/>
</g>
<!-- decl&#45;slivar_small_variant_input_vcf -->
<g id="node10" class="node">
<title>decl&#45;slivar_small_variant_input_vcf</title>
<text text-anchor="middle" x="526.99" y="-86.3" font-family="Times,serif" font-size="14.00">slivar_small_variant_input_vcf</text>
</g>
<!-- call&#45;sample_analysis&#45;&gt;decl&#45;slivar_small_variant_input_vcf -->
<g id="edge7" class="edge">
<title>call&#45;sample_analysis&#45;&gt;decl&#45;slivar_small_variant_input_vcf</title>
<path fill="none" stroke="black" d="M477.98,-265.95C487.49,-259.68 496.85,-251.7 502.99,-242 526.98,-204.12 529.76,-150.49 528.88,-118.39"/>
<polygon fill="black" stroke="black" points="532.37,-118.22 528.46,-108.38 525.38,-118.51 532.37,-118.22"/>
</g>
<!-- decl&#45;slivar_sv_input_vcf -->
<g id="node11" class="node">
<title>decl&#45;slivar_sv_input_vcf</title>
<text text-anchor="middle" x="317.99" y="-86.3" font-family="Times,serif" font-size="14.00">slivar_sv_input_vcf</text>
</g>
<!-- call&#45;sample_analysis&#45;&gt;decl&#45;slivar_sv_input_vcf -->
<g id="edge9" class="edge">
<title>call&#45;sample_analysis&#45;&gt;decl&#45;slivar_sv_input_vcf</title>
<path fill="none" stroke="black" d="M459.47,-265.62C464.87,-258.8 470.2,-250.55 472.99,-242 488.73,-193.84 504.38,-167.77 472.99,-128 470.49,-124.84 438.15,-116.89 403.65,-109.16"/>
<polygon fill="black" stroke="black" points="404.4,-105.74 393.88,-106.99 402.88,-112.58 404.4,-105.74"/>
</g>
<!-- if&#45;L48C3 -->
<!-- scatter&#45;L38C2&#45;sample -->
<!-- call&#45;cohort_analysis&#45;&gt;decl&#45;slivar_small_variant_input_vcf -->
<g id="edge6" class="edge">
<title>call&#45;cohort_analysis&#45;&gt;decl&#45;slivar_small_variant_input_vcf</title>
<path fill="none" stroke="black" d="M428.79,-143.88C446.11,-134.55 467.71,-122.92 486.25,-112.94"/>
<polygon fill="black" stroke="black" points="487.92,-116.01 495.07,-108.19 484.6,-109.85 487.92,-116.01"/>
</g>
<!-- call&#45;cohort_analysis&#45;&gt;decl&#45;slivar_sv_input_vcf -->
<g id="edge8" class="edge">
<title>call&#45;cohort_analysis&#45;&gt;decl&#45;slivar_sv_input_vcf</title>
<path fill="none" stroke="black" d="M377.46,-143.7C367.61,-134.97 355.51,-124.24 344.8,-114.75"/>
<polygon fill="black" stroke="black" points="347.1,-112.12 337.3,-108.1 342.46,-117.36 347.1,-112.12"/>
</g>
<!-- if&#45;L70C3 -->
<!-- if&#45;L59C2 -->
<!-- decl&#45;slivar_small_variant_input_vcf&#45;&gt;call&#45;tertiary_analysis -->
<g id="edge11" class="edge">
<title>decl&#45;slivar_small_variant_input_vcf&#45;&gt;call&#45;tertiary_analysis</title>
<path fill="none" stroke="black" d="M476.13,-71.97C446.8,-62.14 409.74,-49.73 378.87,-39.39"/>
<polygon fill="black" stroke="black" points="379.67,-35.97 369.08,-36.11 377.45,-42.61 379.67,-35.97"/>
</g>
<!-- decl&#45;slivar_sv_input_vcf&#45;&gt;call&#45;tertiary_analysis -->
<g id="edge12" class="edge">
<title>decl&#45;slivar_sv_input_vcf&#45;&gt;call&#45;tertiary_analysis</title>
<path fill="none" stroke="black" d="M317.99,-71.7C317.99,-63.98 317.99,-54.71 317.99,-46.11"/>
<polygon fill="black" stroke="black" points="321.49,-46.1 317.99,-36.1 314.49,-46.1 321.49,-46.1"/>
</g>
</g>
</svg>
