<?xml version="1.0" encoding="UTF-8" standalone="no"?>
<!DOCTYPE svg PUBLIC "-//W3C//DTD SVG 1.1//EN"
 "http://www.w3.org/Graphics/SVG/1.1/DTD/svg11.dtd">
<!-- Generated by graphviz version 7.1.0 (20230121.1956)
 -->
<!-- Pages: 1 -->
<svg width="610pt" height="488pt"
 viewBox="0.00 0.00 610.10 488.00" xmlns="http://www.w3.org/2000/svg" xmlns:xlink="http://www.w3.org/1999/xlink">
<g id="graph0" class="graph" transform="scale(1 1) rotate(0) translate(4 484)">
<polygon fill="white" stroke="none" points="-4,4 -4,-484 606.1,-484 606.1,4 -4,4"/>
<g id="clust3" class="cluster">
<title>cluster&#45;if&#45;L61C2</title>
<polygon fill="none" stroke="black" points="215,-128 215,-242 587,-242 587,-128 215,-128"/>
<text text-anchor="middle" x="401" y="-226.8" font-family="Times,serif" font-size="14.00">if(length(cohort.samples) &gt; 1)</text>
</g>
<g id="clust4" class="cluster">
<title>cluster&#45;if&#45;L72C3</title>
<polygon fill="none" stroke="black" points="352,-136 352,-211 579,-211 579,-136 352,-136"/>
<text text-anchor="middle" x="465.5" y="-195.8" font-family="Times,serif" font-size="14.00">if(cohort.run_de_novo_assembly_trio)</text>
</g>
<g id="clust1" class="cluster">
<title>cluster&#45;scatter&#45;L40C2&#45;sample</title>
<polygon fill="none" stroke="black" points="8,-250 8,-364 354,-364 354,-250 8,-250"/>
<text text-anchor="middle" x="181" y="-348.8" font-family="Times,serif" font-size="14.00">scatter(cohort.samples)</text>
</g>
<g id="clust2" class="cluster">
<title>cluster&#45;if&#45;L50C3</title>
<polygon fill="none" stroke="black" points="26,-258 26,-333 232,-333 232,-258 26,-258"/>
<text text-anchor="middle" x="129" y="-317.8" font-family="Times,serif" font-size="14.00">if(sample.run_de_novo_assembly)</text>
</g>
<!-- call&#45;backend_configuration -->
<g id="node1" class="node">
<title>call&#45;backend_configuration</title>
<polygon fill="none" stroke="black" points="432.5,-474 303.5,-474 303.5,-450 432.5,-450 444.5,-462 432.5,-474"/>
<text text-anchor="middle" x="374" y="-458.3" font-family="Times,serif" font-size="14.00">backend_configuration</text>
</g>
<!-- decl&#45;default_runtime_attributes -->
<g id="node2" class="node">
<title>decl&#45;default_runtime_attributes</title>
<text text-anchor="middle" x="374" y="-386.3" font-family="Times,serif" font-size="14.00">default_runtime_attributes</text>
</g>
<!-- call&#45;backend_configuration&#45;&gt;decl&#45;default_runtime_attributes -->
<g id="edge1" class="edge">
<title>call&#45;backend_configuration&#45;&gt;decl&#45;default_runtime_attributes</title>
<path fill="none" stroke="black" d="M374,-443.7C374,-436.21 374,-427.26 374,-418.88"/>
<polygon fill="black" stroke="black" points="377.5,-419.14 374,-409.14 370.5,-419.14 377.5,-419.14"/>
</g>
<!-- call&#45;de_novo_assembly_sample -->
<g id="node4" class="node">
<title>call&#45;de_novo_assembly_sample</title>
<polygon fill="none" stroke="black" points="209.5,-296 54.5,-296 54.5,-272 209.5,-272 221.5,-284 209.5,-296"/>
<text text-anchor="middle" x="138" y="-280.3" font-family="Times,serif" font-size="14.00">de_novo_assembly_sample</text>
</g>
<!-- call&#45;backend_configuration&#45;&gt;call&#45;de_novo_assembly_sample -->
<g id="edge3" class="edge">
<title>call&#45;backend_configuration&#45;&gt;call&#45;de_novo_assembly_sample</title>
<path fill="none" stroke="black" d="M343.03,-443.62C325.7,-433.62 303.84,-420.59 285,-408 257.8,-389.83 251.31,-384.73 226,-364 204.9,-346.72 182,-326.1 164.85,-310.26"/>
<polygon fill="black" stroke="black" points="167.27,-307.73 157.56,-303.49 162.5,-312.86 167.27,-307.73"/>
</g>
<!-- call&#45;de_novo_assembly_trio -->
<g id="node8" class="node">
<title>call&#45;de_novo_assembly_trio</title>
<polygon fill="none" stroke="black" points="548,-174 414,-174 414,-150 548,-150 560,-162 548,-174"/>
<text text-anchor="middle" x="487" y="-158.3" font-family="Times,serif" font-size="14.00">de_novo_assembly_trio</text>
</g>
<!-- call&#45;backend_configuration&#45;&gt;call&#45;de_novo_assembly_trio -->
<g id="edge8" class="edge">
<title>call&#45;backend_configuration&#45;&gt;call&#45;de_novo_assembly_trio</title>
<path fill="none" stroke="black" d="M421.28,-443.73C437.46,-435.42 453.98,-423.76 464,-408 506.99,-340.36 499.32,-240.28 492.16,-191.64"/>
<polygon fill="black" stroke="black" points="495.64,-191.25 490.62,-181.92 488.73,-192.35 495.64,-191.25"/>
</g>
<!-- call&#45;sample_analysis -->
<g id="node3" class="node">
<title>call&#45;sample_analysis</title>
<polygon fill="none" stroke="black" points="334,-296 240,-296 240,-272 334,-272 346,-284 334,-296"/>
<text text-anchor="middle" x="293" y="-280.3" font-family="Times,serif" font-size="14.00">sample_analysis</text>
</g>
<!-- decl&#45;default_runtime_attributes&#45;&gt;call&#45;sample_analysis -->
<g id="edge2" class="edge">
<title>decl&#45;default_runtime_attributes&#45;&gt;call&#45;sample_analysis</title>
<path fill="none" stroke="black" d="M360.99,-372.29C348.15,-355.81 328.34,-330.37 313.41,-311.2"/>
<polygon fill="black" stroke="black" points="316.36,-309.29 307.45,-303.56 310.84,-313.6 316.36,-309.29"/>
</g>
<!-- decl&#45;default_runtime_attributes&#45;&gt;call&#45;de_novo_assembly_sample -->
<g id="edge4" class="edge">
<title>decl&#45;default_runtime_attributes&#45;&gt;call&#45;de_novo_assembly_sample</title>
<path fill="none" stroke="black" d="M293.51,-383.77C270.87,-380.1 246.77,-374.02 226,-364 199.78,-351.35 175.61,-328.48 159.26,-310.59"/>
<polygon fill="black" stroke="black" points="162.14,-308.56 152.89,-303.4 156.91,-313.21 162.14,-308.56"/>
</g>
<!-- call&#45;cohort_analysis -->
<g id="node7" class="node">
<title>call&#45;cohort_analysis</title>
<polygon fill="none" stroke="black" points="331.5,-174 242.5,-174 242.5,-150 331.5,-150 343.5,-162 331.5,-174"/>
<text text-anchor="middle" x="293" y="-158.3" font-family="Times,serif" font-size="14.00">cohort_analysis</text>
</g>
<!-- decl&#45;default_runtime_attributes&#45;&gt;call&#45;cohort_analysis -->
<g id="edge5" class="edge">
<title>decl&#45;default_runtime_attributes&#45;&gt;call&#45;cohort_analysis</title>
<path fill="none" stroke="black" d="M375.97,-372.37C378.41,-345 379.87,-289.53 358,-250 355.24,-245.02 351.89,-246.16 348,-242 333.06,-226.03 319.03,-205.75 308.87,-189.73"/>
<polygon fill="black" stroke="black" points="312.12,-188.33 303.88,-181.68 306.17,-192.02 312.12,-188.33"/>
</g>
<!-- decl&#45;default_runtime_attributes&#45;&gt;call&#45;de_novo_assembly_trio -->
<g id="edge7" class="edge">
<title>decl&#45;default_runtime_attributes&#45;&gt;call&#45;de_novo_assembly_trio</title>
<path fill="none" stroke="black" d="M382.49,-372.01C401.87,-333.25 449.51,-237.99 473.18,-190.64"/>
<polygon fill="black" stroke="black" points="476.23,-192.36 477.58,-181.85 469.97,-189.23 476.23,-192.36"/>
</g>
<!-- call&#45;tertiary_analysis -->
<g id="node13" class="node">
<title>call&#45;tertiary_analysis</title>
<polygon fill="none" stroke="black" points="371,-30 277,-30 277,-6 371,-6 383,-18 371,-30"/>
<text text-anchor="middle" x="330" y="-14.3" font-family="Times,serif" font-size="14.00">tertiary_analysis</text>
</g>
<!-- decl&#45;default_runtime_attributes&#45;&gt;call&#45;tertiary_analysis -->
<g id="edge15" class="edge">
<title>decl&#45;default_runtime_attributes&#45;&gt;call&#45;tertiary_analysis</title>
<path fill="none" stroke="black" d="M420.95,-372.02C472.04,-350.64 550.74,-308.44 583,-242 605.13,-196.42 610.85,-170.33 583,-128 541.51,-64.94 455.01,-38.21 394.78,-26.98"/>
<polygon fill="black" stroke="black" points="395.42,-23.53 384.97,-25.25 394.21,-30.43 395.42,-23.53"/>
</g>
<!-- call&#45;sample_analysis&#45;&gt;call&#45;cohort_analysis -->
<g id="edge6" class="edge">
<title>call&#45;sample_analysis&#45;&gt;call&#45;cohort_analysis</title>
<path fill="none" stroke="black" d="M293,-265.55C293,-246.27 293,-214.9 293,-191.92"/>
<polygon fill="black" stroke="black" points="296.5,-191.98 293,-181.98 289.5,-191.98 296.5,-191.98"/>
</g>
<!-- decl&#45;slivar_small_variant_input_vcf -->
<g id="node11" class="node">
<title>decl&#45;slivar_small_variant_input_vcf</title>
<text text-anchor="middle" x="157" y="-86.3" font-family="Times,serif" font-size="14.00">slivar_small_variant_input_vcf</text>
</g>
<!-- call&#45;sample_analysis&#45;&gt;decl&#45;slivar_small_variant_input_vcf -->
<g id="edge10" class="edge">
<title>call&#45;sample_analysis&#45;&gt;decl&#45;slivar_small_variant_input_vcf</title>
<path fill="none" stroke="black" d="M267.6,-265.58C258.06,-259.78 246.89,-253.84 236,-250 213.95,-242.23 200.73,-258.33 184,-242 151.27,-210.05 150.3,-153.01 153.21,-118.92"/>
<polygon fill="black" stroke="black" points="156.65,-119.71 154.2,-109.4 149.69,-118.99 156.65,-119.71"/>
</g>
<!-- decl&#45;slivar_sv_input_vcf -->
<g id="node12" class="node">
<title>decl&#45;slivar_sv_input_vcf</title>
<text text-anchor="middle" x="330" y="-86.3" font-family="Times,serif" font-size="14.00">slivar_sv_input_vcf</text>
</g>
<!-- call&#45;sample_analysis&#45;&gt;decl&#45;slivar_sv_input_vcf -->
<g id="edge12" class="edge">
<title>call&#45;sample_analysis&#45;&gt;decl&#45;slivar_sv_input_vcf</title>
<path fill="none" stroke="black" d="M265.8,-265.65C256.56,-260.2 246.04,-254.45 236,-250 225.33,-245.27 217.88,-251.42 211,-242 181.13,-201.08 180.96,-168.8 211,-128 214.32,-123.49 234.44,-116.57 257.22,-109.93"/>
<polygon fill="black" stroke="black" points="258.07,-113.33 266.73,-107.22 256.16,-106.59 258.07,-113.33"/>
</g>
<!-- if&#45;L50C3 -->
<!-- scatter&#45;L40C2&#45;sample -->
<!-- call&#45;cohort_analysis&#45;&gt;decl&#45;slivar_small_variant_input_vcf -->
<g id="edge9" class="edge">
<title>call&#45;cohort_analysis&#45;&gt;decl&#45;slivar_small_variant_input_vcf</title>
<path fill="none" stroke="black" d="M262.57,-143.51C253.45,-138.39 243.37,-132.87 234,-128 224.23,-122.93 213.65,-117.69 203.56,-112.8"/>
<polygon fill="black" stroke="black" points="205.16,-109.69 194.63,-108.51 202.13,-116 205.16,-109.69"/>
</g>
<!-- call&#45;cohort_analysis&#45;&gt;decl&#45;slivar_sv_input_vcf -->
<g id="edge11" class="edge">
<title>call&#45;cohort_analysis&#45;&gt;decl&#45;slivar_sv_input_vcf</title>
<path fill="none" stroke="black" d="M302.15,-143.7C306.28,-135.87 311.27,-126.44 315.87,-117.73"/>
<polygon fill="black" stroke="black" points="318.93,-119.44 320.51,-108.96 312.74,-116.17 318.93,-119.44"/>
</g>
<!-- if&#45;L72C3 -->
<!-- if&#45;L61C2 -->
<!-- decl&#45;slivar_small_variant_input_vcf&#45;&gt;call&#45;tertiary_analysis -->
<g id="edge13" class="edge">
<title>decl&#45;slivar_small_variant_input_vcf&#45;&gt;call&#45;tertiary_analysis</title>
<path fill="none" stroke="black" d="M198.88,-72.05C222.24,-62.6 251.58,-50.73 276.58,-40.61"/>
<polygon fill="black" stroke="black" points="277.64,-43.96 285.6,-36.97 275.02,-37.47 277.64,-43.96"/>
</g>
<!-- decl&#45;slivar_sv_input_vcf&#45;&gt;call&#45;tertiary_analysis -->
<g id="edge14" class="edge">
<title>decl&#45;slivar_sv_input_vcf&#45;&gt;call&#45;tertiary_analysis</title>
<path fill="none" stroke="black" d="M330,-72.05C330,-64.68 330,-55.84 330,-47.51"/>
<polygon fill="black" stroke="black" points="333.5,-47.79 330,-37.79 326.5,-47.79 333.5,-47.79"/>
</g>
</g>
</svg>
