<?xml version="1.0" encoding="UTF-8" standalone="no"?>
<!DOCTYPE svg PUBLIC "-//W3C//DTD SVG 1.1//EN"
 "http://www.w3.org/Graphics/SVG/1.1/DTD/svg11.dtd">
<!-- Generated by graphviz version 2.43.0 (0)
 -->
<!-- Title: %3 Pages: 1 -->
<svg width="741pt" height="488pt"
 viewBox="0.00 0.00 741.44 488.00" xmlns="http://www.w3.org/2000/svg" xmlns:xlink="http://www.w3.org/1999/xlink">
<g id="graph0" class="graph" transform="scale(1 1) rotate(0) translate(4 484)">
<title>%3</title>
<polygon fill="white" stroke="transparent" points="-4,4 -4,-484 737.44,-484 737.44,4 -4,4"/>
<g id="clust1" class="cluster">
<title>cluster&#45;scatter&#45;L41C2&#45;sample</title>
<polygon fill="none" stroke="black" points="8,-250 8,-364 429,-364 429,-250 8,-250"/>
<text text-anchor="middle" x="218.5" y="-348.8" font-family="Times,serif" font-size="14.00">scatter(cohort.samples)</text>
</g>
<g id="clust2" class="cluster">
<title>cluster&#45;if&#45;L51C3</title>
<polygon fill="none" stroke="black" points="26,-258 26,-333 281,-333 281,-258 26,-258"/>
<text text-anchor="middle" x="153.5" y="-317.8" font-family="Times,serif" font-size="14.00">if(sample.run_de_novo_assembly)</text>
</g>
<g id="clust3" class="cluster">
<title>cluster&#45;if&#45;L63C2</title>
<polygon fill="none" stroke="black" points="264,-128 264,-242 717,-242 717,-128 264,-128"/>
<text text-anchor="middle" x="490.5" y="-226.8" font-family="Times,serif" font-size="14.00">if(length(cohort.samples) &gt; 1)</text>
</g>
<g id="clust4" class="cluster">
<title>cluster&#45;if&#45;L74C3</title>
<polygon fill="none" stroke="black" points="427,-136 427,-211 709,-211 709,-136 427,-136"/>
<text text-anchor="middle" x="568" y="-195.8" font-family="Times,serif" font-size="14.00">if(cohort.run_de_novo_assembly_trio)</text>
</g>
<!-- call&#45;backend_configuration -->
<g id="node1" class="node">
<title>call&#45;backend_configuration</title>
<polygon fill="none" stroke="black" points="525.5,-474 360.5,-474 360.5,-450 525.5,-450 537.5,-462 525.5,-474"/>
<text text-anchor="middle" x="449" y="-458.3" font-family="Times,serif" font-size="14.00">backend_configuration</text>
</g>
<!-- decl&#45;default_runtime_attributes -->
<g id="node2" class="node">
<title>decl&#45;default_runtime_attributes</title>
<text text-anchor="middle" x="449" y="-386.3" font-family="Times,serif" font-size="14.00">default_runtime_attributes</text>
</g>
<!-- call&#45;backend_configuration&#45;&gt;decl&#45;default_runtime_attributes -->
<g id="edge1" class="edge">
<title>call&#45;backend_configuration&#45;&gt;decl&#45;default_runtime_attributes</title>
<path fill="none" stroke="black" d="M449,-443.7C449,-435.98 449,-426.71 449,-418.11"/>
<polygon fill="black" stroke="black" points="452.5,-418.1 449,-408.1 445.5,-418.1 452.5,-418.1"/>
</g>
<!-- call&#45;de_novo_assembly_sample -->
<g id="node4" class="node">
<title>call&#45;de_novo_assembly_sample</title>
<polygon fill="none" stroke="black" points="259,-296 65,-296 65,-272 259,-272 271,-284 259,-296"/>
<text text-anchor="middle" x="168" y="-280.3" font-family="Times,serif" font-size="14.00">de_novo_assembly_sample</text>
</g>
<!-- call&#45;backend_configuration&#45;&gt;call&#45;de_novo_assembly_sample -->
<g id="edge4" class="edge">
<title>call&#45;backend_configuration&#45;&gt;call&#45;de_novo_assembly_sample</title>
<path fill="none" stroke="black" d="M407.79,-443.89C385.96,-434.28 358.97,-421.51 336,-408 284.37,-377.63 229.2,-335.05 196.7,-308.78"/>
<polygon fill="black" stroke="black" points="198.51,-305.75 188.54,-302.15 194.09,-311.18 198.51,-305.75"/>
</g>
<!-- call&#45;de_novo_assembly_trio -->
<g id="node8" class="node">
<title>call&#45;de_novo_assembly_trio</title>
<polygon fill="none" stroke="black" points="672,-174 504,-174 504,-150 672,-150 684,-162 672,-174"/>
<text text-anchor="middle" x="594" y="-158.3" font-family="Times,serif" font-size="14.00">de_novo_assembly_trio</text>
</g>
<!-- call&#45;backend_configuration&#45;&gt;call&#45;de_novo_assembly_trio -->
<g id="edge8" class="edge">
<title>call&#45;backend_configuration&#45;&gt;call&#45;de_novo_assembly_trio</title>
<path fill="none" stroke="black" d="M513.94,-443.97C532.51,-435.99 550.96,-424.48 563,-408 611.07,-342.17 604.84,-238.99 598.45,-190.25"/>
<polygon fill="black" stroke="black" points="601.89,-189.57 597.02,-180.16 594.96,-190.55 601.89,-189.57"/>
</g>
<!-- call&#45;sample_analysis -->
<g id="node3" class="node">
<title>call&#45;sample_analysis</title>
<polygon fill="none" stroke="black" points="409,-296 289,-296 289,-272 409,-272 421,-284 409,-296"/>
<text text-anchor="middle" x="355" y="-280.3" font-family="Times,serif" font-size="14.00">sample_analysis</text>
</g>
<!-- decl&#45;default_runtime_attributes&#45;&gt;call&#45;sample_analysis -->
<g id="edge2" class="edge">
<title>decl&#45;default_runtime_attributes&#45;&gt;call&#45;sample_analysis</title>
<path fill="none" stroke="black" d="M433.48,-371.83C418.17,-354.89 394.62,-328.83 377.31,-309.68"/>
<polygon fill="black" stroke="black" points="379.85,-307.27 370.55,-302.2 374.65,-311.96 379.85,-307.27"/>
</g>
<!-- decl&#45;default_runtime_attributes&#45;&gt;call&#45;de_novo_assembly_sample -->
<g id="edge3" class="edge">
<title>decl&#45;default_runtime_attributes&#45;&gt;call&#45;de_novo_assembly_sample</title>
<path fill="none" stroke="black" d="M344.18,-382.43C320.83,-378.66 296.6,-372.86 275,-364 243.69,-351.16 213.17,-327.13 192.78,-308.93"/>
<polygon fill="black" stroke="black" points="194.97,-306.19 185.23,-302.03 190.25,-311.36 194.97,-306.19"/>
</g>
<!-- call&#45;cohort_analysis -->
<g id="node7" class="node">
<title>call&#45;cohort_analysis</title>
<polygon fill="none" stroke="black" points="406.5,-174 291.5,-174 291.5,-150 406.5,-150 418.5,-162 406.5,-174"/>
<text text-anchor="middle" x="355" y="-158.3" font-family="Times,serif" font-size="14.00">cohort_analysis</text>
</g>
<!-- decl&#45;default_runtime_attributes&#45;&gt;call&#45;cohort_analysis -->
<g id="edge5" class="edge">
<title>decl&#45;default_runtime_attributes&#45;&gt;call&#45;cohort_analysis</title>
<path fill="none" stroke="black" d="M451.01,-371.93C453.42,-344.4 454.75,-289.32 433,-250 430.24,-245.02 427.1,-245.95 423,-242 405.48,-225.1 387.59,-204.14 374.56,-188.06"/>
<polygon fill="black" stroke="black" points="377.2,-185.76 368.22,-180.14 371.74,-190.13 377.2,-185.76"/>
</g>
<!-- decl&#45;default_runtime_attributes&#45;&gt;call&#45;de_novo_assembly_trio -->
<g id="edge7" class="edge">
<title>decl&#45;default_runtime_attributes&#45;&gt;call&#45;de_novo_assembly_trio</title>
<path fill="none" stroke="black" d="M460.14,-371.64C485.5,-332.11 547.68,-235.2 577.51,-188.7"/>
<polygon fill="black" stroke="black" points="580.57,-190.42 583.02,-180.11 574.68,-186.63 580.57,-190.42"/>
</g>
<!-- call&#45;tertiary_analysis -->
<g id="node13" class="node">
<title>call&#45;tertiary_analysis</title>
<polygon fill="none" stroke="black" points="471,-30 347,-30 347,-6 471,-6 483,-18 471,-30"/>
<text text-anchor="middle" x="415" y="-14.3" font-family="Times,serif" font-size="14.00">tertiary_analysis</text>
</g>
<!-- decl&#45;default_runtime_attributes&#45;&gt;call&#45;tertiary_analysis -->
<g id="edge13" class="edge">
<title>decl&#45;default_runtime_attributes&#45;&gt;call&#45;tertiary_analysis</title>
<path fill="none" stroke="black" d="M520.08,-371.92C583.73,-352.37 673.02,-313.41 713,-242 737.75,-197.79 742.03,-169.53 713,-128 663.74,-57.53 563.78,-32.47 493.25,-23.65"/>
<polygon fill="black" stroke="black" points="493.41,-20.14 483.07,-22.46 492.59,-27.09 493.41,-20.14"/>
</g>
<!-- call&#45;sample_analysis&#45;&gt;call&#45;cohort_analysis -->
<g id="edge6" class="edge">
<title>call&#45;sample_analysis&#45;&gt;call&#45;cohort_analysis</title>
<path fill="none" stroke="black" d="M355,-265.81C355,-246.11 355,-213.58 355,-190.39"/>
<polygon fill="black" stroke="black" points="358.5,-190.16 355,-180.16 351.5,-190.16 358.5,-190.16"/>
</g>
<!-- decl&#45;slivar_small_variant_input_vcf -->
<g id="node11" class="node">
<title>decl&#45;slivar_small_variant_input_vcf</title>
<text text-anchor="middle" x="206" y="-86.3" font-family="Times,serif" font-size="14.00">slivar_small_variant_input_vcf</text>
</g>
<!-- call&#45;sample_analysis&#45;&gt;decl&#45;slivar_small_variant_input_vcf -->
<g id="edge9" class="edge">
<title>call&#45;sample_analysis&#45;&gt;decl&#45;slivar_small_variant_input_vcf</title>
<path fill="none" stroke="black" d="M323.71,-265.89C311.88,-260.06 298.11,-254.01 285,-250 262.64,-243.17 249.73,-258.33 233,-242 200.15,-209.94 199.3,-152.61 202.24,-118.56"/>
<polygon fill="black" stroke="black" points="205.75,-118.7 203.3,-108.39 198.79,-117.98 205.75,-118.7"/>
</g>
<!-- decl&#45;slivar_sv_input_vcf -->
<g id="node12" class="node">
<title>decl&#45;slivar_sv_input_vcf</title>
<text text-anchor="middle" x="415" y="-86.3" font-family="Times,serif" font-size="14.00">slivar_sv_input_vcf</text>
</g>
<!-- call&#45;sample_analysis&#45;&gt;decl&#45;slivar_sv_input_vcf -->
<g id="edge11" class="edge">
<title>call&#45;sample_analysis&#45;&gt;decl&#45;slivar_sv_input_vcf</title>
<path fill="none" stroke="black" d="M321.21,-265.98C309.85,-260.55 297,-254.73 285,-250 274.15,-245.73 266.88,-251.42 260,-242 230.13,-201.08 228.61,-167.77 260,-128 262.5,-124.84 294.84,-116.89 329.35,-109.16"/>
<polygon fill="black" stroke="black" points="330.11,-112.58 339.11,-106.99 328.59,-105.74 330.11,-112.58"/>
</g>
<!-- if&#45;L51C3 -->
<!-- scatter&#45;L41C2&#45;sample -->
<!-- call&#45;cohort_analysis&#45;&gt;decl&#45;slivar_small_variant_input_vcf -->
<g id="edge10" class="edge">
<title>call&#45;cohort_analysis&#45;&gt;decl&#45;slivar_small_variant_input_vcf</title>
<path fill="none" stroke="black" d="M318.55,-143.88C298.36,-134.39 273.08,-122.51 251.59,-112.42"/>
<polygon fill="black" stroke="black" points="252.87,-109.15 242.33,-108.07 249.89,-115.49 252.87,-109.15"/>
</g>
<!-- call&#45;cohort_analysis&#45;&gt;decl&#45;slivar_sv_input_vcf -->
<g id="edge12" class="edge">
<title>call&#45;cohort_analysis&#45;&gt;decl&#45;slivar_sv_input_vcf</title>
<path fill="none" stroke="black" d="M369.83,-143.7C377.02,-135.3 385.8,-125.07 393.69,-115.86"/>
<polygon fill="black" stroke="black" points="396.49,-117.97 400.34,-108.1 391.17,-113.42 396.49,-117.97"/>
</g>
<!-- if&#45;L74C3 -->
<!-- if&#45;L63C2 -->
<!-- decl&#45;slivar_small_variant_input_vcf&#45;&gt;call&#45;tertiary_analysis -->
<g id="edge15" class="edge">
<title>decl&#45;slivar_small_variant_input_vcf&#45;&gt;call&#45;tertiary_analysis</title>
<path fill="none" stroke="black" d="M256.86,-71.97C286.19,-62.14 323.25,-49.73 354.12,-39.39"/>
<polygon fill="black" stroke="black" points="355.54,-42.61 363.91,-36.11 353.32,-35.97 355.54,-42.61"/>
</g>
<!-- decl&#45;slivar_sv_input_vcf&#45;&gt;call&#45;tertiary_analysis -->
<g id="edge14" class="edge">
<title>decl&#45;slivar_sv_input_vcf&#45;&gt;call&#45;tertiary_analysis</title>
<path fill="none" stroke="black" d="M415,-71.7C415,-63.98 415,-54.71 415,-46.11"/>
<polygon fill="black" stroke="black" points="418.5,-46.1 415,-36.1 411.5,-46.1 418.5,-46.1"/>
</g>
</g>
</svg>
