<?xml version="1.0" encoding="UTF-8" standalone="no"?>
<!DOCTYPE svg PUBLIC "-//W3C//DTD SVG 1.1//EN"
 "http://www.w3.org/Graphics/SVG/1.1/DTD/svg11.dtd">
<!-- Generated by graphviz version 2.43.0 (0)
 -->
<!-- Title: %3 Pages: 1 -->
<svg width="741pt" height="523pt"
 viewBox="0.00 0.00 740.90 523.00" xmlns="http://www.w3.org/2000/svg" xmlns:xlink="http://www.w3.org/1999/xlink">
<g id="graph0" class="graph" transform="scale(1 1) rotate(0) translate(4 519)">
<title>%3</title>
<polygon fill="white" stroke="transparent" points="-4,4 -4,-519 736.9,-519 736.9,4 -4,4"/>
<g id="clust1" class="cluster">
<title>cluster&#45;scatter&#45;L42C2&#45;sample</title>
<polygon fill="none" stroke="black" points="8,-285 8,-399 429,-399 429,-285 8,-285"/>
<text text-anchor="middle" x="218.5" y="-383.8" font-family="Times,serif" font-size="14.00">scatter(cohort.samples)</text>
</g>
<g id="clust2" class="cluster">
<title>cluster&#45;if&#45;L52C3</title>
<polygon fill="none" stroke="black" points="26,-293 26,-368 281,-368 281,-293 26,-293"/>
<text text-anchor="middle" x="153.5" y="-352.8" font-family="Times,serif" font-size="14.00">if(sample.run_de_novo_assembly)</text>
</g>
<g id="clust3" class="cluster">
<title>cluster&#45;if&#45;L64C2</title>
<polygon fill="none" stroke="black" points="264,-163 264,-277 717,-277 717,-163 264,-163"/>
<text text-anchor="middle" x="490.5" y="-261.8" font-family="Times,serif" font-size="14.00">if(length(cohort.samples) &gt; 1)</text>
</g>
<g id="clust4" class="cluster">
<title>cluster&#45;if&#45;L75C3</title>
<polygon fill="none" stroke="black" points="427,-171 427,-246 709,-246 709,-171 427,-171"/>
<text text-anchor="middle" x="568" y="-230.8" font-family="Times,serif" font-size="14.00">if(cohort.run_de_novo_assembly_trio)</text>
</g>
<g id="clust5" class="cluster">
<title>cluster&#45;if&#45;L87C2</title>
<polygon fill="none" stroke="black" points="103,-8 103,-155 538,-155 538,-8 103,-8"/>
<text text-anchor="middle" x="320.5" y="-139.8" font-family="Times,serif" font-size="14.00">if(run_tertiary_analysis)</text>
</g>
<!-- call&#45;backend_configuration -->
<g id="node1" class="node">
<title>call&#45;backend_configuration</title>
<polygon fill="none" stroke="black" points="525.5,-509 360.5,-509 360.5,-485 525.5,-485 537.5,-497 525.5,-509"/>
<text text-anchor="middle" x="449" y="-493.3" font-family="Times,serif" font-size="14.00">backend_configuration</text>
</g>
<!-- decl&#45;default_runtime_attributes -->
<g id="node2" class="node">
<title>decl&#45;default_runtime_attributes</title>
<text text-anchor="middle" x="449" y="-421.3" font-family="Times,serif" font-size="14.00">default_runtime_attributes</text>
</g>
<!-- call&#45;backend_configuration&#45;&gt;decl&#45;default_runtime_attributes -->
<g id="edge1" class="edge">
<title>call&#45;backend_configuration&#45;&gt;decl&#45;default_runtime_attributes</title>
<path fill="none" stroke="black" d="M449,-478.7C449,-470.98 449,-461.71 449,-453.11"/>
<polygon fill="black" stroke="black" points="452.5,-453.1 449,-443.1 445.5,-453.1 452.5,-453.1"/>
</g>
<!-- call&#45;de_novo_assembly_sample -->
<g id="node4" class="node">
<title>call&#45;de_novo_assembly_sample</title>
<polygon fill="none" stroke="black" points="259,-331 65,-331 65,-307 259,-307 271,-319 259,-331"/>
<text text-anchor="middle" x="168" y="-315.3" font-family="Times,serif" font-size="14.00">de_novo_assembly_sample</text>
</g>
<!-- call&#45;backend_configuration&#45;&gt;call&#45;de_novo_assembly_sample -->
<g id="edge4" class="edge">
<title>call&#45;backend_configuration&#45;&gt;call&#45;de_novo_assembly_sample</title>
<path fill="none" stroke="black" d="M407.79,-478.89C385.96,-469.28 358.97,-456.51 336,-443 284.37,-412.63 229.2,-370.05 196.7,-343.78"/>
<polygon fill="black" stroke="black" points="198.51,-340.75 188.54,-337.15 194.09,-346.18 198.51,-340.75"/>
</g>
<!-- call&#45;de_novo_assembly_trio -->
<g id="node8" class="node">
<title>call&#45;de_novo_assembly_trio</title>
<polygon fill="none" stroke="black" points="672,-209 504,-209 504,-185 672,-185 684,-197 672,-209"/>
<text text-anchor="middle" x="594" y="-193.3" font-family="Times,serif" font-size="14.00">de_novo_assembly_trio</text>
</g>
<!-- call&#45;backend_configuration&#45;&gt;call&#45;de_novo_assembly_trio -->
<g id="edge8" class="edge">
<title>call&#45;backend_configuration&#45;&gt;call&#45;de_novo_assembly_trio</title>
<path fill="none" stroke="black" d="M513.94,-478.97C532.51,-470.99 550.96,-459.48 563,-443 611.07,-377.17 604.84,-273.99 598.45,-225.25"/>
<polygon fill="black" stroke="black" points="601.89,-224.57 597.02,-215.16 594.96,-225.55 601.89,-224.57"/>
</g>
<!-- call&#45;sample_analysis -->
<g id="node3" class="node">
<title>call&#45;sample_analysis</title>
<polygon fill="none" stroke="black" points="409,-331 289,-331 289,-307 409,-307 421,-319 409,-331"/>
<text text-anchor="middle" x="355" y="-315.3" font-family="Times,serif" font-size="14.00">sample_analysis</text>
</g>
<!-- decl&#45;default_runtime_attributes&#45;&gt;call&#45;sample_analysis -->
<g id="edge2" class="edge">
<title>decl&#45;default_runtime_attributes&#45;&gt;call&#45;sample_analysis</title>
<path fill="none" stroke="black" d="M433.48,-406.83C418.17,-389.89 394.62,-363.83 377.31,-344.68"/>
<polygon fill="black" stroke="black" points="379.85,-342.27 370.55,-337.2 374.65,-346.96 379.85,-342.27"/>
</g>
<!-- decl&#45;default_runtime_attributes&#45;&gt;call&#45;de_novo_assembly_sample -->
<g id="edge3" class="edge">
<title>decl&#45;default_runtime_attributes&#45;&gt;call&#45;de_novo_assembly_sample</title>
<path fill="none" stroke="black" d="M344.18,-417.43C320.83,-413.66 296.6,-407.86 275,-399 243.69,-386.16 213.17,-362.13 192.78,-343.93"/>
<polygon fill="black" stroke="black" points="194.97,-341.19 185.23,-337.03 190.25,-346.36 194.97,-341.19"/>
</g>
<!-- call&#45;cohort_analysis -->
<g id="node7" class="node">
<title>call&#45;cohort_analysis</title>
<polygon fill="none" stroke="black" points="406.5,-209 291.5,-209 291.5,-185 406.5,-185 418.5,-197 406.5,-209"/>
<text text-anchor="middle" x="355" y="-193.3" font-family="Times,serif" font-size="14.00">cohort_analysis</text>
</g>
<!-- decl&#45;default_runtime_attributes&#45;&gt;call&#45;cohort_analysis -->
<g id="edge6" class="edge">
<title>decl&#45;default_runtime_attributes&#45;&gt;call&#45;cohort_analysis</title>
<path fill="none" stroke="black" d="M451.01,-406.93C453.42,-379.4 454.75,-324.32 433,-285 430.24,-280.02 427.1,-280.95 423,-277 405.48,-260.1 387.59,-239.14 374.56,-223.06"/>
<polygon fill="black" stroke="black" points="377.2,-220.76 368.22,-215.14 371.74,-225.13 377.2,-220.76"/>
</g>
<!-- decl&#45;default_runtime_attributes&#45;&gt;call&#45;de_novo_assembly_trio -->
<g id="edge7" class="edge">
<title>decl&#45;default_runtime_attributes&#45;&gt;call&#45;de_novo_assembly_trio</title>
<path fill="none" stroke="black" d="M460.14,-406.64C485.5,-367.11 547.68,-270.2 577.51,-223.7"/>
<polygon fill="black" stroke="black" points="580.57,-225.42 583.02,-215.11 574.68,-221.63 580.57,-225.42"/>
</g>
<!-- call&#45;tertiary_analysis -->
<g id="node13" class="node">
<title>call&#45;tertiary_analysis</title>
<polygon fill="none" stroke="black" points="471,-46 347,-46 347,-22 471,-22 483,-34 471,-46"/>
<text text-anchor="middle" x="415" y="-30.3" font-family="Times,serif" font-size="14.00">tertiary_analysis</text>
</g>
<!-- decl&#45;default_runtime_attributes&#45;&gt;call&#45;tertiary_analysis -->
<g id="edge13" class="edge">
<title>decl&#45;default_runtime_attributes&#45;&gt;call&#45;tertiary_analysis</title>
<path fill="none" stroke="black" d="M520.08,-406.92C583.73,-387.37 673.02,-348.41 713,-277 737.75,-232.79 740.8,-205.36 713,-163 664.7,-89.42 564.28,-57.97 493.4,-44.64"/>
<polygon fill="black" stroke="black" points="493.63,-41.13 483.16,-42.8 492.39,-48.01 493.63,-41.13"/>
</g>
<!-- call&#45;sample_analysis&#45;&gt;call&#45;cohort_analysis -->
<g id="edge5" class="edge">
<title>call&#45;sample_analysis&#45;&gt;call&#45;cohort_analysis</title>
<path fill="none" stroke="black" d="M355,-300.81C355,-281.11 355,-248.58 355,-225.39"/>
<polygon fill="black" stroke="black" points="358.5,-225.16 355,-215.16 351.5,-225.16 358.5,-225.16"/>
</g>
<!-- decl&#45;slivar_small_variant_input_vcf -->
<g id="node11" class="node">
<title>decl&#45;slivar_small_variant_input_vcf</title>
<text text-anchor="middle" x="415" y="-102.3" font-family="Times,serif" font-size="14.00">slivar_small_variant_input_vcf</text>
</g>
<!-- call&#45;sample_analysis&#45;&gt;decl&#45;slivar_small_variant_input_vcf -->
<g id="edge9" class="edge">
<title>call&#45;sample_analysis&#45;&gt;decl&#45;slivar_small_variant_input_vcf</title>
<path fill="none" stroke="black" d="M321.21,-300.98C309.85,-295.55 297,-289.73 285,-285 274.15,-280.73 266.88,-286.42 260,-277 230.13,-236.08 228.97,-203.05 260,-163 268.71,-151.75 277.45,-159.35 291,-155 315.71,-147.06 342.64,-136.83 365.06,-127.86"/>
<polygon fill="black" stroke="black" points="366.41,-131.09 374.38,-124.11 363.8,-124.6 366.41,-131.09"/>
</g>
<!-- decl&#45;slivar_sv_input_vcf -->
<g id="node12" class="node">
<title>decl&#45;slivar_sv_input_vcf</title>
<text text-anchor="middle" x="206" y="-102.3" font-family="Times,serif" font-size="14.00">slivar_sv_input_vcf</text>
</g>
<!-- call&#45;sample_analysis&#45;&gt;decl&#45;slivar_sv_input_vcf -->
<g id="edge11" class="edge">
<title>call&#45;sample_analysis&#45;&gt;decl&#45;slivar_sv_input_vcf</title>
<path fill="none" stroke="black" d="M323.71,-300.89C311.88,-295.06 298.11,-289.01 285,-285 262.64,-278.17 249.57,-293.49 233,-277 195.31,-239.49 196.97,-172 201.49,-134.32"/>
<polygon fill="black" stroke="black" points="205,-134.47 202.87,-124.09 198.06,-133.53 205,-134.47"/>
</g>
<!-- if&#45;L52C3 -->
<!-- scatter&#45;L42C2&#45;sample -->
<!-- call&#45;cohort_analysis&#45;&gt;decl&#45;slivar_small_variant_input_vcf -->
<g id="edge10" class="edge">
<title>call&#45;cohort_analysis&#45;&gt;decl&#45;slivar_small_variant_input_vcf</title>
<path fill="none" stroke="black" d="M366.57,-178.84C375.37,-165.79 387.62,-147.62 397.6,-132.81"/>
<polygon fill="black" stroke="black" points="400.78,-134.36 403.47,-124.11 394.97,-130.44 400.78,-134.36"/>
</g>
<!-- call&#45;cohort_analysis&#45;&gt;decl&#45;slivar_sv_input_vcf -->
<g id="edge12" class="edge">
<title>call&#45;cohort_analysis&#45;&gt;decl&#45;slivar_sv_input_vcf</title>
<path fill="none" stroke="black" d="M326.27,-178.84C302.67,-164.74 269.06,-144.67 243.37,-129.32"/>
<polygon fill="black" stroke="black" points="245.02,-126.23 234.64,-124.11 241.43,-132.24 245.02,-126.23"/>
</g>
<!-- if&#45;L75C3 -->
<!-- if&#45;L64C2 -->
<!-- decl&#45;slivar_small_variant_input_vcf&#45;&gt;call&#45;tertiary_analysis -->
<g id="edge15" class="edge">
<title>decl&#45;slivar_small_variant_input_vcf&#45;&gt;call&#45;tertiary_analysis</title>
<path fill="none" stroke="black" d="M415,-87.7C415,-79.98 415,-70.71 415,-62.11"/>
<polygon fill="black" stroke="black" points="418.5,-62.1 415,-52.1 411.5,-62.1 418.5,-62.1"/>
</g>
<!-- decl&#45;slivar_sv_input_vcf&#45;&gt;call&#45;tertiary_analysis -->
<g id="edge14" class="edge">
<title>decl&#45;slivar_sv_input_vcf&#45;&gt;call&#45;tertiary_analysis</title>
<path fill="none" stroke="black" d="M256.86,-87.97C286.19,-78.14 323.25,-65.73 354.12,-55.39"/>
<polygon fill="black" stroke="black" points="355.54,-58.61 363.91,-52.11 353.32,-51.97 355.54,-58.61"/>
</g>
<!-- if&#45;L87C2 -->
</g>
</svg>
