<?xml version="1.0" encoding="UTF-8" standalone="no"?>
<!DOCTYPE svg PUBLIC "-//W3C//DTD SVG 1.1//EN"
 "http://www.w3.org/Graphics/SVG/1.1/DTD/svg11.dtd">
<!-- Generated by graphviz version 2.43.0 (0)
 -->
<!-- Title: %3 Pages: 1 -->
<svg width="493pt" height="445pt"
 viewBox="0.00 0.00 493.19 445.00" xmlns="http://www.w3.org/2000/svg" xmlns:xlink="http://www.w3.org/1999/xlink">
<g id="graph0" class="graph" transform="scale(1 1) rotate(0) translate(4 441)">
<title>%3</title>
<polygon fill="white" stroke="transparent" points="-4,4 -4,-441 489.19,-441 489.19,4 -4,4"/>
<g id="clust1" class="cluster">
<title>cluster&#45;scatter&#45;L40C2&#45;sample</title>
<polygon fill="none" stroke="black" points="249,-246 249,-321 435,-321 435,-246 249,-246"/>
<text text-anchor="middle" x="342" y="-305.8" font-family="Times,serif" font-size="14.00">scatter(cohort.samples)</text>
</g>
<g id="clust2" class="cluster">
<title>cluster&#45;if&#45;L51C2</title>
<polygon fill="none" stroke="black" points="71,-163 71,-238 303,-238 303,-163 71,-163"/>
<text text-anchor="middle" x="187" y="-222.8" font-family="Times,serif" font-size="14.00">if(length(cohort.samples) &gt; 1)</text>
</g>
<g id="clust3" class="cluster">
<title>cluster&#45;if&#45;L63C2</title>
<polygon fill="none" stroke="black" points="8,-8 8,-155 444,-155 444,-8 8,-8"/>
<text text-anchor="middle" x="226" y="-139.8" font-family="Times,serif" font-size="14.00">if(run_tertiary_analysis)</text>
</g>
<!-- call&#45;backend_configuration -->
<g id="node1" class="node">
<title>call&#45;backend_configuration</title>
<polygon fill="none" stroke="black" points="420.5,-431 255.5,-431 255.5,-407 420.5,-407 432.5,-419 420.5,-431"/>
<text text-anchor="middle" x="344" y="-415.3" font-family="Times,serif" font-size="14.00">backend_configuration</text>
</g>
<!-- decl&#45;default_runtime_attributes -->
<g id="node2" class="node">
<title>decl&#45;default_runtime_attributes</title>
<text text-anchor="middle" x="344" y="-343.3" font-family="Times,serif" font-size="14.00">default_runtime_attributes</text>
</g>
<!-- call&#45;backend_configuration&#45;&gt;decl&#45;default_runtime_attributes -->
<g id="edge1" class="edge">
<title>call&#45;backend_configuration&#45;&gt;decl&#45;default_runtime_attributes</title>
<path fill="none" stroke="black" d="M344,-400.7C344,-392.98 344,-383.71 344,-375.11"/>
<polygon fill="black" stroke="black" points="347.5,-375.1 344,-365.1 340.5,-375.1 347.5,-375.1"/>
</g>
<!-- call&#45;sample_analysis -->
<g id="node3" class="node">
<title>call&#45;sample_analysis</title>
<polygon fill="none" stroke="black" points="398,-284 278,-284 278,-260 398,-260 410,-272 398,-284"/>
<text text-anchor="middle" x="344" y="-268.3" font-family="Times,serif" font-size="14.00">sample_analysis</text>
</g>
<!-- decl&#45;default_runtime_attributes&#45;&gt;call&#45;sample_analysis -->
<g id="edge2" class="edge">
<title>decl&#45;default_runtime_attributes&#45;&gt;call&#45;sample_analysis</title>
<path fill="none" stroke="black" d="M344,-328.7C344,-320.25 344,-309.87 344,-300.37"/>
<polygon fill="black" stroke="black" points="347.5,-300.18 344,-290.18 340.5,-300.18 347.5,-300.18"/>
</g>
<!-- call&#45;cohort_analysis -->
<g id="node5" class="node">
<title>call&#45;cohort_analysis</title>
<polygon fill="none" stroke="black" points="281.5,-201 166.5,-201 166.5,-177 281.5,-177 293.5,-189 281.5,-201"/>
<text text-anchor="middle" x="230" y="-185.3" font-family="Times,serif" font-size="14.00">cohort_analysis</text>
</g>
<!-- decl&#45;default_runtime_attributes&#45;&gt;call&#45;cohort_analysis -->
<g id="edge4" class="edge">
<title>decl&#45;default_runtime_attributes&#45;&gt;call&#45;cohort_analysis</title>
<path fill="none" stroke="black" d="M257.65,-328.84C251.97,-326.48 247.51,-323.87 245,-321 220.17,-292.61 221.09,-246.5 224.89,-217.24"/>
<polygon fill="black" stroke="black" points="228.37,-217.69 226.39,-207.28 221.44,-216.66 228.37,-217.69"/>
</g>
<!-- call&#45;tertiary_analysis -->
<g id="node9" class="node">
<title>call&#45;tertiary_analysis</title>
<polygon fill="none" stroke="black" points="416,-46 292,-46 292,-22 416,-22 428,-34 416,-46"/>
<text text-anchor="middle" x="360" y="-30.3" font-family="Times,serif" font-size="14.00">tertiary_analysis</text>
</g>
<!-- decl&#45;default_runtime_attributes&#45;&gt;call&#45;tertiary_analysis -->
<g id="edge10" class="edge">
<title>decl&#45;default_runtime_attributes&#45;&gt;call&#45;tertiary_analysis</title>
<path fill="none" stroke="black" d="M426.72,-328.99C432.31,-326.59 436.66,-323.93 439,-321 503.72,-240.11 495.27,-178.58 445,-88 437.87,-75.15 426.19,-65.01 413.73,-57.19"/>
<polygon fill="black" stroke="black" points="415.44,-54.13 405.03,-52.14 411.92,-60.19 415.44,-54.13"/>
</g>
<!-- call&#45;sample_analysis&#45;&gt;call&#45;cohort_analysis -->
<g id="edge3" class="edge">
<title>call&#45;sample_analysis&#45;&gt;call&#45;cohort_analysis</title>
<path fill="none" stroke="black" d="M319.82,-253.82C303.2,-242.01 280.92,-226.18 262.71,-213.24"/>
<polygon fill="black" stroke="black" points="264.32,-210.09 254.14,-207.15 260.27,-215.8 264.32,-210.09"/>
</g>
<!-- decl&#45;slivar_small_variant_input_vcf -->
<g id="node7" class="node">
<title>decl&#45;slivar_small_variant_input_vcf</title>
<text text-anchor="middle" x="151" y="-102.3" font-family="Times,serif" font-size="14.00">slivar_small_variant_input_vcf</text>
</g>
<!-- call&#45;sample_analysis&#45;&gt;decl&#45;slivar_small_variant_input_vcf -->
<g id="edge5" class="edge">
<title>call&#45;sample_analysis&#45;&gt;decl&#45;slivar_small_variant_input_vcf</title>
<path fill="none" stroke="black" d="M343,-253.7C340.67,-229.81 332.89,-186.96 307,-163 296.56,-153.34 289.55,-159.34 276,-155 251.11,-147.04 223.97,-136.81 201.35,-127.84"/>
<polygon fill="black" stroke="black" points="202.55,-124.55 191.96,-124.09 199.95,-131.05 202.55,-124.55"/>
</g>
<!-- decl&#45;slivar_sv_input_vcf -->
<g id="node8" class="node">
<title>decl&#45;slivar_sv_input_vcf</title>
<text text-anchor="middle" x="360" y="-102.3" font-family="Times,serif" font-size="14.00">slivar_sv_input_vcf</text>
</g>
<!-- call&#45;sample_analysis&#45;&gt;decl&#45;slivar_sv_input_vcf -->
<g id="edge7" class="edge">
<title>call&#45;sample_analysis&#45;&gt;decl&#45;slivar_sv_input_vcf</title>
<path fill="none" stroke="black" d="M345.68,-253.76C348.46,-225.26 354.04,-168.12 357.35,-134.16"/>
<polygon fill="black" stroke="black" points="360.85,-134.3 358.34,-124.01 353.89,-133.62 360.85,-134.3"/>
</g>
<!-- scatter&#45;L40C2&#45;sample -->
<!-- call&#45;cohort_analysis&#45;&gt;decl&#45;slivar_small_variant_input_vcf -->
<g id="edge6" class="edge">
<title>call&#45;cohort_analysis&#45;&gt;decl&#45;slivar_small_variant_input_vcf</title>
<path fill="none" stroke="black" d="M213.25,-170.82C202.14,-159.44 187.4,-144.33 175.06,-131.66"/>
<polygon fill="black" stroke="black" points="177.22,-128.87 167.73,-124.15 172.21,-133.76 177.22,-128.87"/>
</g>
<!-- call&#45;cohort_analysis&#45;&gt;decl&#45;slivar_sv_input_vcf -->
<g id="edge8" class="edge">
<title>call&#45;cohort_analysis&#45;&gt;decl&#45;slivar_sv_input_vcf</title>
<path fill="none" stroke="black" d="M257.57,-170.82C276.87,-158.79 302.86,-142.6 323.83,-129.54"/>
<polygon fill="black" stroke="black" points="325.83,-132.41 332.47,-124.15 322.13,-126.47 325.83,-132.41"/>
</g>
<!-- if&#45;L51C2 -->
<!-- decl&#45;slivar_small_variant_input_vcf&#45;&gt;call&#45;tertiary_analysis -->
<g id="edge11" class="edge">
<title>decl&#45;slivar_small_variant_input_vcf&#45;&gt;call&#45;tertiary_analysis</title>
<path fill="none" stroke="black" d="M201.86,-87.97C231.19,-78.14 268.25,-65.73 299.12,-55.39"/>
<polygon fill="black" stroke="black" points="300.54,-58.61 308.91,-52.11 298.32,-51.97 300.54,-58.61"/>
</g>
<!-- decl&#45;slivar_sv_input_vcf&#45;&gt;call&#45;tertiary_analysis -->
<g id="edge9" class="edge">
<title>decl&#45;slivar_sv_input_vcf&#45;&gt;call&#45;tertiary_analysis</title>
<path fill="none" stroke="black" d="M360,-87.7C360,-79.98 360,-70.71 360,-62.11"/>
<polygon fill="black" stroke="black" points="363.5,-62.1 360,-52.1 356.5,-62.1 363.5,-62.1"/>
</g>
<!-- if&#45;L63C2 -->
</g>
</svg>
