<?xml version="1.0" encoding="UTF-8" standalone="no"?>
<!DOCTYPE svg PUBLIC "-//W3C//DTD SVG 1.1//EN"
 "http://www.w3.org/Graphics/SVG/1.1/DTD/svg11.dtd">
<!-- Generated by graphviz version 2.43.0 (0)
 -->
<!-- Title: %3 Pages: 1 -->
<svg width="478pt" height="279pt"
 viewBox="0.00 0.00 478.00 279.00" xmlns="http://www.w3.org/2000/svg" xmlns:xlink="http://www.w3.org/1999/xlink">
<g id="graph0" class="graph" transform="scale(1 1) rotate(0) translate(4 275)">
<title>%3</title>
<polygon fill="white" stroke="transparent" points="-4,4 -4,-275 474,-275 474,4 -4,4"/>
<g id="clust1" class="cluster">
<title>cluster&#45;scatter&#45;L29C2&#45;gfa</title>
<polygon fill="none" stroke="black" points="8,-8 8,-227 352,-227 352,-8 8,-8"/>
<text text-anchor="middle" x="180" y="-211.8" font-family="Times,serif" font-size="14.00">scatter(hifiasm_assemble.assembly_hap_gfas)</text>
</g>
<!-- call&#45;hifiasm_assemble -->
<g id="node1" class="node">
<title>call&#45;hifiasm_assemble</title>
<polygon fill="none" stroke="black" points="190,-265 60,-265 60,-241 190,-241 202,-253 190,-265"/>
<text text-anchor="middle" x="131" y="-249.3" font-family="Times,serif" font-size="14.00">hifiasm_assemble</text>
</g>
<!-- scatter&#45;L29C2&#45;gfa -->
<!-- call&#45;hifiasm_assemble&#45;&gt;scatter&#45;L29C2&#45;gfa -->
<g id="edge1" class="edge">
<title>call&#45;hifiasm_assemble&#45;&gt;scatter&#45;L29C2&#45;gfa</title>
<path fill="none" stroke="black" d="M131,-234.7C131,-234.55 131,-234.4 131,-234.24"/>
<polygon fill="black" stroke="black" points="134.5,-237 131,-227 127.5,-237 134.5,-237"/>
</g>
<!-- call&#45;gfa2fa -->
<g id="node2" class="node">
<title>call&#45;gfa2fa</title>
<polygon fill="none" stroke="black" points="314,-190 264,-190 264,-166 314,-166 326,-178 314,-190"/>
<text text-anchor="middle" x="295" y="-174.3" font-family="Times,serif" font-size="14.00">gfa2fa</text>
</g>
<!-- call&#45;bgzip_fasta -->
<g id="node3" class="node">
<title>call&#45;bgzip_fasta</title>
<polygon fill="none" stroke="black" points="332,-118 246,-118 246,-94 332,-94 344,-106 332,-118"/>
<text text-anchor="middle" x="295" y="-102.3" font-family="Times,serif" font-size="14.00">bgzip_fasta</text>
</g>
<!-- call&#45;gfa2fa&#45;&gt;call&#45;bgzip_fasta -->
<g id="edge2" class="edge">
<title>call&#45;gfa2fa&#45;&gt;call&#45;bgzip_fasta</title>
<path fill="none" stroke="black" d="M295,-159.7C295,-151.98 295,-142.71 295,-134.11"/>
<polygon fill="black" stroke="black" points="298.5,-134.1 295,-124.1 291.5,-134.1 298.5,-134.1"/>
</g>
<!-- call&#45;asm_stats -->
<g id="node4" class="node">
<title>call&#45;asm_stats</title>
<polygon fill="none" stroke="black" points="327,-46 251,-46 251,-22 327,-22 339,-34 327,-46"/>
<text text-anchor="middle" x="295" y="-30.3" font-family="Times,serif" font-size="14.00">asm_stats</text>
</g>
<!-- call&#45;bgzip_fasta&#45;&gt;call&#45;asm_stats -->
<g id="edge3" class="edge">
<title>call&#45;bgzip_fasta&#45;&gt;call&#45;asm_stats</title>
<path fill="none" stroke="black" d="M295,-87.7C295,-79.98 295,-70.71 295,-62.11"/>
<polygon fill="black" stroke="black" points="298.5,-62.1 295,-52.1 291.5,-62.1 298.5,-62.1"/>
</g>
<!-- call&#45;align_hifiasm -->
<g id="node6" class="node">
<title>call&#45;align_hifiasm</title>
<polygon fill="none" stroke="black" points="458,-46 360,-46 360,-22 458,-22 470,-34 458,-46"/>
<text text-anchor="middle" x="415" y="-30.3" font-family="Times,serif" font-size="14.00">align_hifiasm</text>
</g>
<!-- call&#45;bgzip_fasta&#45;&gt;call&#45;align_hifiasm -->
<g id="edge4" class="edge">
<title>call&#45;bgzip_fasta&#45;&gt;call&#45;align_hifiasm</title>
<path fill="none" stroke="black" d="M324.36,-87.88C340.05,-78.72 359.56,-67.34 376.45,-57.48"/>
<polygon fill="black" stroke="black" points="378.66,-60.25 385.53,-52.19 375.13,-54.21 378.66,-60.25"/>
</g>
</g>
</svg>
