<?xml version="1.0" encoding="UTF-8" standalone="no"?>
<!DOCTYPE svg PUBLIC "-//W3C//DTD SVG 1.1//EN"
 "http://www.w3.org/Graphics/SVG/1.1/DTD/svg11.dtd">
<!-- Generated by graphviz version 7.1.0 (20230121.1956)
 -->
<!-- Pages: 1 -->
<svg width="293pt" height="191pt"
 viewBox="0.00 0.00 293.00 191.00" xmlns="http://www.w3.org/2000/svg" xmlns:xlink="http://www.w3.org/1999/xlink">
<g id="graph0" class="graph" transform="scale(1 1) rotate(0) translate(4 187)">
<polygon fill="white" stroke="none" points="-4,4 -4,-187 289,-187 289,4 -4,4"/>
<g id="clust1" class="cluster">
<title>cluster&#45;scatter&#45;L30C2&#45;gfa</title>
<polygon fill="none" stroke="black" points="8,-64 8,-139 277,-139 277,-64 8,-64"/>
<text text-anchor="middle" x="142.5" y="-123.8" font-family="Times,serif" font-size="14.00">scatter(hifiasm_assemble.assembly_hap_gfas)</text>
</g>
<!-- call&#45;hifiasm_assemble -->
<g id="node1" class="node">
<title>call&#45;hifiasm_assemble</title>
<polygon fill="none" stroke="black" points="151.5,-177 48.5,-177 48.5,-153 151.5,-153 163.5,-165 151.5,-177"/>
<text text-anchor="middle" x="106" y="-161.3" font-family="Times,serif" font-size="14.00">hifiasm_assemble</text>
</g>
<!-- scatter&#45;L30C2&#45;gfa -->
<!-- call&#45;hifiasm_assemble&#45;&gt;scatter&#45;L30C2&#45;gfa -->
<g id="edge1" class="edge">
<title>call&#45;hifiasm_assemble&#45;&gt;scatter&#45;L30C2&#45;gfa</title>
<path fill="none" stroke="black" d="M106,-146.7C106,-146.55 106,-146.4 106,-146.24"/>
<polygon fill="black" stroke="black" points="109.5,-150.51 106,-140.51 102.5,-150.51 109.5,-150.51"/>
</g>
<!-- call&#45;gfa2fa -->
<g id="node2" class="node">
<title>call&#45;gfa2fa</title>
<polygon fill="none" stroke="black" points="212,-102 170,-102 170,-78 212,-78 224,-90 212,-102"/>
<text text-anchor="middle" x="197" y="-86.3" font-family="Times,serif" font-size="14.00">gfa2fa</text>
</g>
<!-- call&#45;align_hifiasm -->
<g id="node4" class="node">
<title>call&#45;align_hifiasm</title>
<polygon fill="none" stroke="black" points="231,-30 151,-30 151,-6 231,-6 243,-18 231,-30"/>
<text text-anchor="middle" x="197" y="-14.3" font-family="Times,serif" font-size="14.00">align_hifiasm</text>
</g>
<!-- call&#45;gfa2fa&#45;&gt;call&#45;align_hifiasm -->
<g id="edge2" class="edge">
<title>call&#45;gfa2fa&#45;&gt;call&#45;align_hifiasm</title>
<path fill="none" stroke="black" d="M197,-71.7C197,-64.41 197,-55.73 197,-47.54"/>
<polygon fill="black" stroke="black" points="200.5,-47.62 197,-37.62 193.5,-47.62 200.5,-47.62"/>
</g>
</g>
</svg>
