<?xml version="1.0" encoding="UTF-8" standalone="no"?>
<!DOCTYPE svg PUBLIC "-//W3C//DTD SVG 1.1//EN"
 "http://www.w3.org/Graphics/SVG/1.1/DTD/svg11.dtd">
<!-- Generated by graphviz version 2.43.0 (0)
 -->
<!-- Title: %3 Pages: 1 -->
<svg width="368pt" height="191pt"
 viewBox="0.00 0.00 368.00 191.00" xmlns="http://www.w3.org/2000/svg" xmlns:xlink="http://www.w3.org/1999/xlink">
<g id="graph0" class="graph" transform="scale(1 1) rotate(0) translate(4 187)">
<title>%3</title>
<polygon fill="white" stroke="transparent" points="-4,4 -4,-187 364,-187 364,4 -4,4"/>
<g id="clust1" class="cluster">
<title>cluster&#45;scatter&#45;L32C2&#45;gfa</title>
<polygon fill="none" stroke="black" points="8,-64 8,-139 352,-139 352,-64 8,-64"/>
<text text-anchor="middle" x="180" y="-123.8" font-family="Times,serif" font-size="14.00">scatter(hifiasm_assemble.assembly_hap_gfas)</text>
</g>
<!-- call&#45;hifiasm_assemble -->
<g id="node1" class="node">
<title>call&#45;hifiasm_assemble</title>
<polygon fill="none" stroke="black" points="199,-177 69,-177 69,-153 199,-153 211,-165 199,-177"/>
<text text-anchor="middle" x="140" y="-161.3" font-family="Times,serif" font-size="14.00">hifiasm_assemble</text>
</g>
<!-- scatter&#45;L32C2&#45;gfa -->
<!-- call&#45;hifiasm_assemble&#45;&gt;scatter&#45;L32C2&#45;gfa -->
<g id="edge1" class="edge">
<title>call&#45;hifiasm_assemble&#45;&gt;scatter&#45;L32C2&#45;gfa</title>
<path fill="none" stroke="black" d="M140,-146.7C140,-146.55 140,-146.4 140,-146.24"/>
<polygon fill="black" stroke="black" points="143.5,-149 140,-139 136.5,-149 143.5,-149"/>
</g>
<!-- call&#45;gfa2fa -->
<g id="node2" class="node">
<title>call&#45;gfa2fa</title>
<polygon fill="none" stroke="black" points="270,-102 220,-102 220,-78 270,-78 282,-90 270,-102"/>
<text text-anchor="middle" x="251" y="-86.3" font-family="Times,serif" font-size="14.00">gfa2fa</text>
</g>
<!-- call&#45;align_hifiasm -->
<g id="node4" class="node">
<title>call&#45;align_hifiasm</title>
<polygon fill="none" stroke="black" points="294,-30 196,-30 196,-6 294,-6 306,-18 294,-30"/>
<text text-anchor="middle" x="251" y="-14.3" font-family="Times,serif" font-size="14.00">align_hifiasm</text>
</g>
<!-- call&#45;gfa2fa&#45;&gt;call&#45;align_hifiasm -->
<g id="edge2" class="edge">
<title>call&#45;gfa2fa&#45;&gt;call&#45;align_hifiasm</title>
<path fill="none" stroke="black" d="M251,-71.7C251,-63.98 251,-54.71 251,-46.11"/>
<polygon fill="black" stroke="black" points="254.5,-46.1 251,-36.1 247.5,-46.1 254.5,-46.1"/>
</g>
</g>
</svg>
