<?xml version="1.0" encoding="UTF-8" standalone="no"?>
<!DOCTYPE svg PUBLIC "-//W3C//DTD SVG 1.1//EN"
 "http://www.w3.org/Graphics/SVG/1.1/DTD/svg11.dtd">
<!-- Generated by graphviz version 7.1.0 (20230121.1956)
 -->
<!-- Pages: 1 -->
<svg width="329pt" height="171pt"
 viewBox="0.00 0.00 329.00 171.00" xmlns="http://www.w3.org/2000/svg" xmlns:xlink="http://www.w3.org/1999/xlink">
<g id="graph0" class="graph" transform="scale(1 1) rotate(0) translate(4 167)">
<polygon fill="white" stroke="none" points="-4,4 -4,-167 325,-167 325,4 -4,4"/>
<g id="clust1" class="cluster">
<title>cluster&#45;scatter&#45;L15C2&#45;movie_bam</title>
<polygon fill="none" stroke="black" points="8,-8 8,-155 313,-155 313,-8 8,-8"/>
<text text-anchor="middle" x="160.5" y="-139.8" font-family="Times,serif" font-size="14.00">scatter(sample.movie_bams)</text>
</g>
<!-- call&#45;pbmm2_align -->
<g id="node1" class="node">
<title>call&#45;pbmm2_align</title>
<polygon fill="none" stroke="black" points="186.5,-118 105.5,-118 105.5,-94 186.5,-94 198.5,-106 186.5,-118"/>
<text text-anchor="middle" x="152" y="-102.3" font-family="Times,serif" font-size="14.00">pbmm2_align</text>
</g>
<!-- call&#45;mosdepth -->
<g id="node2" class="node">
<title>call&#45;mosdepth</title>
<polygon fill="none" stroke="black" points="74,-46 16,-46 16,-22 74,-22 86,-34 74,-46"/>
<text text-anchor="middle" x="51" y="-30.3" font-family="Times,serif" font-size="14.00">mosdepth</text>
</g>
<!-- call&#45;pbmm2_align&#45;&gt;call&#45;mosdepth -->
<g id="edge1" class="edge">
<title>call&#45;pbmm2_align&#45;&gt;call&#45;mosdepth</title>
<path fill="none" stroke="black" d="M126.77,-87.52C114.15,-78.76 98.68,-68.04 85.02,-58.58"/>
<polygon fill="black" stroke="black" points="87.36,-55.94 77.15,-53.12 83.37,-61.7 87.36,-55.94"/>
</g>
<!-- call&#45;pbsv_discover -->
<g id="node3" class="node">
<title>call&#45;pbsv_discover</title>
<polygon fill="none" stroke="black" points="187.5,-46 104.5,-46 104.5,-22 187.5,-22 199.5,-34 187.5,-46"/>
<text text-anchor="middle" x="152" y="-30.3" font-family="Times,serif" font-size="14.00">pbsv_discover</text>
</g>
<!-- call&#45;pbmm2_align&#45;&gt;call&#45;pbsv_discover -->
<g id="edge2" class="edge">
<title>call&#45;pbmm2_align&#45;&gt;call&#45;pbsv_discover</title>
<path fill="none" stroke="black" d="M152,-87.7C152,-80.41 152,-71.73 152,-63.54"/>
<polygon fill="black" stroke="black" points="155.5,-63.62 152,-53.62 148.5,-63.62 155.5,-63.62"/>
</g>
<!-- decl&#45;aligned_bam -->
<g id="node4" class="node">
<title>decl&#45;aligned_bam</title>
<text text-anchor="middle" x="261" y="-30.3" font-family="Times,serif" font-size="14.00">aligned_bam</text>
</g>
<!-- call&#45;pbmm2_align&#45;&gt;decl&#45;aligned_bam -->
<g id="edge3" class="edge">
<title>call&#45;pbmm2_align&#45;&gt;decl&#45;aligned_bam</title>
<path fill="none" stroke="black" d="M179.22,-87.52C193.19,-78.55 210.38,-67.51 225.38,-57.87"/>
<polygon fill="black" stroke="black" points="227.08,-60.95 233.6,-52.6 223.29,-55.06 227.08,-60.95"/>
</g>
<!-- scatter&#45;L15C2&#45;movie_bam -->
</g>
</svg>
