<?xml version="1.0" encoding="UTF-8" standalone="no"?>
<!DOCTYPE svg PUBLIC "-//W3C//DTD SVG 1.1//EN"
 "http://www.w3.org/Graphics/SVG/1.1/DTD/svg11.dtd">
<!-- Generated by graphviz version 2.43.0 (0)
 -->
<!-- Title: %3 Pages: 1 -->
<svg width="630pt" height="371pt"
 viewBox="0.00 0.00 630.00 371.00" xmlns="http://www.w3.org/2000/svg" xmlns:xlink="http://www.w3.org/1999/xlink">
<g id="graph0" class="graph" transform="scale(1 1) rotate(0) translate(4 367)">
<title>%3</title>
<polygon fill="white" stroke="transparent" points="-4,4 -4,-367 626,-367 626,4 -4,4"/>
<g id="clust1" class="cluster">
<title>cluster&#45;scatter&#45;L20C2&#45;movie_bam</title>
<polygon fill="none" stroke="black" points="8,-208 8,-355 371,-355 371,-208 8,-208"/>
<text text-anchor="middle" x="189.5" y="-339.8" font-family="Times,serif" font-size="14.00">scatter(sample.movie_bams)</text>
</g>
<!-- call&#45;pbmm2_align -->
<g id="node1" class="node">
<title>call&#45;pbmm2_align</title>
<polygon fill="none" stroke="black" points="287.5,-318 186.5,-318 186.5,-294 287.5,-294 299.5,-306 287.5,-318"/>
<text text-anchor="middle" x="243" y="-302.3" font-family="Times,serif" font-size="14.00">pbmm2_align</text>
</g>
<!-- call&#45;mosdepth -->
<g id="node2" class="node">
<title>call&#45;mosdepth</title>
<polygon fill="none" stroke="black" points="91.5,-246 16.5,-246 16.5,-222 91.5,-222 103.5,-234 91.5,-246"/>
<text text-anchor="middle" x="60" y="-230.3" font-family="Times,serif" font-size="14.00">mosdepth</text>
</g>
<!-- call&#45;pbmm2_align&#45;&gt;call&#45;mosdepth -->
<g id="edge1" class="edge">
<title>call&#45;pbmm2_align&#45;&gt;call&#45;mosdepth</title>
<path fill="none" stroke="black" d="M198.23,-287.88C172.6,-278.07 140.28,-265.71 113.33,-255.4"/>
<polygon fill="black" stroke="black" points="114.26,-252.01 103.67,-251.71 111.76,-258.55 114.26,-252.01"/>
</g>
<!-- call&#45;pbsv_discover -->
<g id="node3" class="node">
<title>call&#45;pbsv_discover</title>
<polygon fill="none" stroke="black" points="226.5,-246 121.5,-246 121.5,-222 226.5,-222 238.5,-234 226.5,-246"/>
<text text-anchor="middle" x="180" y="-230.3" font-family="Times,serif" font-size="14.00">pbsv_discover</text>
</g>
<!-- call&#45;pbmm2_align&#45;&gt;call&#45;pbsv_discover -->
<g id="edge2" class="edge">
<title>call&#45;pbmm2_align&#45;&gt;call&#45;pbsv_discover</title>
<path fill="none" stroke="black" d="M227.43,-287.7C219.8,-279.22 210.48,-268.86 202.12,-259.58"/>
<polygon fill="black" stroke="black" points="204.69,-257.2 195.39,-252.1 199.48,-261.88 204.69,-257.2"/>
</g>
<!-- decl&#45;aligned_bam -->
<g id="node4" class="node">
<title>decl&#45;aligned_bam</title>
<text text-anchor="middle" x="310" y="-230.3" font-family="Times,serif" font-size="14.00">aligned_bam</text>
</g>
<!-- call&#45;pbmm2_align&#45;&gt;decl&#45;aligned_bam -->
<g id="edge3" class="edge">
<title>call&#45;pbmm2_align&#45;&gt;decl&#45;aligned_bam</title>
<path fill="none" stroke="black" d="M259.56,-287.7C267.68,-279.22 277.59,-268.86 286.47,-259.58"/>
<polygon fill="black" stroke="black" points="289.24,-261.75 293.63,-252.1 284.19,-256.91 289.24,-261.75"/>
</g>
<!-- call&#45;deepvariant_make_examples -->
<g id="node6" class="node">
<title>call&#45;deepvariant_make_examples</title>
<polygon fill="none" stroke="black" points="590.5,-246 381.5,-246 381.5,-222 590.5,-222 602.5,-234 590.5,-246"/>
<text text-anchor="middle" x="492" y="-230.3" font-family="Times,serif" font-size="14.00">deepvariant_make_examples</text>
</g>
<!-- call&#45;pbmm2_align&#45;&gt;call&#45;deepvariant_make_examples -->
<g id="edge4" class="edge">
<title>call&#45;pbmm2_align&#45;&gt;call&#45;deepvariant_make_examples</title>
<path fill="none" stroke="black" d="M299.5,-289.12C335.75,-278.93 383.08,-265.62 421.74,-254.75"/>
<polygon fill="black" stroke="black" points="422.69,-258.12 431.37,-252.04 420.8,-251.38 422.69,-258.12"/>
</g>
<!-- scatter&#45;L20C2&#45;movie_bam -->
<!-- call&#45;deepvariant_call_variants -->
<g id="node7" class="node">
<title>call&#45;deepvariant_call_variants</title>
<polygon fill="none" stroke="black" points="515.5,-174 328.5,-174 328.5,-150 515.5,-150 527.5,-162 515.5,-174"/>
<text text-anchor="middle" x="428" y="-158.3" font-family="Times,serif" font-size="14.00">deepvariant_call_variants</text>
</g>
<!-- call&#45;deepvariant_make_examples&#45;&gt;call&#45;deepvariant_call_variants -->
<g id="edge5" class="edge">
<title>call&#45;deepvariant_make_examples&#45;&gt;call&#45;deepvariant_call_variants</title>
<path fill="none" stroke="black" d="M476.18,-215.7C468.43,-207.22 458.96,-196.86 450.48,-187.58"/>
<polygon fill="black" stroke="black" points="452.97,-185.12 443.64,-180.1 447.8,-189.85 452.97,-185.12"/>
</g>
<!-- call&#45;deepvariant_postprocess_variants -->
<g id="node8" class="node">
<title>call&#45;deepvariant_postprocess_variants</title>
<polygon fill="none" stroke="black" points="610,-102 362,-102 362,-78 610,-78 622,-90 610,-102"/>
<text text-anchor="middle" x="492" y="-86.3" font-family="Times,serif" font-size="14.00">deepvariant_postprocess_variants</text>
</g>
<!-- call&#45;deepvariant_make_examples&#45;&gt;call&#45;deepvariant_postprocess_variants -->
<g id="edge7" class="edge">
<title>call&#45;deepvariant_make_examples&#45;&gt;call&#45;deepvariant_postprocess_variants</title>
<path fill="none" stroke="black" d="M512.38,-215.53C521.81,-206.09 532.01,-193.6 537,-180 542.52,-164.98 542.52,-159.02 537,-144 533.22,-133.7 526.44,-124.02 519.28,-115.84"/>
<polygon fill="black" stroke="black" points="521.77,-113.38 512.38,-108.47 516.66,-118.16 521.77,-113.38"/>
</g>
<!-- call&#45;deepvariant_call_variants&#45;&gt;call&#45;deepvariant_postprocess_variants -->
<g id="edge6" class="edge">
<title>call&#45;deepvariant_call_variants&#45;&gt;call&#45;deepvariant_postprocess_variants</title>
<path fill="none" stroke="black" d="M443.82,-143.7C451.57,-135.22 461.04,-124.86 469.52,-115.58"/>
<polygon fill="black" stroke="black" points="472.2,-117.85 476.36,-108.1 467.03,-113.12 472.2,-117.85"/>
</g>
<!-- call&#45;bcftools_stats -->
<g id="node9" class="node">
<title>call&#45;bcftools_stats</title>
<polygon fill="none" stroke="black" points="473.5,-30 370.5,-30 370.5,-6 473.5,-6 485.5,-18 473.5,-30"/>
<text text-anchor="middle" x="428" y="-14.3" font-family="Times,serif" font-size="14.00">bcftools_stats</text>
</g>
<!-- call&#45;deepvariant_postprocess_variants&#45;&gt;call&#45;bcftools_stats -->
<g id="edge8" class="edge">
<title>call&#45;deepvariant_postprocess_variants&#45;&gt;call&#45;bcftools_stats</title>
<path fill="none" stroke="black" d="M476.18,-71.7C468.43,-63.22 458.96,-52.86 450.48,-43.58"/>
<polygon fill="black" stroke="black" points="452.97,-41.12 443.64,-36.1 447.8,-45.85 452.97,-41.12"/>
</g>
<!-- call&#45;bcftools_roh -->
<g id="node10" class="node">
<title>call&#45;bcftools_roh</title>
<polygon fill="none" stroke="black" points="596,-30 504,-30 504,-6 596,-6 608,-18 596,-30"/>
<text text-anchor="middle" x="556" y="-14.3" font-family="Times,serif" font-size="14.00">bcftools_roh</text>
</g>
<!-- call&#45;deepvariant_postprocess_variants&#45;&gt;call&#45;bcftools_roh -->
<g id="edge9" class="edge">
<title>call&#45;deepvariant_postprocess_variants&#45;&gt;call&#45;bcftools_roh</title>
<path fill="none" stroke="black" d="M507.82,-71.7C515.57,-63.22 525.04,-52.86 533.52,-43.58"/>
<polygon fill="black" stroke="black" points="536.2,-45.85 540.36,-36.1 531.03,-41.12 536.2,-45.85"/>
</g>
</g>
</svg>
