<?xml version="1.0" encoding="UTF-8" standalone="no"?>
<!DOCTYPE svg PUBLIC "-//W3C//DTD SVG 1.1//EN"
 "http://www.w3.org/Graphics/SVG/1.1/DTD/svg11.dtd">
<!-- Generated by graphviz version 2.43.0 (0)
 -->
<!-- Title: %3 Pages: 1 -->
<svg width="387pt" height="171pt"
 viewBox="0.00 0.00 387.00 171.00" xmlns="http://www.w3.org/2000/svg" xmlns:xlink="http://www.w3.org/1999/xlink">
<g id="graph0" class="graph" transform="scale(1 1) rotate(0) translate(4 167)">
<title>%3</title>
<polygon fill="white" stroke="transparent" points="-4,4 -4,-167 383,-167 383,4 -4,4"/>
<g id="clust1" class="cluster">
<title>cluster&#45;scatter&#45;L16C2&#45;movie_bam</title>
<polygon fill="none" stroke="black" points="8,-8 8,-155 371,-155 371,-8 8,-8"/>
<text text-anchor="middle" x="189.5" y="-139.8" font-family="Times,serif" font-size="14.00">scatter(sample.movie_bams)</text>
</g>
<!-- call&#45;pbmm2_align -->
<g id="node1" class="node">
<title>call&#45;pbmm2_align</title>
<polygon fill="none" stroke="black" points="224.5,-118 123.5,-118 123.5,-94 224.5,-94 236.5,-106 224.5,-118"/>
<text text-anchor="middle" x="180" y="-102.3" font-family="Times,serif" font-size="14.00">pbmm2_align</text>
</g>
<!-- call&#45;mosdepth -->
<g id="node2" class="node">
<title>call&#45;mosdepth</title>
<polygon fill="none" stroke="black" points="91.5,-46 16.5,-46 16.5,-22 91.5,-22 103.5,-34 91.5,-46"/>
<text text-anchor="middle" x="60" y="-30.3" font-family="Times,serif" font-size="14.00">mosdepth</text>
</g>
<!-- call&#45;pbmm2_align&#45;&gt;call&#45;mosdepth -->
<g id="edge1" class="edge">
<title>call&#45;pbmm2_align&#45;&gt;call&#45;mosdepth</title>
<path fill="none" stroke="black" d="M150.64,-87.88C134.95,-78.72 115.44,-67.34 98.55,-57.48"/>
<polygon fill="black" stroke="black" points="99.87,-54.21 89.47,-52.19 96.34,-60.25 99.87,-54.21"/>
</g>
<!-- call&#45;pbsv_discover -->
<g id="node3" class="node">
<title>call&#45;pbsv_discover</title>
<polygon fill="none" stroke="black" points="226.5,-46 121.5,-46 121.5,-22 226.5,-22 238.5,-34 226.5,-46"/>
<text text-anchor="middle" x="180" y="-30.3" font-family="Times,serif" font-size="14.00">pbsv_discover</text>
</g>
<!-- call&#45;pbmm2_align&#45;&gt;call&#45;pbsv_discover -->
<g id="edge2" class="edge">
<title>call&#45;pbmm2_align&#45;&gt;call&#45;pbsv_discover</title>
<path fill="none" stroke="black" d="M180,-87.7C180,-79.98 180,-70.71 180,-62.11"/>
<polygon fill="black" stroke="black" points="183.5,-62.1 180,-52.1 176.5,-62.1 183.5,-62.1"/>
</g>
<!-- decl&#45;aligned_bam -->
<g id="node4" class="node">
<title>decl&#45;aligned_bam</title>
<text text-anchor="middle" x="310" y="-30.3" font-family="Times,serif" font-size="14.00">aligned_bam</text>
</g>
<!-- call&#45;pbmm2_align&#45;&gt;decl&#45;aligned_bam -->
<g id="edge3" class="edge">
<title>call&#45;pbmm2_align&#45;&gt;decl&#45;aligned_bam</title>
<path fill="none" stroke="black" d="M211.8,-87.88C229.11,-78.55 250.72,-66.92 269.26,-56.94"/>
<polygon fill="black" stroke="black" points="270.93,-60.01 278.08,-52.19 267.61,-53.85 270.93,-60.01"/>
</g>
<!-- scatter&#45;L16C2&#45;movie_bam -->
</g>
</svg>
