<?xml version="1.0" encoding="UTF-8" standalone="no"?>
<!DOCTYPE svg PUBLIC "-//W3C//DTD SVG 1.1//EN"
 "http://www.w3.org/Graphics/SVG/1.1/DTD/svg11.dtd">
<!-- Generated by graphviz version 2.43.0 (0)
 -->
<!-- Title: %3 Pages: 1 -->
<svg width="703pt" height="374pt"
 viewBox="0.00 0.00 703.00 374.00" xmlns="http://www.w3.org/2000/svg" xmlns:xlink="http://www.w3.org/1999/xlink">
<g id="graph0" class="graph" transform="scale(1 1) rotate(0) translate(4 370)">
<title>%3</title>
<polygon fill="white" stroke="transparent" points="-4,4 -4,-370 699,-370 699,4 -4,4"/>
<g id="clust1" class="cluster">
<title>cluster&#45;scatter&#45;L18C2&#45;movie_bam</title>
<polygon fill="none" stroke="black" points="8,-208 8,-358 371,-358 371,-208 8,-208"/>
<text text-anchor="middle" x="189.5" y="-342.8" font-family="Times,serif" font-size="14.00">scatter(sample.movie_bams)</text>
</g>
<g id="clust2" class="cluster">
<title>cluster&#45;scatter&#45;L57C2&#45;shard_index</title>
<polygon fill="none" stroke="black" points="379,-208 379,-283 687,-283 687,-208 379,-208"/>
<text text-anchor="middle" x="533" y="-267.8" font-family="Times,serif" font-size="14.00">scatter(range(deepvariant_num_shards))</text>
</g>
<!-- call&#45;pbmm2_align -->
<g id="node1" class="node">
<title>call&#45;pbmm2_align</title>
<polygon fill="none" stroke="black" points="287.5,-321 186.5,-321 186.5,-297 287.5,-297 299.5,-309 287.5,-321"/>
<text text-anchor="middle" x="243" y="-305.3" font-family="Times,serif" font-size="14.00">pbmm2_align</text>
</g>
<!-- call&#45;mosdepth -->
<g id="node2" class="node">
<title>call&#45;mosdepth</title>
<polygon fill="none" stroke="black" points="91.5,-246 16.5,-246 16.5,-222 91.5,-222 103.5,-234 91.5,-246"/>
<text text-anchor="middle" x="60" y="-230.3" font-family="Times,serif" font-size="14.00">mosdepth</text>
</g>
<!-- call&#45;pbmm2_align&#45;&gt;call&#45;mosdepth -->
<g id="edge1" class="edge">
<title>call&#45;pbmm2_align&#45;&gt;call&#45;mosdepth</title>
<path fill="none" stroke="black" d="M186.39,-300.34C157.22,-295.77 125.08,-289.59 112,-283 100.63,-277.27 89.94,-268.31 81.25,-259.68"/>
<polygon fill="black" stroke="black" points="83.6,-257.07 74.16,-252.26 78.54,-261.91 83.6,-257.07"/>
</g>
<!-- call&#45;pbsv_discover -->
<g id="node3" class="node">
<title>call&#45;pbsv_discover</title>
<polygon fill="none" stroke="black" points="226.5,-246 121.5,-246 121.5,-222 226.5,-222 238.5,-234 226.5,-246"/>
<text text-anchor="middle" x="180" y="-230.3" font-family="Times,serif" font-size="14.00">pbsv_discover</text>
</g>
<!-- call&#45;pbmm2_align&#45;&gt;call&#45;pbsv_discover -->
<g id="edge2" class="edge">
<title>call&#45;pbmm2_align&#45;&gt;call&#45;pbsv_discover</title>
<path fill="none" stroke="black" d="M228.07,-290.7C220.15,-281.52 210.27,-270.07 201.53,-259.94"/>
<polygon fill="black" stroke="black" points="204.01,-257.46 194.82,-252.18 198.71,-262.03 204.01,-257.46"/>
</g>
<!-- decl&#45;aligned_bam -->
<g id="node4" class="node">
<title>decl&#45;aligned_bam</title>
<text text-anchor="middle" x="310" y="-230.3" font-family="Times,serif" font-size="14.00">aligned_bam</text>
</g>
<!-- call&#45;pbmm2_align&#45;&gt;decl&#45;aligned_bam -->
<g id="edge3" class="edge">
<title>call&#45;pbmm2_align&#45;&gt;decl&#45;aligned_bam</title>
<path fill="none" stroke="black" d="M258.88,-290.7C267.39,-281.43 278.02,-269.84 287.38,-259.64"/>
<polygon fill="black" stroke="black" points="290.05,-261.91 294.24,-252.18 284.9,-257.18 290.05,-261.91"/>
</g>
<!-- call&#45;deepvariant_make_examples -->
<g id="node6" class="node">
<title>call&#45;deepvariant_make_examples</title>
<polygon fill="none" stroke="black" points="615.5,-246 406.5,-246 406.5,-222 615.5,-222 627.5,-234 615.5,-246"/>
<text text-anchor="middle" x="517" y="-230.3" font-family="Times,serif" font-size="14.00">deepvariant_make_examples</text>
</g>
<!-- call&#45;pbmm2_align&#45;&gt;call&#45;deepvariant_make_examples -->
<g id="edge4" class="edge">
<title>call&#45;pbmm2_align&#45;&gt;call&#45;deepvariant_make_examples</title>
<path fill="none" stroke="black" d="M299.61,-301.96C329.26,-298.02 365.97,-291.92 398,-283 422.86,-276.07 449.59,-265.59 471.41,-256.18"/>
<polygon fill="black" stroke="black" points="473,-259.31 480.75,-252.09 470.19,-252.89 473,-259.31"/>
</g>
<!-- scatter&#45;L18C2&#45;movie_bam -->
<!-- call&#45;deepvariant_call_variants -->
<g id="node8" class="node">
<title>call&#45;deepvariant_call_variants</title>
<polygon fill="none" stroke="black" points="540.5,-174 353.5,-174 353.5,-150 540.5,-150 552.5,-162 540.5,-174"/>
<text text-anchor="middle" x="453" y="-158.3" font-family="Times,serif" font-size="14.00">deepvariant_call_variants</text>
</g>
<!-- call&#45;deepvariant_make_examples&#45;&gt;call&#45;deepvariant_call_variants -->
<g id="edge5" class="edge">
<title>call&#45;deepvariant_make_examples&#45;&gt;call&#45;deepvariant_call_variants</title>
<path fill="none" stroke="black" d="M501.18,-215.7C493.43,-207.22 483.96,-196.86 475.48,-187.58"/>
<polygon fill="black" stroke="black" points="477.97,-185.12 468.64,-180.1 472.8,-189.85 477.97,-185.12"/>
</g>
<!-- call&#45;deepvariant_postprocess_variants -->
<g id="node9" class="node">
<title>call&#45;deepvariant_postprocess_variants</title>
<polygon fill="none" stroke="black" points="635,-102 387,-102 387,-78 635,-78 647,-90 635,-102"/>
<text text-anchor="middle" x="517" y="-86.3" font-family="Times,serif" font-size="14.00">deepvariant_postprocess_variants</text>
</g>
<!-- call&#45;deepvariant_make_examples&#45;&gt;call&#45;deepvariant_postprocess_variants -->
<g id="edge7" class="edge">
<title>call&#45;deepvariant_make_examples&#45;&gt;call&#45;deepvariant_postprocess_variants</title>
<path fill="none" stroke="black" d="M537.38,-215.53C546.81,-206.09 557.01,-193.6 562,-180 567.52,-164.98 567.52,-159.02 562,-144 558.22,-133.7 551.44,-124.02 544.28,-115.84"/>
<polygon fill="black" stroke="black" points="546.77,-113.38 537.38,-108.47 541.66,-118.16 546.77,-113.38"/>
</g>
<!-- scatter&#45;L57C2&#45;shard_index -->
<!-- call&#45;deepvariant_call_variants&#45;&gt;call&#45;deepvariant_postprocess_variants -->
<g id="edge6" class="edge">
<title>call&#45;deepvariant_call_variants&#45;&gt;call&#45;deepvariant_postprocess_variants</title>
<path fill="none" stroke="black" d="M468.82,-143.7C476.57,-135.22 486.04,-124.86 494.52,-115.58"/>
<polygon fill="black" stroke="black" points="497.2,-117.85 501.36,-108.1 492.03,-113.12 497.2,-117.85"/>
</g>
<!-- call&#45;bcftools_stats -->
<g id="node10" class="node">
<title>call&#45;bcftools_stats</title>
<polygon fill="none" stroke="black" points="498.5,-30 395.5,-30 395.5,-6 498.5,-6 510.5,-18 498.5,-30"/>
<text text-anchor="middle" x="453" y="-14.3" font-family="Times,serif" font-size="14.00">bcftools_stats</text>
</g>
<!-- call&#45;deepvariant_postprocess_variants&#45;&gt;call&#45;bcftools_stats -->
<g id="edge8" class="edge">
<title>call&#45;deepvariant_postprocess_variants&#45;&gt;call&#45;bcftools_stats</title>
<path fill="none" stroke="black" d="M501.18,-71.7C493.43,-63.22 483.96,-52.86 475.48,-43.58"/>
<polygon fill="black" stroke="black" points="477.97,-41.12 468.64,-36.1 472.8,-45.85 477.97,-41.12"/>
</g>
<!-- call&#45;bcftools_roh -->
<g id="node11" class="node">
<title>call&#45;bcftools_roh</title>
<polygon fill="none" stroke="black" points="621,-30 529,-30 529,-6 621,-6 633,-18 621,-30"/>
<text text-anchor="middle" x="581" y="-14.3" font-family="Times,serif" font-size="14.00">bcftools_roh</text>
</g>
<!-- call&#45;deepvariant_postprocess_variants&#45;&gt;call&#45;bcftools_roh -->
<g id="edge9" class="edge">
<title>call&#45;deepvariant_postprocess_variants&#45;&gt;call&#45;bcftools_roh</title>
<path fill="none" stroke="black" d="M532.82,-71.7C540.57,-63.22 550.04,-52.86 558.52,-43.58"/>
<polygon fill="black" stroke="black" points="561.2,-45.85 565.36,-36.1 556.03,-41.12 561.2,-45.85"/>
</g>
</g>
</svg>
