<?xml version="1.0" encoding="UTF-8" standalone="no"?>
<!DOCTYPE svg PUBLIC "-//W3C//DTD SVG 1.1//EN"
 "http://www.w3.org/Graphics/SVG/1.1/DTD/svg11.dtd">
<!-- Generated by graphviz version 7.1.0 (20230121.1956)
 -->
<!-- Pages: 1 -->
<svg width="198pt" height="371pt"
 viewBox="0.00 0.00 198.00 371.00" xmlns="http://www.w3.org/2000/svg" xmlns:xlink="http://www.w3.org/1999/xlink">
<g id="graph0" class="graph" transform="scale(1 1) rotate(0) translate(4 367)">
<polygon fill="white" stroke="none" points="-4,4 -4,-367 194,-367 194,4 -4,4"/>
<g id="clust1" class="cluster">
<title>cluster&#45;scatter&#45;L19C2&#45;movie_bam</title>
<polygon fill="none" stroke="black" points="8,-280 8,-355 182,-355 182,-280 8,-280"/>
<text text-anchor="middle" x="95" y="-339.8" font-family="Times,serif" font-size="14.00">scatter(sample.movie_bams)</text>
</g>
<!-- call&#45;samtools_fasta -->
<g id="node1" class="node">
<title>call&#45;samtools_fasta</title>
<polygon fill="none" stroke="black" points="152,-318 66,-318 66,-294 152,-294 164,-306 152,-318"/>
<text text-anchor="middle" x="115" y="-302.3" font-family="Times,serif" font-size="14.00">samtools_fasta</text>
</g>
<!-- call&#45;assemble_genome -->
<g id="node3" class="node">
<title>call&#45;assemble_genome</title>
<polygon fill="none" stroke="black" points="161.5,-246 56.5,-246 56.5,-222 161.5,-222 173.5,-234 161.5,-246"/>
<text text-anchor="middle" x="115" y="-230.3" font-family="Times,serif" font-size="14.00">assemble_genome</text>
</g>
<!-- call&#45;samtools_fasta&#45;&gt;call&#45;assemble_genome -->
<g id="edge1" class="edge">
<title>call&#45;samtools_fasta&#45;&gt;call&#45;assemble_genome</title>
<path fill="none" stroke="black" d="M115,-287.7C115,-280.41 115,-271.73 115,-263.54"/>
<polygon fill="black" stroke="black" points="118.5,-263.62 115,-253.62 111.5,-263.62 118.5,-263.62"/>
</g>
<!-- scatter&#45;L19C2&#45;movie_bam -->
<!-- call&#45;htsbox -->
<g id="node4" class="node">
<title>call&#45;htsbox</title>
<polygon fill="none" stroke="black" points="103,-174 61,-174 61,-150 103,-150 115,-162 103,-174"/>
<text text-anchor="middle" x="88" y="-158.3" font-family="Times,serif" font-size="14.00">htsbox</text>
</g>
<!-- call&#45;assemble_genome&#45;&gt;call&#45;htsbox -->
<g id="edge2" class="edge">
<title>call&#45;assemble_genome&#45;&gt;call&#45;htsbox</title>
<path fill="none" stroke="black" d="M108.33,-215.7C105.42,-208.15 101.93,-199.12 98.68,-190.68"/>
<polygon fill="black" stroke="black" points="102.01,-189.59 95.14,-181.52 95.48,-192.11 102.01,-189.59"/>
</g>
<!-- call&#45;bcftools_stats -->
<g id="node6" class="node">
<title>call&#45;bcftools_stats</title>
<polygon fill="none" stroke="black" points="148.5,-30 69.5,-30 69.5,-6 148.5,-6 160.5,-18 148.5,-30"/>
<text text-anchor="middle" x="115" y="-14.3" font-family="Times,serif" font-size="14.00">bcftools_stats</text>
</g>
<!-- call&#45;assemble_genome&#45;&gt;call&#45;bcftools_stats -->
<g id="edge5" class="edge">
<title>call&#45;assemble_genome&#45;&gt;call&#45;bcftools_stats</title>
<path fill="none" stroke="black" d="M120.36,-215.52C128.72,-185.86 143.01,-123.85 134,-72 132.54,-63.62 129.88,-54.82 127,-46.84"/>
<polygon fill="black" stroke="black" points="130.32,-45.72 123.44,-37.67 123.8,-48.25 130.32,-45.72"/>
</g>
<!-- call&#45;zip_index_vcf -->
<g id="node5" class="node">
<title>call&#45;zip_index_vcf</title>
<polygon fill="none" stroke="black" points="113,-102 31,-102 31,-78 113,-78 125,-90 113,-102"/>
<text text-anchor="middle" x="78" y="-86.3" font-family="Times,serif" font-size="14.00">zip_index_vcf</text>
</g>
<!-- call&#45;htsbox&#45;&gt;call&#45;zip_index_vcf -->
<g id="edge3" class="edge">
<title>call&#45;htsbox&#45;&gt;call&#45;zip_index_vcf</title>
<path fill="none" stroke="black" d="M85.53,-143.7C84.47,-136.32 83.22,-127.52 82.04,-119.25"/>
<polygon fill="black" stroke="black" points="85.54,-119.01 80.66,-109.6 78.61,-120 85.54,-119.01"/>
</g>
<!-- call&#45;zip_index_vcf&#45;&gt;call&#45;bcftools_stats -->
<g id="edge4" class="edge">
<title>call&#45;zip_index_vcf&#45;&gt;call&#45;bcftools_stats</title>
<path fill="none" stroke="black" d="M87.15,-71.7C91.22,-63.98 96.12,-54.71 100.67,-46.11"/>
<polygon fill="black" stroke="black" points="103.67,-47.92 105.25,-37.44 97.48,-44.65 103.67,-47.92"/>
</g>
</g>
</svg>
