<?xml version="1.0" encoding="UTF-8" standalone="no"?>
<!DOCTYPE svg PUBLIC "-//W3C//DTD SVG 1.1//EN"
 "http://www.w3.org/Graphics/SVG/1.1/DTD/svg11.dtd">
<!-- Generated by graphviz version 2.43.0 (0)
 -->
<!-- Title: %3 Pages: 1 -->
<svg width="245pt" height="371pt"
 viewBox="0.00 0.00 245.00 371.00" xmlns="http://www.w3.org/2000/svg" xmlns:xlink="http://www.w3.org/1999/xlink">
<g id="graph0" class="graph" transform="scale(1 1) rotate(0) translate(4 367)">
<title>%3</title>
<polygon fill="white" stroke="transparent" points="-4,4 -4,-367 241,-367 241,4 -4,4"/>
<g id="clust1" class="cluster">
<title>cluster&#45;scatter&#45;L21C2&#45;movie_bam</title>
<polygon fill="none" stroke="black" points="8,-280 8,-355 229,-355 229,-280 8,-280"/>
<text text-anchor="middle" x="118.5" y="-339.8" font-family="Times,serif" font-size="14.00">scatter(sample.movie_bams)</text>
</g>
<!-- call&#45;samtools_fasta -->
<g id="node1" class="node">
<title>call&#45;samtools_fasta</title>
<polygon fill="none" stroke="black" points="193,-318 83,-318 83,-294 193,-294 205,-306 193,-318"/>
<text text-anchor="middle" x="144" y="-302.3" font-family="Times,serif" font-size="14.00">samtools_fasta</text>
</g>
<!-- call&#45;assemble_genome -->
<g id="node3" class="node">
<title>call&#45;assemble_genome</title>
<polygon fill="none" stroke="black" points="205,-246 71,-246 71,-222 205,-222 217,-234 205,-246"/>
<text text-anchor="middle" x="144" y="-230.3" font-family="Times,serif" font-size="14.00">assemble_genome</text>
</g>
<!-- call&#45;samtools_fasta&#45;&gt;call&#45;assemble_genome -->
<g id="edge1" class="edge">
<title>call&#45;samtools_fasta&#45;&gt;call&#45;assemble_genome</title>
<path fill="none" stroke="black" d="M144,-287.7C144,-279.98 144,-270.71 144,-262.11"/>
<polygon fill="black" stroke="black" points="147.5,-262.1 144,-252.1 140.5,-262.1 147.5,-262.1"/>
</g>
<!-- scatter&#45;L21C2&#45;movie_bam -->
<!-- call&#45;htsbox -->
<g id="node4" class="node">
<title>call&#45;htsbox</title>
<polygon fill="none" stroke="black" points="134.5,-174 81.5,-174 81.5,-150 134.5,-150 146.5,-162 134.5,-174"/>
<text text-anchor="middle" x="114" y="-158.3" font-family="Times,serif" font-size="14.00">htsbox</text>
</g>
<!-- call&#45;assemble_genome&#45;&gt;call&#45;htsbox -->
<g id="edge2" class="edge">
<title>call&#45;assemble_genome&#45;&gt;call&#45;htsbox</title>
<path fill="none" stroke="black" d="M136.58,-215.7C133.21,-207.81 129.13,-198.3 125.38,-189.55"/>
<polygon fill="black" stroke="black" points="128.49,-187.92 121.33,-180.1 122.05,-190.67 128.49,-187.92"/>
</g>
<!-- call&#45;bcftools_stats -->
<g id="node6" class="node">
<title>call&#45;bcftools_stats</title>
<polygon fill="none" stroke="black" points="189.5,-30 86.5,-30 86.5,-6 189.5,-6 201.5,-18 189.5,-30"/>
<text text-anchor="middle" x="144" y="-14.3" font-family="Times,serif" font-size="14.00">bcftools_stats</text>
</g>
<!-- call&#45;assemble_genome&#45;&gt;call&#45;bcftools_stats -->
<g id="edge5" class="edge">
<title>call&#45;assemble_genome&#45;&gt;call&#45;bcftools_stats</title>
<path fill="none" stroke="black" d="M150.03,-215.97C159.64,-186.46 176.37,-124.01 166,-72 164.21,-63.01 160.86,-53.64 157.31,-45.32"/>
<polygon fill="black" stroke="black" points="160.46,-43.77 153.13,-36.12 154.08,-46.67 160.46,-43.77"/>
</g>
<!-- call&#45;zip_index_vcf -->
<g id="node5" class="node">
<title>call&#45;zip_index_vcf</title>
<polygon fill="none" stroke="black" points="145.5,-102 46.5,-102 46.5,-78 145.5,-78 157.5,-90 145.5,-102"/>
<text text-anchor="middle" x="102" y="-86.3" font-family="Times,serif" font-size="14.00">zip_index_vcf</text>
</g>
<!-- call&#45;htsbox&#45;&gt;call&#45;zip_index_vcf -->
<g id="edge3" class="edge">
<title>call&#45;htsbox&#45;&gt;call&#45;zip_index_vcf</title>
<path fill="none" stroke="black" d="M111.03,-143.7C109.71,-135.98 108.12,-126.71 106.65,-118.11"/>
<polygon fill="black" stroke="black" points="110.07,-117.37 104.93,-108.1 103.17,-118.55 110.07,-117.37"/>
</g>
<!-- call&#45;zip_index_vcf&#45;&gt;call&#45;bcftools_stats -->
<g id="edge4" class="edge">
<title>call&#45;zip_index_vcf&#45;&gt;call&#45;bcftools_stats</title>
<path fill="none" stroke="black" d="M112.38,-71.7C117.26,-63.56 123.19,-53.69 128.58,-44.7"/>
<polygon fill="black" stroke="black" points="131.59,-46.48 133.74,-36.1 125.59,-42.88 131.59,-46.48"/>
</g>
</g>
</svg>
