<?xml version="1.0" encoding="UTF-8" standalone="no"?>
<!DOCTYPE svg PUBLIC "-//W3C//DTD SVG 1.1//EN"
 "http://www.w3.org/Graphics/SVG/1.1/DTD/svg11.dtd">
<!-- Generated by graphviz version 2.43.0 (0)
 -->
<!-- Title: %3 Pages: 1 -->
<svg width="439pt" height="210pt"
 viewBox="0.00 0.00 439.00 209.50" xmlns="http://www.w3.org/2000/svg" xmlns:xlink="http://www.w3.org/1999/xlink">
<g id="graph0" class="graph" transform="scale(1 1) rotate(0) translate(4 205.5)">
<title>%3</title>
<polygon fill="white" stroke="transparent" points="-4,4 -4,-205.5 435,-205.5 435,4 -4,4"/>
<g id="clust1" class="cluster">
<title>cluster&#45;scatter&#45;L22C2&#45;bam_object</title>
<polygon fill="none" stroke="black" points="8,-153.5 8,-193.5 183,-193.5 183,-153.5 8,-153.5"/>
<text text-anchor="middle" x="95.5" y="-178.3" font-family="Times,serif" font-size="14.00">scatter(aligned_bams)</text>
</g>
<!-- scatter&#45;L22C2&#45;bam_object -->
<!-- call&#45;deepvariant_make_examples -->
<g id="node2" class="node">
<title>call&#45;deepvariant_make_examples</title>
<polygon fill="none" stroke="black" points="399.5,-174 190.5,-174 190.5,-150 399.5,-150 411.5,-162 399.5,-174"/>
<text text-anchor="middle" x="301" y="-158.3" font-family="Times,serif" font-size="14.00">deepvariant_make_examples</text>
</g>
<!-- call&#45;deepvariant_call_variants -->
<g id="node3" class="node">
<title>call&#45;deepvariant_call_variants</title>
<polygon fill="none" stroke="black" points="324.5,-102 137.5,-102 137.5,-78 324.5,-78 336.5,-90 324.5,-102"/>
<text text-anchor="middle" x="237" y="-86.3" font-family="Times,serif" font-size="14.00">deepvariant_call_variants</text>
</g>
<!-- call&#45;deepvariant_make_examples&#45;&gt;call&#45;deepvariant_call_variants -->
<g id="edge1" class="edge">
<title>call&#45;deepvariant_make_examples&#45;&gt;call&#45;deepvariant_call_variants</title>
<path fill="none" stroke="black" d="M285.18,-143.7C277.43,-135.22 267.96,-124.86 259.48,-115.58"/>
<polygon fill="black" stroke="black" points="261.97,-113.12 252.64,-108.1 256.8,-117.85 261.97,-113.12"/>
</g>
<!-- call&#45;deepvariant_postprocess_variants -->
<g id="node4" class="node">
<title>call&#45;deepvariant_postprocess_variants</title>
<polygon fill="none" stroke="black" points="419,-30 171,-30 171,-6 419,-6 431,-18 419,-30"/>
<text text-anchor="middle" x="301" y="-14.3" font-family="Times,serif" font-size="14.00">deepvariant_postprocess_variants</text>
</g>
<!-- call&#45;deepvariant_make_examples&#45;&gt;call&#45;deepvariant_postprocess_variants -->
<g id="edge3" class="edge">
<title>call&#45;deepvariant_make_examples&#45;&gt;call&#45;deepvariant_postprocess_variants</title>
<path fill="none" stroke="black" d="M321.38,-143.53C330.81,-134.09 341.01,-121.6 346,-108 351.52,-92.98 351.52,-87.02 346,-72 342.22,-61.7 335.44,-52.02 328.28,-43.84"/>
<polygon fill="black" stroke="black" points="330.77,-41.38 321.38,-36.47 325.66,-46.16 330.77,-41.38"/>
</g>
<!-- call&#45;deepvariant_call_variants&#45;&gt;call&#45;deepvariant_postprocess_variants -->
<g id="edge2" class="edge">
<title>call&#45;deepvariant_call_variants&#45;&gt;call&#45;deepvariant_postprocess_variants</title>
<path fill="none" stroke="black" d="M252.82,-71.7C260.57,-63.22 270.04,-52.86 278.52,-43.58"/>
<polygon fill="black" stroke="black" points="281.2,-45.85 285.36,-36.1 276.03,-41.12 281.2,-45.85"/>
</g>
</g>
</svg>
