<?xml version="1.0" encoding="UTF-8" standalone="no"?>
<!DOCTYPE svg PUBLIC "-//W3C//DTD SVG 1.1//EN"
 "http://www.w3.org/Graphics/SVG/1.1/DTD/svg11.dtd">
<!-- Generated by graphviz version 7.1.0 (20230121.1956)
 -->
<!-- Pages: 1 -->
<svg width="349pt" height="210pt"
 viewBox="0.00 0.00 348.50 209.50" xmlns="http://www.w3.org/2000/svg" xmlns:xlink="http://www.w3.org/1999/xlink">
<g id="graph0" class="graph" transform="scale(1 1) rotate(0) translate(4 205.5)">
<polygon fill="white" stroke="none" points="-4,4 -4,-205.5 344.5,-205.5 344.5,4 -4,4"/>
<g id="clust1" class="cluster">
<title>cluster&#45;scatter&#45;L20C2&#45;bam_object</title>
<polygon fill="none" stroke="black" points="8,-153.5 8,-193.5 145,-193.5 145,-153.5 8,-153.5"/>
<text text-anchor="middle" x="76.5" y="-178.3" font-family="Times,serif" font-size="14.00">scatter(aligned_bams)</text>
</g>
<!-- scatter&#45;L20C2&#45;bam_object -->
<!-- call&#45;deepvariant_make_examples -->
<g id="node2" class="node">
<title>call&#45;deepvariant_make_examples</title>
<polygon fill="none" stroke="black" points="316.5,-174 153.5,-174 153.5,-150 316.5,-150 328.5,-162 316.5,-174"/>
<text text-anchor="middle" x="241" y="-158.3" font-family="Times,serif" font-size="14.00">deepvariant_make_examples</text>
</g>
<!-- call&#45;deepvariant_call_variants -->
<g id="node3" class="node">
<title>call&#45;deepvariant_call_variants</title>
<polygon fill="none" stroke="black" points="253.5,-102 110.5,-102 110.5,-78 253.5,-78 265.5,-90 253.5,-102"/>
<text text-anchor="middle" x="188" y="-86.3" font-family="Times,serif" font-size="14.00">deepvariant_call_variants</text>
</g>
<!-- call&#45;deepvariant_make_examples&#45;&gt;call&#45;deepvariant_call_variants -->
<g id="edge1" class="edge">
<title>call&#45;deepvariant_make_examples&#45;&gt;call&#45;deepvariant_call_variants</title>
<path fill="none" stroke="black" d="M227.9,-143.7C221.87,-135.73 214.58,-126.1 207.89,-117.26"/>
<polygon fill="black" stroke="black" points="210.69,-115.17 201.86,-109.31 205.11,-119.4 210.69,-115.17"/>
</g>
<!-- call&#45;deepvariant_postprocess_variants -->
<g id="node4" class="node">
<title>call&#45;deepvariant_postprocess_variants</title>
<polygon fill="none" stroke="black" points="328.5,-30 141.5,-30 141.5,-6 328.5,-6 340.5,-18 328.5,-30"/>
<text text-anchor="middle" x="241" y="-14.3" font-family="Times,serif" font-size="14.00">deepvariant_postprocess_variants</text>
</g>
<!-- call&#45;deepvariant_make_examples&#45;&gt;call&#45;deepvariant_postprocess_variants -->
<g id="edge3" class="edge">
<title>call&#45;deepvariant_make_examples&#45;&gt;call&#45;deepvariant_postprocess_variants</title>
<path fill="none" stroke="black" d="M255.75,-143.63C263.09,-133.85 271.19,-121.01 275,-108 279.5,-92.65 279.5,-87.35 275,-72 272.29,-62.75 267.41,-53.59 262.18,-45.55"/>
<polygon fill="black" stroke="black" points="265.23,-43.79 256.62,-37.61 259.49,-47.8 265.23,-43.79"/>
</g>
<!-- call&#45;deepvariant_call_variants&#45;&gt;call&#45;deepvariant_postprocess_variants -->
<g id="edge2" class="edge">
<title>call&#45;deepvariant_call_variants&#45;&gt;call&#45;deepvariant_postprocess_variants</title>
<path fill="none" stroke="black" d="M201.1,-71.7C207.13,-63.73 214.42,-54.1 221.11,-45.26"/>
<polygon fill="black" stroke="black" points="223.89,-47.4 227.14,-37.31 218.31,-43.17 223.89,-47.4"/>
</g>
</g>
</svg>
