<?xml version="1.0" encoding="UTF-8" standalone="no"?>
<!DOCTYPE svg PUBLIC "-//W3C//DTD SVG 1.1//EN"
 "http://www.w3.org/Graphics/SVG/1.1/DTD/svg11.dtd">
<!-- Generated by graphviz version 2.43.0 (0)
 -->
<!-- Title: %3 Pages: 1 -->
<svg width="668pt" height="457pt"
 viewBox="0.00 0.00 667.80 457.00" xmlns="http://www.w3.org/2000/svg" xmlns:xlink="http://www.w3.org/1999/xlink">
<g id="graph0" class="graph" transform="scale(1 1) rotate(0) translate(4 453)">
<title>%3</title>
<polygon fill="white" stroke="transparent" points="-4,4 -4,-453 663.8,-453 663.8,4 -4,4"/>
<g id="clust1" class="cluster">
<title>cluster&#45;scatter&#45;L26C2&#45;sample</title>
<polygon fill="none" stroke="black" points="198.8,-219 198.8,-333 445.8,-333 445.8,-219 198.8,-219"/>
<text text-anchor="middle" x="322.3" y="-317.8" font-family="Times,serif" font-size="14.00">scatter([child, father, mother])</text>
</g>
<g id="clust2" class="cluster">
<title>cluster&#45;scatter&#45;L27C3&#45;movie_bam</title>
<polygon fill="none" stroke="black" points="216.8,-227 216.8,-302 437.8,-302 437.8,-227 216.8,-227"/>
<text text-anchor="middle" x="327.3" y="-286.8" font-family="Times,serif" font-size="14.00">scatter(sample.movie_bams)</text>
</g>
<g id="clust3" class="cluster">
<title>cluster&#45;scatter&#45;L67C2&#45;zipped_assembly_fasta</title>
<polygon fill="none" stroke="black" points="269.8,-8 269.8,-83 651.8,-83 651.8,-8 269.8,-8"/>
<text text-anchor="middle" x="460.8" y="-67.8" font-family="Times,serif" font-size="14.00">scatter(assemble_genome.zipped_assembly_fastas)</text>
</g>
<!-- call&#45;parse_trio -->
<g id="node1" class="node">
<title>call&#45;parse_trio</title>
<polygon fill="none" stroke="black" points="225.3,-443 148.3,-443 148.3,-419 225.3,-419 237.3,-431 225.3,-443"/>
<text text-anchor="middle" x="192.8" y="-427.3" font-family="Times,serif" font-size="14.00">parse_trio</text>
</g>
<!-- decl&#45;child -->
<g id="node2" class="node">
<title>decl&#45;child</title>
<text text-anchor="middle" x="271.8" y="-355.3" font-family="Times,serif" font-size="14.00">child</text>
</g>
<!-- call&#45;parse_trio&#45;&gt;decl&#45;child -->
<g id="edge1" class="edge">
<title>call&#45;parse_trio&#45;&gt;decl&#45;child</title>
<path fill="none" stroke="black" d="M212.33,-412.7C222.19,-403.97 234.29,-393.24 245,-383.75"/>
<polygon fill="black" stroke="black" points="247.34,-386.36 252.5,-377.1 242.7,-381.12 247.34,-386.36"/>
</g>
<!-- decl&#45;father -->
<g id="node3" class="node">
<title>decl&#45;father</title>
<text text-anchor="middle" x="110.8" y="-355.3" font-family="Times,serif" font-size="14.00">father</text>
</g>
<!-- call&#45;parse_trio&#45;&gt;decl&#45;father -->
<g id="edge2" class="edge">
<title>call&#45;parse_trio&#45;&gt;decl&#45;father</title>
<path fill="none" stroke="black" d="M172.54,-412.7C162.31,-403.97 149.74,-393.24 138.63,-383.75"/>
<polygon fill="black" stroke="black" points="140.72,-380.94 130.84,-377.1 136.17,-386.26 140.72,-380.94"/>
</g>
<!-- decl&#45;mother -->
<g id="node4" class="node">
<title>decl&#45;mother</title>
<text text-anchor="middle" x="192.8" y="-355.3" font-family="Times,serif" font-size="14.00">mother</text>
</g>
<!-- call&#45;parse_trio&#45;&gt;decl&#45;mother -->
<g id="edge3" class="edge">
<title>call&#45;parse_trio&#45;&gt;decl&#45;mother</title>
<path fill="none" stroke="black" d="M192.8,-412.7C192.8,-404.98 192.8,-395.71 192.8,-387.11"/>
<polygon fill="black" stroke="black" points="196.3,-387.1 192.8,-377.1 189.3,-387.1 196.3,-387.1"/>
</g>
<!-- scatter&#45;L26C2&#45;sample -->
<!-- decl&#45;child&#45;&gt;scatter&#45;L26C2&#45;sample -->
<g id="edge6" class="edge">
<title>decl&#45;child&#45;&gt;scatter&#45;L26C2&#45;sample</title>
<path fill="none" stroke="black" d="M244.42,-344.7C241.53,-343.41 238.62,-342.15 235.8,-341 230.01,-338.63 225.42,-339.21 221.31,-338.45"/>
<polygon fill="black" stroke="black" points="223.11,-335.45 212.8,-333 219.33,-341.34 223.11,-335.45"/>
</g>
<!-- decl&#45;father&#45;&gt;scatter&#45;L26C2&#45;sample -->
<g id="edge4" class="edge">
<title>decl&#45;father&#45;&gt;scatter&#45;L26C2&#45;sample</title>
<path fill="none" stroke="black" d="M141.2,-343.91C144.07,-342.83 146.97,-341.84 149.8,-341 166.98,-335.91 178.35,-344.46 190.83,-338.08"/>
<polygon fill="black" stroke="black" points="193.03,-340.8 198.81,-331.92 188.75,-335.26 193.03,-340.8"/>
</g>
<!-- call&#45;yak_count_father -->
<g id="node8" class="node">
<title>call&#45;yak_count_father</title>
<polygon fill="none" stroke="black" points="306.8,-193 180.8,-193 180.8,-169 306.8,-169 318.8,-181 306.8,-193"/>
<text text-anchor="middle" x="249.8" y="-177.3" font-family="Times,serif" font-size="14.00">yak_count_father</text>
</g>
<!-- decl&#45;father&#45;&gt;call&#45;yak_count_father -->
<g id="edge7" class="edge">
<title>decl&#45;father&#45;&gt;call&#45;yak_count_father</title>
<path fill="none" stroke="black" d="M80.71,-358C61.11,-356.24 36.85,-350.32 23.8,-333 -6.68,-292.53 -9,-257.61 23.8,-219 42.56,-196.92 113.22,-187.99 170.6,-184.39"/>
<polygon fill="black" stroke="black" points="170.99,-187.87 180.77,-183.8 170.59,-180.89 170.99,-187.87"/>
</g>
<!-- decl&#45;haplotype_key_map -->
<g id="node10" class="node">
<title>decl&#45;haplotype_key_map</title>
<text text-anchor="middle" x="110.8" y="-249.3" font-family="Times,serif" font-size="14.00">haplotype_key_map</text>
</g>
<!-- decl&#45;father&#45;&gt;decl&#45;haplotype_key_map -->
<g id="edge11" class="edge">
<title>decl&#45;father&#45;&gt;decl&#45;haplotype_key_map</title>
<path fill="none" stroke="black" d="M110.8,-340.83C110.8,-324.64 110.8,-300.13 110.8,-281.27"/>
<polygon fill="black" stroke="black" points="114.3,-281.2 110.8,-271.2 107.3,-281.2 114.3,-281.2"/>
</g>
<!-- decl&#45;mother&#45;&gt;scatter&#45;L26C2&#45;sample -->
<g id="edge5" class="edge">
<title>decl&#45;mother&#45;&gt;scatter&#45;L26C2&#45;sample</title>
<path fill="none" stroke="black" d="M196.41,-340.82C196.63,-339.67 196.84,-338.52 197.13,-336.84"/>
<polygon fill="black" stroke="black" points="200.64,-337.12 198.81,-326.68 193.73,-335.98 200.64,-337.12"/>
</g>
<!-- call&#45;yak_count_mother -->
<g id="node9" class="node">
<title>call&#45;yak_count_mother</title>
<polygon fill="none" stroke="black" points="510.8,-193 376.8,-193 376.8,-169 510.8,-169 522.8,-181 510.8,-193"/>
<text text-anchor="middle" x="449.8" y="-177.3" font-family="Times,serif" font-size="14.00">yak_count_mother</text>
</g>
<!-- decl&#45;mother&#45;&gt;call&#45;yak_count_mother -->
<g id="edge10" class="edge">
<title>decl&#45;mother&#45;&gt;call&#45;yak_count_mother</title>
<path fill="none" stroke="black" d="M227.23,-343.23C230.09,-342.36 232.98,-341.6 235.8,-341 247.01,-338.64 433.65,-341.04 441.8,-333 474.16,-301.1 466.42,-243.3 458.01,-209.21"/>
<polygon fill="black" stroke="black" points="461.37,-208.22 455.42,-199.45 454.6,-210.02 461.37,-208.22"/>
</g>
<!-- decl&#45;mother&#45;&gt;decl&#45;haplotype_key_map -->
<g id="edge12" class="edge">
<title>decl&#45;mother&#45;&gt;decl&#45;haplotype_key_map</title>
<path fill="none" stroke="black" d="M179.26,-340.83C166.03,-324.04 145.73,-298.3 130.67,-279.19"/>
<polygon fill="black" stroke="black" points="133.31,-276.88 124.37,-271.2 127.81,-281.22 133.31,-276.88"/>
</g>
<!-- call&#45;samtools_fasta -->
<g id="node5" class="node">
<title>call&#45;samtools_fasta</title>
<polygon fill="none" stroke="black" points="397.8,-265 287.8,-265 287.8,-241 397.8,-241 409.8,-253 397.8,-265"/>
<text text-anchor="middle" x="348.8" y="-249.3" font-family="Times,serif" font-size="14.00">samtools_fasta</text>
</g>
<!-- call&#45;samtools_fasta&#45;&gt;call&#45;yak_count_father -->
<g id="edge8" class="edge">
<title>call&#45;samtools_fasta&#45;&gt;call&#45;yak_count_father</title>
<path fill="none" stroke="black" d="M324.59,-234.88C311.88,-225.89 296.14,-214.76 282.38,-205.03"/>
<polygon fill="black" stroke="black" points="284.3,-202.11 274.12,-199.19 280.26,-207.82 284.3,-202.11"/>
</g>
<!-- call&#45;samtools_fasta&#45;&gt;call&#45;yak_count_mother -->
<g id="edge9" class="edge">
<title>call&#45;samtools_fasta&#45;&gt;call&#45;yak_count_mother</title>
<path fill="none" stroke="black" d="M373.51,-234.88C386.47,-225.89 402.53,-214.76 416.57,-205.03"/>
<polygon fill="black" stroke="black" points="418.78,-207.76 425,-199.19 414.79,-202.01 418.78,-207.76"/>
</g>
<!-- call&#45;assemble_genome -->
<g id="node11" class="node">
<title>call&#45;assemble_genome</title>
<polygon fill="none" stroke="black" points="409.8,-121 275.8,-121 275.8,-97 409.8,-97 421.8,-109 409.8,-121"/>
<text text-anchor="middle" x="348.8" y="-105.3" font-family="Times,serif" font-size="14.00">assemble_genome</text>
</g>
<!-- call&#45;samtools_fasta&#45;&gt;call&#45;assemble_genome -->
<g id="edge13" class="edge">
<title>call&#45;samtools_fasta&#45;&gt;call&#45;assemble_genome</title>
<path fill="none" stroke="black" d="M348.8,-234.87C348.8,-210.67 348.8,-166.21 348.8,-137.39"/>
<polygon fill="black" stroke="black" points="352.3,-137.19 348.8,-127.19 345.3,-137.19 352.3,-137.19"/>
</g>
<!-- scatter&#45;L27C3&#45;movie_bam -->
<!-- call&#45;yak_count_father&#45;&gt;call&#45;assemble_genome -->
<g id="edge14" class="edge">
<title>call&#45;yak_count_father&#45;&gt;call&#45;assemble_genome</title>
<path fill="none" stroke="black" d="M274.02,-162.88C286.73,-153.89 302.47,-142.76 316.23,-133.03"/>
<polygon fill="black" stroke="black" points="318.35,-135.82 324.49,-127.19 314.31,-130.11 318.35,-135.82"/>
</g>
<!-- call&#45;yak_trioeval -->
<g id="node12" class="node">
<title>call&#45;yak_trioeval</title>
<polygon fill="none" stroke="black" points="473.3,-46 382.3,-46 382.3,-22 473.3,-22 485.3,-34 473.3,-46"/>
<text text-anchor="middle" x="433.8" y="-30.3" font-family="Times,serif" font-size="14.00">yak_trioeval</text>
</g>
<!-- call&#45;yak_count_father&#45;&gt;call&#45;yak_trioeval -->
<g id="edge17" class="edge">
<title>call&#45;yak_count_father&#45;&gt;call&#45;yak_trioeval</title>
<path fill="none" stroke="black" d="M247.55,-162.68C245.97,-142.29 246.96,-108.92 266.8,-91 282.04,-77.25 339.38,-89.61 358.8,-83 375.25,-77.4 391.71,-67.47 405,-58.09"/>
<polygon fill="black" stroke="black" points="407.25,-60.78 413.25,-52.05 403.11,-55.13 407.25,-60.78"/>
</g>
<!-- call&#45;yak_count_mother&#45;&gt;call&#45;assemble_genome -->
<g id="edge15" class="edge">
<title>call&#45;yak_count_mother&#45;&gt;call&#45;assemble_genome</title>
<path fill="none" stroke="black" d="M425.1,-162.88C412.14,-153.89 396.08,-142.76 382.04,-133.03"/>
<polygon fill="black" stroke="black" points="383.82,-130.01 373.61,-127.19 379.83,-135.76 383.82,-130.01"/>
</g>
<!-- call&#45;yak_count_mother&#45;&gt;call&#45;yak_trioeval -->
<g id="edge18" class="edge">
<title>call&#45;yak_count_mother&#45;&gt;call&#45;yak_trioeval</title>
<path fill="none" stroke="black" d="M447.91,-162.8C445.16,-137.94 440.07,-91.74 436.81,-62.23"/>
<polygon fill="black" stroke="black" points="440.28,-61.74 435.7,-52.18 433.32,-62.5 440.28,-61.74"/>
</g>
<!-- scatter&#45;L67C2&#45;zipped_assembly_fasta -->
<!-- call&#45;assemble_genome&#45;&gt;scatter&#45;L67C2&#45;zipped_assembly_fasta -->
<g id="edge16" class="edge">
<title>call&#45;assemble_genome&#45;&gt;scatter&#45;L67C2&#45;zipped_assembly_fasta</title>
<path fill="none" stroke="black" d="M348.8,-90.7C348.8,-90.55 348.8,-90.4 348.8,-90.24"/>
<polygon fill="black" stroke="black" points="352.3,-93 348.8,-83 345.3,-93 352.3,-93"/>
</g>
</g>
</svg>
