<?xml version="1.0" encoding="UTF-8" standalone="no"?>
<!DOCTYPE svg PUBLIC "-//W3C//DTD SVG 1.1//EN"
 "http://www.w3.org/Graphics/SVG/1.1/DTD/svg11.dtd">
<!-- Generated by graphviz version 7.1.0 (20230121.1956)
 -->
<!-- Pages: 1 -->
<svg width="491pt" height="360pt"
 viewBox="0.00 0.00 491.00 360.00" xmlns="http://www.w3.org/2000/svg" xmlns:xlink="http://www.w3.org/1999/xlink">
<g id="graph0" class="graph" transform="scale(1 1) rotate(0) translate(4 356)">
<polygon fill="white" stroke="none" points="-4,4 -4,-356 487,-356 487,4 -4,4"/>
<g id="clust1" class="cluster">
<title>cluster&#45;scatter&#45;L25C2&#45;family</title>
<polygon fill="none" stroke="black" points="8,-8 8,-308 475,-308 475,-8 8,-8"/>
<text text-anchor="middle" x="241.5" y="-292.8" font-family="Times,serif" font-size="14.00">scatter(parse_families.families)</text>
</g>
<g id="clust2" class="cluster">
<title>cluster&#45;scatter&#45;L29C3&#45;movie_bam</title>
<polygon fill="none" stroke="black" points="295,-202 295,-277 467,-277 467,-202 295,-202"/>
<text text-anchor="middle" x="381" y="-261.8" font-family="Times,serif" font-size="14.00">scatter(father.movie_bams)</text>
</g>
<g id="clust3" class="cluster">
<title>cluster&#45;scatter&#45;L44C3&#45;movie_bam</title>
<polygon fill="none" stroke="black" points="108,-202 108,-277 287,-277 287,-202 108,-202"/>
<text text-anchor="middle" x="197.5" y="-261.8" font-family="Times,serif" font-size="14.00">scatter(mother.movie_bams)</text>
</g>
<g id="clust4" class="cluster">
<title>cluster&#45;scatter&#45;L65C3&#45;child_index</title>
<polygon fill="none" stroke="black" points="16,-16 16,-194 210,-194 210,-16 16,-16"/>
<text text-anchor="middle" x="113" y="-178.8" font-family="Times,serif" font-size="14.00">scatter(family.child_indices)</text>
</g>
<g id="clust5" class="cluster">
<title>cluster&#45;scatter&#45;L68C4&#45;movie_bam</title>
<polygon fill="none" stroke="black" points="35,-88 35,-163 202,-163 202,-88 35,-88"/>
<text text-anchor="middle" x="118.5" y="-147.8" font-family="Times,serif" font-size="14.00">scatter(child.movie_bams)</text>
</g>
<!-- call&#45;parse_families -->
<g id="node1" class="node">
<title>call&#45;parse_families</title>
<polygon fill="none" stroke="black" points="94,-346 10,-346 10,-322 94,-322 106,-334 94,-346"/>
<text text-anchor="middle" x="58" y="-330.3" font-family="Times,serif" font-size="14.00">parse_families</text>
</g>
<!-- scatter&#45;L25C2&#45;family -->
<!-- call&#45;parse_families&#45;&gt;scatter&#45;L25C2&#45;family -->
<g id="edge1" class="edge">
<title>call&#45;parse_families&#45;&gt;scatter&#45;L25C2&#45;family</title>
<path fill="none" stroke="black" d="M58,-315.83C58,-315.67 58,-315.52 58,-315.37"/>
<polygon fill="black" stroke="black" points="61.5,-319.51 58,-309.51 54.5,-319.51 61.5,-319.51"/>
</g>
<!-- call&#45;samtools_fasta_father -->
<g id="node2" class="node">
<title>call&#45;samtools_fasta_father</title>
<polygon fill="none" stroke="black" points="447,-240 323,-240 323,-216 447,-216 459,-228 447,-240"/>
<text text-anchor="middle" x="391" y="-224.3" font-family="Times,serif" font-size="14.00">samtools_fasta_father</text>
</g>
<!-- call&#45;yak_count_father -->
<g id="node4" class="node">
<title>call&#45;yak_count_father</title>
<polygon fill="none" stroke="black" points="454.5,-126 355.5,-126 355.5,-102 454.5,-102 466.5,-114 454.5,-126"/>
<text text-anchor="middle" x="411" y="-110.3" font-family="Times,serif" font-size="14.00">yak_count_father</text>
</g>
<!-- call&#45;samtools_fasta_father&#45;&gt;call&#45;yak_count_father -->
<g id="edge2" class="edge">
<title>call&#45;samtools_fasta_father&#45;&gt;call&#45;yak_count_father</title>
<path fill="none" stroke="black" d="M394.12,-209.5C397.28,-191.83 402.21,-164.24 405.92,-143.43"/>
<polygon fill="black" stroke="black" points="409.32,-144.33 407.63,-133.87 402.43,-143.1 409.32,-144.33"/>
</g>
<!-- scatter&#45;L29C3&#45;movie_bam -->
<!-- call&#45;assemble_genome -->
<g id="node10" class="node">
<title>call&#45;assemble_genome</title>
<polygon fill="none" stroke="black" points="189.5,-54 84.5,-54 84.5,-30 189.5,-30 201.5,-42 189.5,-54"/>
<text text-anchor="middle" x="143" y="-38.3" font-family="Times,serif" font-size="14.00">assemble_genome</text>
</g>
<!-- call&#45;yak_count_father&#45;&gt;call&#45;assemble_genome -->
<g id="edge4" class="edge">
<title>call&#45;yak_count_father&#45;&gt;call&#45;assemble_genome</title>
<path fill="none" stroke="black" d="M368.98,-95.52C361.72,-92.81 354.19,-90.18 347,-88 303,-74.64 252.55,-63.48 212.82,-55.61"/>
<polygon fill="black" stroke="black" points="213.63,-52.2 203.14,-53.72 212.29,-59.07 213.63,-52.2"/>
</g>
<!-- call&#45;samtools_fasta_mother -->
<g id="node5" class="node">
<title>call&#45;samtools_fasta_mother</title>
<polygon fill="none" stroke="black" points="266.5,-240 135.5,-240 135.5,-216 266.5,-216 278.5,-228 266.5,-240"/>
<text text-anchor="middle" x="207" y="-224.3" font-family="Times,serif" font-size="14.00">samtools_fasta_mother</text>
</g>
<!-- call&#45;yak_count_mother -->
<g id="node7" class="node">
<title>call&#45;yak_count_mother</title>
<polygon fill="none" stroke="black" points="325.5,-126 218.5,-126 218.5,-102 325.5,-102 337.5,-114 325.5,-126"/>
<text text-anchor="middle" x="278" y="-110.3" font-family="Times,serif" font-size="14.00">yak_count_mother</text>
</g>
<!-- call&#45;samtools_fasta_mother&#45;&gt;call&#45;yak_count_mother -->
<g id="edge3" class="edge">
<title>call&#45;samtools_fasta_mother&#45;&gt;call&#45;yak_count_mother</title>
<path fill="none" stroke="black" d="M218.09,-209.5C229.56,-191.42 247.6,-162.96 260.89,-141.99"/>
<polygon fill="black" stroke="black" points="263.78,-143.98 266.17,-133.66 257.86,-140.23 263.78,-143.98"/>
</g>
<!-- scatter&#45;L44C3&#45;movie_bam -->
<!-- call&#45;yak_count_mother&#45;&gt;call&#45;assemble_genome -->
<g id="edge6" class="edge">
<title>call&#45;yak_count_mother&#45;&gt;call&#45;assemble_genome</title>
<path fill="none" stroke="black" d="M244.28,-95.52C226.75,-86.43 205.13,-75.22 186.37,-65.49"/>
<polygon fill="black" stroke="black" points="188.12,-62.45 177.63,-60.96 184.9,-68.67 188.12,-62.45"/>
</g>
<!-- call&#45;samtools_fasta_child -->
<g id="node8" class="node">
<title>call&#45;samtools_fasta_child</title>
<polygon fill="none" stroke="black" points="181.5,-126 62.5,-126 62.5,-102 181.5,-102 193.5,-114 181.5,-126"/>
<text text-anchor="middle" x="128" y="-110.3" font-family="Times,serif" font-size="14.00">samtools_fasta_child</text>
</g>
<!-- call&#45;samtools_fasta_child&#45;&gt;call&#45;assemble_genome -->
<g id="edge5" class="edge">
<title>call&#45;samtools_fasta_child&#45;&gt;call&#45;assemble_genome</title>
<path fill="none" stroke="black" d="M131.71,-95.7C133.29,-88.32 135.17,-79.52 136.95,-71.25"/>
<polygon fill="black" stroke="black" points="140.34,-72.1 139.02,-61.58 133.5,-70.63 140.34,-72.1"/>
</g>
<!-- scatter&#45;L68C4&#45;movie_bam -->
<!-- scatter&#45;L65C3&#45;child_index -->
</g>
</svg>
