<?xml version="1.0" encoding="UTF-8" standalone="no"?>
<!DOCTYPE svg PUBLIC "-//W3C//DTD SVG 1.1//EN"
 "http://www.w3.org/Graphics/SVG/1.1/DTD/svg11.dtd">
<!-- Generated by graphviz version 2.43.0 (0)
 -->
<!-- Title: %3 Pages: 1 -->
<svg width="738pt" height="443pt"
 viewBox="0.00 0.00 738.00 443.00" xmlns="http://www.w3.org/2000/svg" xmlns:xlink="http://www.w3.org/1999/xlink">
<g id="graph0" class="graph" transform="scale(1 1) rotate(0) translate(4 439)">
<title>%3</title>
<polygon fill="white" stroke="transparent" points="-4,4 -4,-439 734,-439 734,4 -4,4"/>
<g id="clust1" class="cluster">
<title>cluster&#45;scatter&#45;L24C2&#45;family</title>
<polygon fill="none" stroke="black" points="8,-8 8,-391 722,-391 722,-8 8,-8"/>
<text text-anchor="middle" x="365" y="-375.8" font-family="Times,serif" font-size="14.00">scatter(parse_families.families)</text>
</g>
<g id="clust2" class="cluster">
<title>cluster&#45;scatter&#45;L28C3&#45;movie_bam</title>
<polygon fill="none" stroke="black" points="188,-285 188,-360 400,-360 400,-285 188,-285"/>
<text text-anchor="middle" x="294" y="-344.8" font-family="Times,serif" font-size="14.00">scatter(father.movie_bams)</text>
</g>
<g id="clust3" class="cluster">
<title>cluster&#45;scatter&#45;L43C3&#45;movie_bam</title>
<polygon fill="none" stroke="black" points="433,-285 433,-360 653,-360 653,-285 433,-285"/>
<text text-anchor="middle" x="543" y="-344.8" font-family="Times,serif" font-size="14.00">scatter(mother.movie_bams)</text>
</g>
<g id="clust4" class="cluster">
<title>cluster&#45;scatter&#45;L64C3&#45;child_index</title>
<polygon fill="none" stroke="black" points="162,-16 162,-277 560,-277 560,-16 162,-16"/>
<text text-anchor="middle" x="361" y="-261.8" font-family="Times,serif" font-size="14.00">scatter(family.child_indices)</text>
</g>
<g id="clust5" class="cluster">
<title>cluster&#45;scatter&#45;L67C4&#45;movie_bam</title>
<polygon fill="none" stroke="black" points="202,-171 202,-246 406,-246 406,-171 202,-171"/>
<text text-anchor="middle" x="304" y="-230.8" font-family="Times,serif" font-size="14.00">scatter(child.movie_bams)</text>
</g>
<g id="clust6" class="cluster">
<title>cluster&#45;scatter&#45;L90C4&#45;zipped_assembly_fasta</title>
<polygon fill="none" stroke="black" points="170,-24 170,-99 552,-99 552,-24 170,-24"/>
<text text-anchor="middle" x="361" y="-83.8" font-family="Times,serif" font-size="14.00">scatter(assemble_genome.zipped_assembly_fastas)</text>
</g>
<!-- call&#45;parse_families -->
<g id="node1" class="node">
<title>call&#45;parse_families</title>
<polygon fill="none" stroke="black" points="225.5,-429 118.5,-429 118.5,-405 225.5,-405 237.5,-417 225.5,-429"/>
<text text-anchor="middle" x="178" y="-413.3" font-family="Times,serif" font-size="14.00">parse_families</text>
</g>
<!-- scatter&#45;L24C2&#45;family -->
<!-- call&#45;parse_families&#45;&gt;scatter&#45;L24C2&#45;family -->
<g id="edge1" class="edge">
<title>call&#45;parse_families&#45;&gt;scatter&#45;L24C2&#45;family</title>
<path fill="none" stroke="black" d="M178,-398.83C178,-398.67 178,-398.52 178,-398.37"/>
<polygon fill="black" stroke="black" points="181.5,-401 178,-391 174.5,-401 181.5,-401"/>
</g>
<!-- call&#45;samtools_fasta_father -->
<g id="node2" class="node">
<title>call&#45;samtools_fasta_father</title>
<polygon fill="none" stroke="black" points="377.5,-323 216.5,-323 216.5,-299 377.5,-299 389.5,-311 377.5,-323"/>
<text text-anchor="middle" x="303" y="-307.3" font-family="Times,serif" font-size="14.00">samtools_fasta_father</text>
</g>
<!-- call&#45;yak_count_father -->
<g id="node4" class="node">
<title>call&#45;yak_count_father</title>
<polygon fill="none" stroke="black" points="142,-209 16,-209 16,-185 142,-185 154,-197 142,-209"/>
<text text-anchor="middle" x="85" y="-193.3" font-family="Times,serif" font-size="14.00">yak_count_father</text>
</g>
<!-- call&#45;samtools_fasta_father&#45;&gt;call&#45;yak_count_father -->
<g id="edge2" class="edge">
<title>call&#45;samtools_fasta_father&#45;&gt;call&#45;yak_count_father</title>
<path fill="none" stroke="black" d="M241.89,-292.97C230.66,-290.11 219.01,-287.32 208,-285 185.98,-280.35 177.84,-287.63 158,-277 134.66,-264.5 114.78,-241.61 101.69,-223.67"/>
<polygon fill="black" stroke="black" points="104.44,-221.5 95.82,-215.33 98.71,-225.53 104.44,-221.5"/>
</g>
<!-- call&#45;assemble_genome -->
<g id="node10" class="node">
<title>call&#45;assemble_genome</title>
<polygon fill="none" stroke="black" points="477,-137 343,-137 343,-113 477,-113 489,-125 477,-137"/>
<text text-anchor="middle" x="416" y="-121.3" font-family="Times,serif" font-size="14.00">assemble_genome</text>
</g>
<!-- call&#45;samtools_fasta_father&#45;&gt;call&#45;assemble_genome -->
<g id="edge4" class="edge">
<title>call&#45;samtools_fasta_father&#45;&gt;call&#45;assemble_genome</title>
<path fill="none" stroke="black" d="M389.62,-294.27C397.45,-289.82 404.49,-284.17 410,-277 437.42,-241.35 430.81,-185.72 423.44,-152.87"/>
<polygon fill="black" stroke="black" points="426.82,-151.95 421.07,-143.06 420.02,-153.6 426.82,-151.95"/>
</g>
<!-- scatter&#45;L28C3&#45;movie_bam -->
<!-- call&#45;yak_count_father&#45;&gt;call&#45;assemble_genome -->
<g id="edge7" class="edge">
<title>call&#45;yak_count_father&#45;&gt;call&#45;assemble_genome</title>
<path fill="none" stroke="black" d="M130.97,-178.88C139.86,-175.97 149.16,-173.18 158,-171 233.79,-152.31 257.1,-157.52 332.67,-144.13"/>
<polygon fill="black" stroke="black" points="333.45,-147.54 342.66,-142.3 332.19,-140.66 333.45,-147.54"/>
</g>
<!-- call&#45;yak_trioeval -->
<g id="node11" class="node">
<title>call&#45;yak_trioeval</title>
<polygon fill="none" stroke="black" points="528.5,-62 437.5,-62 437.5,-38 528.5,-38 540.5,-50 528.5,-62"/>
<text text-anchor="middle" x="489" y="-46.3" font-family="Times,serif" font-size="14.00">yak_trioeval</text>
</g>
<!-- call&#45;yak_count_father&#45;&gt;call&#45;yak_trioeval -->
<g id="edge10" class="edge">
<title>call&#45;yak_count_father&#45;&gt;call&#45;yak_trioeval</title>
<path fill="none" stroke="black" d="M101.97,-178.68C124.25,-157.27 165.63,-121.84 209,-107 254.66,-91.38 380.57,-115.27 426,-99 440.37,-93.85 454.13,-84.14 465.1,-74.79"/>
<polygon fill="black" stroke="black" points="467.45,-77.39 472.57,-68.11 462.78,-72.17 467.45,-77.39"/>
</g>
<!-- call&#45;samtools_fasta_mother -->
<g id="node5" class="node">
<title>call&#45;samtools_fasta_mother</title>
<polygon fill="none" stroke="black" points="631.5,-323 462.5,-323 462.5,-299 631.5,-299 643.5,-311 631.5,-323"/>
<text text-anchor="middle" x="553" y="-307.3" font-family="Times,serif" font-size="14.00">samtools_fasta_mother</text>
</g>
<!-- call&#45;yak_count_mother -->
<g id="node7" class="node">
<title>call&#45;yak_count_mother</title>
<polygon fill="none" stroke="black" points="702,-209 568,-209 568,-185 702,-185 714,-197 702,-209"/>
<text text-anchor="middle" x="641" y="-193.3" font-family="Times,serif" font-size="14.00">yak_count_mother</text>
</g>
<!-- call&#45;samtools_fasta_mother&#45;&gt;call&#45;yak_count_mother -->
<g id="edge3" class="edge">
<title>call&#45;samtools_fasta_mother&#45;&gt;call&#45;yak_count_mother</title>
<path fill="none" stroke="black" d="M566.37,-292.99C580.97,-274.41 604.5,-244.45 621.24,-223.15"/>
<polygon fill="black" stroke="black" points="624.08,-225.2 627.51,-215.17 618.58,-220.87 624.08,-225.2"/>
</g>
<!-- call&#45;samtools_fasta_mother&#45;&gt;call&#45;assemble_genome -->
<g id="edge6" class="edge">
<title>call&#45;samtools_fasta_mother&#45;&gt;call&#45;assemble_genome</title>
<path fill="none" stroke="black" d="M517.4,-292.99C510.1,-288.46 502.86,-283.1 497,-277 461.85,-240.41 437.59,-185.56 425.3,-153.01"/>
<polygon fill="black" stroke="black" points="428.46,-151.47 421.74,-143.28 421.89,-153.88 428.46,-151.47"/>
</g>
<!-- scatter&#45;L43C3&#45;movie_bam -->
<!-- call&#45;yak_count_mother&#45;&gt;call&#45;assemble_genome -->
<g id="edge8" class="edge">
<title>call&#45;yak_count_mother&#45;&gt;call&#45;assemble_genome</title>
<path fill="none" stroke="black" d="M588.85,-178.92C580.55,-176.25 572.04,-173.53 564,-171 537.54,-162.68 508.34,-153.75 482.91,-146.05"/>
<polygon fill="black" stroke="black" points="483.59,-142.6 473,-143.06 481.56,-149.3 483.59,-142.6"/>
</g>
<!-- call&#45;yak_count_mother&#45;&gt;call&#45;yak_trioeval -->
<g id="edge11" class="edge">
<title>call&#45;yak_count_mother&#45;&gt;call&#45;yak_trioeval</title>
<path fill="none" stroke="black" d="M628.08,-178.96C613.53,-160.3 588.68,-129.97 564,-107 551.41,-95.29 536.42,-83.69 523.15,-74.11"/>
<polygon fill="black" stroke="black" points="524.91,-71.07 514.73,-68.13 520.86,-76.77 524.91,-71.07"/>
</g>
<!-- call&#45;samtools_fasta_child -->
<g id="node8" class="node">
<title>call&#45;samtools_fasta_child</title>
<polygon fill="none" stroke="black" points="385,-209 233,-209 233,-185 385,-185 397,-197 385,-209"/>
<text text-anchor="middle" x="315" y="-193.3" font-family="Times,serif" font-size="14.00">samtools_fasta_child</text>
</g>
<!-- call&#45;samtools_fasta_child&#45;&gt;call&#45;assemble_genome -->
<g id="edge5" class="edge">
<title>call&#45;samtools_fasta_child&#45;&gt;call&#45;assemble_genome</title>
<path fill="none" stroke="black" d="M339.71,-178.88C352.67,-169.89 368.73,-158.76 382.77,-149.03"/>
<polygon fill="black" stroke="black" points="384.97,-151.76 391.2,-143.19 380.98,-146.01 384.97,-151.76"/>
</g>
<!-- scatter&#45;L67C4&#45;movie_bam -->
<!-- scatter&#45;L90C4&#45;zipped_assembly_fasta -->
<!-- call&#45;assemble_genome&#45;&gt;scatter&#45;L90C4&#45;zipped_assembly_fasta -->
<g id="edge9" class="edge">
<title>call&#45;assemble_genome&#45;&gt;scatter&#45;L90C4&#45;zipped_assembly_fasta</title>
<path fill="none" stroke="black" d="M416,-106.7C416,-106.55 416,-106.4 416,-106.24"/>
<polygon fill="black" stroke="black" points="419.5,-109 416,-99 412.5,-109 419.5,-109"/>
</g>
<!-- scatter&#45;L64C3&#45;child_index -->
</g>
</svg>
