<?xml version="1.0" encoding="UTF-8" standalone="no"?>
<!DOCTYPE svg PUBLIC "-//W3C//DTD SVG 1.1//EN"
 "http://www.w3.org/Graphics/SVG/1.1/DTD/svg11.dtd">
<!-- Generated by graphviz version 2.43.0 (0)
 -->
<!-- Title: %3 Pages: 1 -->
<svg width="580pt" height="360pt"
 viewBox="0.00 0.00 580.00 360.00" xmlns="http://www.w3.org/2000/svg" xmlns:xlink="http://www.w3.org/1999/xlink">
<g id="graph0" class="graph" transform="scale(1 1) rotate(0) translate(4 356)">
<title>%3</title>
<polygon fill="white" stroke="transparent" points="-4,4 -4,-356 576,-356 576,4 -4,4"/>
<g id="clust1" class="cluster">
<title>cluster&#45;scatter&#45;L26C2&#45;family</title>
<polygon fill="none" stroke="black" points="8,-8 8,-308 564,-308 564,-8 8,-8"/>
<text text-anchor="middle" x="286" y="-292.8" font-family="Times,serif" font-size="14.00">scatter(parse_families.families)</text>
</g>
<g id="clust2" class="cluster">
<title>cluster&#45;scatter&#45;L30C3&#45;movie_bam</title>
<polygon fill="none" stroke="black" points="344,-202 344,-277 556,-277 556,-202 344,-202"/>
<text text-anchor="middle" x="450" y="-261.8" font-family="Times,serif" font-size="14.00">scatter(father.movie_bams)</text>
</g>
<g id="clust3" class="cluster">
<title>cluster&#45;scatter&#45;L47C3&#45;movie_bam</title>
<polygon fill="none" stroke="black" points="116,-202 116,-277 336,-277 336,-202 116,-202"/>
<text text-anchor="middle" x="226" y="-261.8" font-family="Times,serif" font-size="14.00">scatter(mother.movie_bams)</text>
</g>
<g id="clust4" class="cluster">
<title>cluster&#45;scatter&#45;L70C3&#45;child_index</title>
<polygon fill="none" stroke="black" points="16,-16 16,-194 246,-194 246,-16 16,-16"/>
<text text-anchor="middle" x="131" y="-178.8" font-family="Times,serif" font-size="14.00">scatter(family.child_indices)</text>
</g>
<g id="clust5" class="cluster">
<title>cluster&#45;scatter&#45;L73C4&#45;movie_bam</title>
<polygon fill="none" stroke="black" points="34,-88 34,-163 238,-163 238,-88 34,-88"/>
<text text-anchor="middle" x="136" y="-147.8" font-family="Times,serif" font-size="14.00">scatter(child.movie_bams)</text>
</g>
<!-- call&#45;parse_families -->
<g id="node1" class="node">
<title>call&#45;parse_families</title>
<polygon fill="none" stroke="black" points="109.5,-346 2.5,-346 2.5,-322 109.5,-322 121.5,-334 109.5,-346"/>
<text text-anchor="middle" x="62" y="-330.3" font-family="Times,serif" font-size="14.00">parse_families</text>
</g>
<!-- scatter&#45;L26C2&#45;family -->
<!-- call&#45;parse_families&#45;&gt;scatter&#45;L26C2&#45;family -->
<g id="edge1" class="edge">
<title>call&#45;parse_families&#45;&gt;scatter&#45;L26C2&#45;family</title>
<path fill="none" stroke="black" d="M62,-315.83C62,-315.67 62,-315.52 62,-315.37"/>
<polygon fill="black" stroke="black" points="65.5,-318 62,-308 58.5,-318 65.5,-318"/>
</g>
<!-- call&#45;samtools_fasta_father -->
<g id="node2" class="node">
<title>call&#45;samtools_fasta_father</title>
<polygon fill="none" stroke="black" points="535.5,-240 374.5,-240 374.5,-216 535.5,-216 547.5,-228 535.5,-240"/>
<text text-anchor="middle" x="461" y="-224.3" font-family="Times,serif" font-size="14.00">samtools_fasta_father</text>
</g>
<!-- call&#45;yak_count_father -->
<g id="node4" class="node">
<title>call&#45;yak_count_father</title>
<polygon fill="none" stroke="black" points="544,-126 418,-126 418,-102 544,-102 556,-114 544,-126"/>
<text text-anchor="middle" x="487" y="-110.3" font-family="Times,serif" font-size="14.00">yak_count_father</text>
</g>
<!-- call&#45;samtools_fasta_father&#45;&gt;call&#45;yak_count_father -->
<g id="edge2" class="edge">
<title>call&#45;samtools_fasta_father&#45;&gt;call&#45;yak_count_father</title>
<path fill="none" stroke="black" d="M464.95,-209.99C469.13,-191.98 475.79,-163.29 480.7,-142.15"/>
<polygon fill="black" stroke="black" points="484.16,-142.7 483.01,-132.17 477.34,-141.12 484.16,-142.7"/>
</g>
<!-- scatter&#45;L30C3&#45;movie_bam -->
<!-- call&#45;assemble_genome -->
<g id="node10" class="node">
<title>call&#45;assemble_genome</title>
<polygon fill="none" stroke="black" points="226,-54 92,-54 92,-30 226,-30 238,-42 226,-54"/>
<text text-anchor="middle" x="165" y="-38.3" font-family="Times,serif" font-size="14.00">assemble_genome</text>
</g>
<!-- call&#45;yak_count_father&#45;&gt;call&#45;assemble_genome -->
<g id="edge4" class="edge">
<title>call&#45;yak_count_father&#45;&gt;call&#45;assemble_genome</title>
<path fill="none" stroke="black" d="M436.92,-95.91C427.7,-93.06 418.1,-90.29 409,-88 355.96,-74.67 295.51,-63.49 248.05,-55.61"/>
<polygon fill="black" stroke="black" points="248.56,-52.15 238.13,-53.98 247.43,-59.05 248.56,-52.15"/>
</g>
<!-- call&#45;samtools_fasta_mother -->
<g id="node5" class="node">
<title>call&#45;samtools_fasta_mother</title>
<polygon fill="none" stroke="black" points="315.5,-240 146.5,-240 146.5,-216 315.5,-216 327.5,-228 315.5,-240"/>
<text text-anchor="middle" x="237" y="-224.3" font-family="Times,serif" font-size="14.00">samtools_fasta_mother</text>
</g>
<!-- call&#45;yak_count_mother -->
<g id="node7" class="node">
<title>call&#45;yak_count_mother</title>
<polygon fill="none" stroke="black" points="388,-126 254,-126 254,-102 388,-102 400,-114 388,-126"/>
<text text-anchor="middle" x="327" y="-110.3" font-family="Times,serif" font-size="14.00">yak_count_mother</text>
</g>
<!-- call&#45;samtools_fasta_mother&#45;&gt;call&#45;yak_count_mother -->
<g id="edge3" class="edge">
<title>call&#45;samtools_fasta_mother&#45;&gt;call&#45;yak_count_mother</title>
<path fill="none" stroke="black" d="M250.67,-209.99C265.6,-191.41 289.68,-161.45 306.79,-140.15"/>
<polygon fill="black" stroke="black" points="309.67,-142.16 313.2,-132.17 304.21,-137.77 309.67,-142.16"/>
</g>
<!-- scatter&#45;L47C3&#45;movie_bam -->
<!-- call&#45;yak_count_mother&#45;&gt;call&#45;assemble_genome -->
<g id="edge5" class="edge">
<title>call&#45;yak_count_mother&#45;&gt;call&#45;assemble_genome</title>
<path fill="none" stroke="black" d="M287.37,-95.88C265.22,-86.31 237.44,-74.3 213.94,-64.15"/>
<polygon fill="black" stroke="black" points="215.07,-60.82 204.5,-60.07 212.29,-67.25 215.07,-60.82"/>
</g>
<!-- call&#45;samtools_fasta_child -->
<g id="node8" class="node">
<title>call&#45;samtools_fasta_child</title>
<polygon fill="none" stroke="black" points="218,-126 66,-126 66,-102 218,-102 230,-114 218,-126"/>
<text text-anchor="middle" x="148" y="-110.3" font-family="Times,serif" font-size="14.00">samtools_fasta_child</text>
</g>
<!-- call&#45;samtools_fasta_child&#45;&gt;call&#45;assemble_genome -->
<g id="edge6" class="edge">
<title>call&#45;samtools_fasta_child&#45;&gt;call&#45;assemble_genome</title>
<path fill="none" stroke="black" d="M152.2,-95.7C154.1,-87.9 156.38,-78.51 158.48,-69.83"/>
<polygon fill="black" stroke="black" points="161.89,-70.65 160.85,-60.1 155.08,-69 161.89,-70.65"/>
</g>
<!-- scatter&#45;L73C4&#45;movie_bam -->
<!-- scatter&#45;L70C3&#45;child_index -->
</g>
</svg>
